<svg width="164" height="41" viewBox="0 0 164 41" fill="none" xmlns="http://www.w3.org/2000/svg">
<rect x="0.546631" y="0.830078" width="162.832" height="39.2119" rx="8" fill="#0F0F0F"/>
<path d="M10.9585 28.0259V22.6821L11.7202 21.9204L12.4819 22.6821V28.0259L11.7202 28.7876L10.9585 28.0259ZM10.9585 20.3853V15.0415L11.7202 14.2798L12.4819 15.0415V20.3853L11.7202 21.147L10.9585 20.3853ZM12.1069 29.1743L12.8687 28.4009H18.2124L18.9741 29.1743L18.2124 29.936H12.8687L12.1069 29.1743ZM12.1069 13.8931L12.8687 13.1313H18.2124L18.9741 13.8931L18.2124 14.6548H12.8687L12.1069 13.8931ZM18.5991 28.0259V22.6821L19.3608 21.9204L20.1226 22.6821V28.0259L19.3608 28.7876L18.5991 28.0259ZM18.5991 20.3853V15.0415L19.3608 14.2798L20.1226 15.0415V20.3853L19.3608 21.147L18.5991 20.3853ZM23.0054 29.1743L23.7671 28.4009H29.1108L29.8726 29.1743L29.1108 29.936H23.7671L23.0054 29.1743ZM23.0054 21.5337L23.7671 20.772H29.1108L29.8726 21.5337L29.1108 22.2954H23.7671L23.0054 21.5337ZM23.0054 13.8931L23.7671 13.1313H29.1108L29.8726 13.8931L29.1108 14.6548H23.7671L23.0054 13.8931ZM29.4976 28.0259V22.6821L30.2593 21.9204L31.021 22.6821V28.0259L30.2593 28.7876L29.4976 28.0259ZM29.4976 20.3853V15.0415L30.2593 14.2798L31.021 15.0415V20.3853L30.2593 21.147L29.4976 20.3853ZM38.2046 27.686H35.4624V24.8501H38.2046V27.686ZM38.2046 18.2173H35.4624V15.3579H38.2046V18.2173ZM42.6226 28.0259V22.6821L43.3843 21.9204L44.146 22.6821V28.0259L43.3843 28.7876L42.6226 28.0259ZM42.6226 20.3853V15.0415L43.3843 14.2798L44.146 15.0415V20.3853L43.3843 21.147L42.6226 20.3853ZM43.771 29.1743L44.5327 28.4009H49.8765L50.6382 29.1743L49.8765 29.936H44.5327L43.771 29.1743ZM43.771 13.8931L44.5327 13.1313H49.8765L50.6382 13.8931L49.8765 14.6548H44.5327L43.771 13.8931ZM50.2632 28.0259V22.6821L51.0249 21.9204L51.7866 22.6821V28.0259L51.0249 28.7876L50.2632 28.0259ZM50.2632 20.3853V15.0415L51.0249 14.2798L51.7866 15.0415V20.3853L51.0249 21.147L50.2632 20.3853ZM54.6694 28.0259V22.6821L55.4312 21.9204L56.1929 22.6821V28.0259L55.4312 28.7876L54.6694 28.0259ZM54.6694 20.3853V15.0415L55.4312 14.2798L56.1929 15.0415V20.3853L55.4312 21.147L54.6694 20.3853ZM55.8179 29.1743L56.5796 28.4009H61.9233L62.6851 29.1743L61.9233 29.936H56.5796L55.8179 29.1743ZM55.8179 13.8931L56.5796 13.1313H61.9233L62.6851 13.8931L61.9233 14.6548H56.5796L55.8179 13.8931ZM62.3101 28.0259V22.6821L63.0718 21.9204L63.8335 22.6821V28.0259L63.0718 28.7876L62.3101 28.0259ZM62.3101 20.3853V15.0415L63.0718 14.2798L63.8335 15.0415V20.3853L63.0718 21.147L62.3101 20.3853ZM73.9116 29.1743V22.6938L74.6733 21.9321L75.4351 22.6938V29.1743L74.6733 29.936L73.9116 29.1743ZM73.9116 20.4087V15.0649L74.6733 14.3032L75.4351 15.0649V20.4087L74.6733 21.1704L73.9116 20.4087ZM75.0366 13.9048L75.7983 13.1313H79.5366L80.3101 13.9048L79.5366 14.6665H75.7983L75.0366 13.9048ZM79.9233 20.4087V15.0649L80.6851 14.3032L81.4468 15.0649V20.4087L80.6851 21.1704L79.9233 20.4087ZM81.0718 13.9048L81.8335 13.1313H85.5718L86.3335 13.9048L85.5718 14.6665H81.8335L81.0718 13.9048ZM85.9351 29.1743V22.6938L86.6968 21.9321L87.4585 22.6938V29.1743L86.6968 29.936L85.9351 29.1743ZM85.9351 20.4087V15.0649L86.6968 14.3032L87.4585 15.0649V20.4087L86.6968 21.1704L85.9351 20.4087ZM90.3413 29.1743V22.6821L91.103 21.9204L91.8647 22.6821V29.1743L91.103 29.936L90.3413 29.1743ZM90.3413 20.397V13.9048L91.103 13.1313L91.8647 13.9048V20.397L91.103 21.1587L90.3413 20.397ZM94.7476 29.1743V22.6821L95.5093 21.9204L96.271 22.6821V29.1743L95.5093 29.936L94.7476 29.1743ZM94.7476 20.397V15.0415L95.5093 14.2798L96.271 15.0415V20.397L95.5093 21.1587L94.7476 20.397ZM95.896 13.9048L96.6577 13.1431H102.001L102.763 13.9048L102.001 14.6665H96.6577L95.896 13.9048ZM102.388 29.1743V22.6821L103.15 21.9204L103.912 22.6821V29.1743L103.15 29.936L102.388 29.1743ZM102.388 20.397V15.0415L103.15 14.2798L103.912 15.0415V20.397L103.15 21.1587L102.388 20.397ZM106.794 28.0259V22.6821L107.556 21.9204L108.318 22.6821V28.0259L107.556 28.7876L106.794 28.0259ZM106.794 20.3853V13.9048L107.556 13.1313L108.318 13.9048V20.3853L107.556 21.1587L106.794 20.3853ZM107.943 29.1743L108.705 28.4126H114.048L114.81 29.1743L114.048 29.936H108.705L107.943 29.1743ZM114.435 28.0259V22.6821L115.197 21.9204L115.958 22.6821V28.0259L115.197 28.7876L114.435 28.0259ZM114.435 20.3853V13.9048L115.197 13.1313L115.958 13.9048V20.3853L115.197 21.1587L114.435 20.3853ZM118.841 13.9048L119.603 13.1313H123.259L124.021 13.9048L123.259 14.6665H119.603L118.841 13.9048ZM123.646 29.1743V22.6821L124.419 21.9204L125.181 22.6821V29.1743L124.419 29.936L123.646 29.1743ZM123.646 20.3853V15.0415L124.419 14.2798L125.181 15.0415V20.3853L124.419 21.1587L123.646 20.3853ZM124.806 13.9048L125.568 13.1313H129.224L129.986 13.9048L129.224 14.6665H125.568L124.806 13.9048ZM132.88 28.0259V22.6821L133.642 21.9204L134.404 22.6821V28.0259L133.642 28.7876L132.88 28.0259ZM132.88 20.3853V15.0415L133.642 14.2798L134.404 15.0415V20.3853L133.642 21.1587L132.88 20.3853ZM134.029 29.1743L134.791 28.4126H140.134L140.896 29.1743L140.134 29.936H134.791L134.029 29.1743ZM134.029 21.5337L134.791 20.772H140.134L140.896 21.5337L140.134 22.2954H134.791L134.029 21.5337ZM134.029 13.9048L134.791 13.1313H140.134L140.896 13.9048L140.134 14.6665H134.791L134.029 13.9048ZM143.802 20.3853V15.0415L144.564 14.2798L145.326 15.0415V20.3853L144.564 21.1587L143.802 20.3853ZM144.951 29.1743L145.712 28.4126H151.056L151.818 29.1743L151.056 29.936H145.712L144.951 29.1743ZM144.951 21.5337L145.712 20.772H151.056L151.818 21.5337L151.056 22.2954H145.712L144.951 21.5337ZM144.951 13.9048L145.712 13.1313H151.056L151.818 13.9048L151.056 14.6665H145.712L144.951 13.9048ZM151.443 28.0259V22.6821L152.205 21.9204L152.966 22.6821V28.0259L152.205 28.7876L151.443 28.0259Z" fill="#F5F5F5"/>
</svg>
