<svg width="163" height="41" viewBox="0 0 163 41" fill="none" xmlns="http://www.w3.org/2000/svg">
<rect y="0.936035" width="162.832" height="39.2119" rx="8" fill="#0F0F0F"/>
<path d="M10.412 29.2803L11.1737 28.5068H16.5175L17.2792 29.2803L16.5175 30.042H11.1737L10.412 29.2803ZM10.412 21.6396L11.1737 20.8779H16.5175L17.2792 21.6396L16.5175 22.4014H11.1737L10.412 21.6396ZM10.412 13.999L11.1737 13.2373H16.5175L17.2792 13.999L16.5175 14.7607H11.1737L10.412 13.999ZM16.9042 28.1318V22.7881L17.6659 22.0264L18.4276 22.7881V28.1318L17.6659 28.8936L16.9042 28.1318ZM16.9042 20.4912V15.1475L17.6659 14.3857L18.4276 15.1475V20.4912L17.6659 21.2529L16.9042 20.4912ZM21.3339 28.1318V22.7881L22.0956 22.0264L22.8573 22.7881V28.1318L22.0956 28.8936L21.3339 28.1318ZM21.3339 20.4912V15.1475L22.0956 14.3857L22.8573 15.1475V20.4912L22.0956 21.2529L21.3339 20.4912ZM22.4823 29.2803L23.244 28.5068H28.5878L29.3495 29.2803L28.5878 30.042H23.244L22.4823 29.2803ZM22.4823 13.999L23.244 13.2373H28.5878L29.3495 13.999L28.5878 14.7607H23.244L22.4823 13.999ZM28.9745 28.1318V22.7881L29.7362 22.0264L30.4979 22.7881V28.1318L29.7362 28.8936L28.9745 28.1318ZM28.9745 20.4912V15.1475L29.7362 14.3857L30.4979 15.1475V20.4912L29.7362 21.2529L28.9745 20.4912ZM37.6581 27.792H34.9159V24.9561H37.6581V27.792ZM37.6581 18.3232H34.9159V15.4639H37.6581V18.3232ZM42.076 28.1318V22.7881L42.8378 22.0264L43.5995 22.7881V28.1318L42.8378 28.8936L42.076 28.1318ZM42.076 20.4912V15.1475L42.8378 14.3857L43.5995 15.1475V20.4912L42.8378 21.2529L42.076 20.4912ZM43.2245 29.2803L43.9862 28.5068H49.33L50.0917 29.2803L49.33 30.042H43.9862L43.2245 29.2803ZM43.2245 13.999L43.9862 13.2373H49.33L50.0917 13.999L49.33 14.7607H43.9862L43.2245 13.999ZM49.7167 28.1318V22.7881L50.4784 22.0264L51.2401 22.7881V28.1318L50.4784 28.8936L49.7167 28.1318ZM49.7167 20.4912V15.1475L50.4784 14.3857L51.2401 15.1475V20.4912L50.4784 21.2529L49.7167 20.4912ZM54.1229 28.1318V22.7881L54.8846 22.0264L55.6464 22.7881V28.1318L54.8846 28.8936L54.1229 28.1318ZM54.1229 20.4912V15.1475L54.8846 14.3857L55.6464 15.1475V20.4912L54.8846 21.2529L54.1229 20.4912ZM55.2714 29.2803L56.0331 28.5068H61.3768L62.1385 29.2803L61.3768 30.042H56.0331L55.2714 29.2803ZM55.2714 13.999L56.0331 13.2373H61.3768L62.1385 13.999L61.3768 14.7607H56.0331L55.2714 13.999ZM61.7635 28.1318V22.7881L62.5253 22.0264L63.287 22.7881V28.1318L62.5253 28.8936L61.7635 28.1318ZM61.7635 20.4912V15.1475L62.5253 14.3857L63.287 15.1475V20.4912L62.5253 21.2529L61.7635 20.4912ZM73.3651 29.2803V22.7998L74.1268 22.0381L74.8885 22.7998V29.2803L74.1268 30.042L73.3651 29.2803ZM73.3651 20.5146V15.1709L74.1268 14.4092L74.8885 15.1709V20.5146L74.1268 21.2764L73.3651 20.5146ZM74.4901 14.0107L75.2518 13.2373H78.9901L79.7635 14.0107L78.9901 14.7725H75.2518L74.4901 14.0107ZM79.3768 20.5146V15.1709L80.1385 14.4092L80.9003 15.1709V20.5146L80.1385 21.2764L79.3768 20.5146ZM80.5253 14.0107L81.287 13.2373H85.0253L85.787 14.0107L85.0253 14.7725H81.287L80.5253 14.0107ZM85.3885 29.2803V22.7998L86.1503 22.0381L86.912 22.7998V29.2803L86.1503 30.042L85.3885 29.2803ZM85.3885 20.5146V15.1709L86.1503 14.4092L86.912 15.1709V20.5146L86.1503 21.2764L85.3885 20.5146ZM89.7948 29.2803V22.7881L90.5565 22.0264L91.3182 22.7881V29.2803L90.5565 30.042L89.7948 29.2803ZM89.7948 20.5029V14.0107L90.5565 13.2373L91.3182 14.0107V20.5029L90.5565 21.2646L89.7948 20.5029ZM94.201 29.2803V22.7881L94.9628 22.0264L95.7245 22.7881V29.2803L94.9628 30.042L94.201 29.2803ZM94.201 20.5029V15.1475L94.9628 14.3857L95.7245 15.1475V20.5029L94.9628 21.2646L94.201 20.5029ZM95.3495 14.0107L96.1112 13.249H101.455L102.217 14.0107L101.455 14.7725H96.1112L95.3495 14.0107ZM101.842 29.2803V22.7881L102.603 22.0264L103.365 22.7881V29.2803L102.603 30.042L101.842 29.2803ZM101.842 20.5029V15.1475L102.603 14.3857L103.365 15.1475V20.5029L102.603 21.2646L101.842 20.5029ZM106.248 28.1318V22.7881L107.01 22.0264L107.771 22.7881V28.1318L107.01 28.8936L106.248 28.1318ZM106.248 20.4912V14.0107L107.01 13.2373L107.771 14.0107V20.4912L107.01 21.2646L106.248 20.4912ZM107.396 29.2803L108.158 28.5186H113.502L114.264 29.2803L113.502 30.042H108.158L107.396 29.2803ZM113.889 28.1318V22.7881L114.65 22.0264L115.412 22.7881V28.1318L114.65 28.8936L113.889 28.1318ZM113.889 20.4912V14.0107L114.65 13.2373L115.412 14.0107V20.4912L114.65 21.2646L113.889 20.4912ZM118.295 14.0107L119.057 13.2373H122.713L123.474 14.0107L122.713 14.7725H119.057L118.295 14.0107ZM123.099 29.2803V22.7881L123.873 22.0264L124.635 22.7881V29.2803L123.873 30.042L123.099 29.2803ZM123.099 20.4912V15.1475L123.873 14.3857L124.635 15.1475V20.4912L123.873 21.2646L123.099 20.4912ZM124.26 14.0107L125.021 13.2373H128.678L129.439 14.0107L128.678 14.7725H125.021L124.26 14.0107ZM132.334 28.1318V22.7881L133.096 22.0264L133.857 22.7881V28.1318L133.096 28.8936L132.334 28.1318ZM132.334 20.4912V15.1475L133.096 14.3857L133.857 15.1475V20.4912L133.096 21.2646L132.334 20.4912ZM133.482 29.2803L134.244 28.5186H139.588L140.349 29.2803L139.588 30.042H134.244L133.482 29.2803ZM133.482 21.6396L134.244 20.8779H139.588L140.349 21.6396L139.588 22.4014H134.244L133.482 21.6396ZM133.482 14.0107L134.244 13.2373H139.588L140.349 14.0107L139.588 14.7725H134.244L133.482 14.0107ZM143.256 20.4912V15.1475L144.017 14.3857L144.779 15.1475V20.4912L144.017 21.2646L143.256 20.4912ZM144.404 29.2803L145.166 28.5186H150.51L151.271 29.2803L150.51 30.042H145.166L144.404 29.2803ZM144.404 21.6396L145.166 20.8779H150.51L151.271 21.6396L150.51 22.4014H145.166L144.404 21.6396ZM144.404 14.0107L145.166 13.2373H150.51L151.271 14.0107L150.51 14.7725H145.166L144.404 14.0107ZM150.896 28.1318V22.7881L151.658 22.0264L152.42 22.7881V28.1318L151.658 28.8936L150.896 28.1318Z" fill="#F5F5F5"/>
</svg>
