<svg xmlns="http://www.w3.org/2000/svg" width="212" height="31" fill="none" xmlns:v="https://vecta.io/nano"><g clip-path="url(#A)"><path d="M14.37 0h25.611c7.956 0 14.422 6.447 14.422 14.316 0 7.926-6.472 14.316-14.422 14.316H14.37C6.414 28.631 0 22.184 0 14.316-.052 6.447 6.414 0 14.37 0z" fill="#4065f3"/><path opacity=".2" d="M50.322 10.935c1.909 6.127-1.594 12.676-7.796 14.527s-12.725-1.588-14.582-7.766c-1.909-6.127 1.594-12.677 7.796-14.527 1.06-.32 2.172-.474 3.29-.531h-.109c-6.626.051-12.037 5.391-12.037 12.043s5.354 11.992 11.986 11.992 12.037-5.333 12.037-11.94c0-1.319-.161-2.586-.585-3.803v.006z" fill="#000"/><path d="M39.184 26.096c6.531 0 11.825-5.274 11.825-11.78s-5.294-11.78-11.825-11.78-11.825 5.274-11.825 11.78 5.294 11.78 11.825 11.78z" fill="#fff"/><g fill="#4065f3"><path d="M50.052 9.245c-.321-.685-.746-1.376-1.17-2.01-.109-.16-.212-.32-.321-.423s-.161-.211-.212-.263c-.212-.262-.424-.474-.636-.685-2.23-2.273-5.302-3.489-8.483-3.489-3.818 0-7.474 1.85-9.704 4.968-.212.262-.424.583-.585.896l-.263.32c-.373.634-.636 1.268-.848 1.953v.051.051c-.051.109-.051.211-.109.32-1.806 6.338 1.857 12.939 8.22 14.789 5.302 1.53 10.977-.794 13.734-5.602l.051-.051c.264-.474.476-.954.688-1.479.109-.211.161-.474.263-.685v-.051c0-.109.052-.16.052-.211s.051-.16.051-.211v-.16c.051-.262.109-.474.161-.743s.109-.423.109-.685.051-.423.051-.634.051-.583.051-.845c0-1.799-.373-3.54-1.112-5.122h.013zm.109 7.132v-.32c.051 0 .109.051.161.051s.051.051.109.051c0 .051.051.109.051.16 0 .109-.051.211-.051.32-.051-.051-.109-.16-.161-.211-.052 0-.109-.051-.109-.051zm-2.172-9.405l.109.109h-.109c-.052 0 0-.051 0-.109zm2.545 8.502c-.052-.109-.052-.262.051-.32l-.051.32zm-.424 2.164c-.051.211-.161.422-.212.685a12.51 12.51 0 0 1-.688 1.479v.051c-3.078 5.493-10.019 7.503-15.591 4.437-4.666-2.587-6.947-8.08-5.411-13.15v-.051c0-.051.052-.109.052-.16v-.051c0-.034.017-.07.051-.109v-.109l.109.051c.051 0 .109 0 .161.051l.051.051c.051.051.051.109.051.109 0 .051 0 .109.051.109 0 .051.051.16.051.211s0 .16-.051.16-.051-.109-.109-.16c0-.051-.051-.109-.051-.109-.051-.051-.109-.109-.212-.16-.051-.051-.109-.051-.161-.051 0 .051.051.109.051.16s.051.211.051.32c.052.051.052.16.052.211 0 .109 0 .211-.052.32s-.051.211-.051.32c-.051.109-.051.211-.109.371v.263c0 .051 0 .109.051.109.051.109.161.16.212.262.051.109.109.16.109.262 0 .051.051.109.051.109s.052.051.109.051c.034.034.051.071.051.109.051.051.051 0 .109.16s.109.371.161.531c.052.109.109.211.161.263s.161.211.264.211c0-.109-.161-.109-.161-.211 0-.051-.051-.051-.051-.109l-.109-.109c-.103 0-.103-.109-.103-.211v-.32c.052.051.052.16.109.16.109.109.212.262.321.371a1.15 1.15 0 0 0 .212.32c.051.051 0 .16 0 .211v.16c0 .109.051.109.109.16s.161.109.212.16.109.109.212.16c.109.051.109.16.212.109s.161-.16.212-.16.051.109.161.16c.109 0 .212.051.321.051s.109.109.212.211h.161c.051 0 .161 0 .212.051s.051.211.051.263.051.051.051.109c.051.051.051 0 .109 0h.212c.051 0 .109-.051.161-.051s.051 0 .109.051h-.051l.051.051v.211s.052 0 .052.051 0 .051-.052.051h-.051l-.051.051h-.051v.051c-.034.034-.051.07-.051.109v.109.051c0 .051-.051.051-.051.051v.109s-.051.051-.051.109v.109c0 .051-.052.051-.052.109v.051l.052.051v.051.262c0 .109.051.211.109.32.051.051.051.109.109.16l.109.16c.051.051.051.109.109.16s.109.051.161.051.109.051.161.051c.051.051.051.16.109.211s.109.109.161.16l.161 1.005c.051.109.051.211.051.32v.263c0 .16-.051.262-.051.422 0 .109-.051.211-.051.32v.16l-.051.051v.109l.051.262c0 .16.051.32.051.474v.474c.051.109.109.263.212.371.109.16.263.262.424.32.051 0 .161.051.212.051.109.051.212.109.321.109 0-.051-.051-.109-.109-.16s-.161-.051-.161-.16c0-.051-.052-.109-.109-.16-.051 0-.051-.051-.109-.051 0 0-.051 0-.051-.051h-.051v-.16c0-.051 0-.109.051-.16 0-.051.051-.051.051-.109v-.371c0-.109 0-.211.051-.371s.161-.32.321-.423l.109-.109c.051-.051.109-.051.161-.109.051-.051.051-.109.051-.16s.051-.109.051-.16c0-.109-.051-.16-.109-.262h.109c.051 0 .109 0 .161.051.051 0 .161 0 .212-.051.051 0 .051-.051.109-.109l.051-.051.109-.109.051-.051c.051-.109.109-.262.161-.371s.109-.263.161-.371c.051-.051.109-.109.212-.16.109-.051.161-.109.263-.16.051-.051.109-.16.161-.211s.052-.109.109-.16v-.262c0-.051 0-.109-.051-.16v-.16c0-.051.051-.16.109-.16l.161-.16c.109-.109.212-.262.161-.371s-.051-.051-.109-.109l-.051-.051h-.161c0-.109-.109-.109-.161-.109h-.161l-.212-.32c-.051 0-.109-.051-.109-.051-.052 0-.109-.051-.161-.051-.051-.051-.051-.16-.109-.211s-.161-.051-.264-.109v-.051l-.109-.109c0-.051-.051-.109-.051-.16-.052-.109-.212-.16-.373-.16-.051-.051-.161-.16-.264-.211h-.264c-.051 0-.161 0-.212-.051l-.051-.051s-.109-.051-.161-.109c-.051-.051-.109-.109-.161-.211 0-.051-.051-.051-.109-.051s-.109.051-.161.109-.052.109-.109.051.051-.16-.051-.16h-.321c-.109.051-.212.16-.264.263-.051.051-.109.16-.161.16s-.051-.051-.051-.051l-.051-.051c-.052 0-.109.051-.212.051-.051 0-.109 0-.161-.051 0 0-.051 0-.051-.051s.051-.109.051-.16c.051-.109.051-.262.051-.371-.051-.109-.161-.109-.263-.051s-.161.16-.264.109c0-.109.051-.109 0-.211s-.051-.109-.051-.16c.051-.109.109-.16.161-.262.051-.051 0-.109-.051-.109s-.109-.051-.161-.051-.109.109-.109.16l-.161.16c-.051.051-.161.16-.264.16s-.109-.109-.161-.16-.109-.051-.051-.109c0-.051.051-.16.051-.211v-.371c0-.109.109-.371.212-.32s.161.109.264.109c.051 0 .161 0 .161-.109s-.051-.109 0-.16.161 0 .264 0 .109-.051.161-.109c.051 0 .109 0 .161.051.109.051.161.109.161.211.051.109.051.16.109.211s.051.109.109 0 .051-.211.051-.32 0-.262.051-.371l.161-.16c.051-.051.109-.051.161-.051a.42.42 0 0 0 .109-.211c-.051 0-.109-.051-.109-.109s.109-.109.161-.109c.161-.109.321-.262.424-.422.051-.109.109-.16.264-.16.109 0 .212 0 .264-.051.051 0 .321-.109.212-.211s-.161-.051-.161-.109.051-.16.109-.16.109-.051.109-.16-.109-.109-.161-.109c-.109 0-.161.051-.212.051s-.109.051-.161.051l.109-.109c.051-.051.109-.051.161-.109.109-.051.212-.051.321-.109h.424l.161.051c.109 0 .161 0 .264-.051.051-.051 0-.109 0-.16s-.051-.109-.109-.16c-.051-.109-.109-.16-.161-.211s-.109-.109-.161-.211v-.16c0-.051.109-.32.051-.371s-.051 0-.109.051-.109.051-.161.109c-.161.051-.264-.109-.321-.211 0-.109-.051-.211-.051-.263 0-.109-.109-.16-.161-.211-.051 0-.161-.051-.212 0s0 .051 0 .109-.051.109-.109.16c-.051.051-.109.109-.161.211 0 .109.051.262.051.371 0 .051 0 .109-.051.16s-.109.16-.161.211-.051.109-.051.211c0 .16-.109.262-.212.371-.051 0-.109 0-.161-.051v-.109c0-.109 0-.211-.051-.371 0-.051-.051-.051-.109-.051s-.051-.051-.109-.109-.109-.16-.161-.211c-.109-.109-.161-.051-.321-.051s-.052-.051-.109-.051h-.051v-.32c0-.051.051-.051.109-.109-.051-.051-.051-.109-.051-.16s0-.16.051-.211c.109-.109.321-.109.424-.16.051 0 .051-.051.109-.109 0-.034.017-.07.051-.109 0-.051.051-.051.051-.109v-.051c.051-.051.109-.051.161-.051s.161 0 .161-.051v-.109c0-.051 0-.109.051-.16.051 0 .109-.051.109-.109v-.211c.051-.051.109-.051.109 0 .051 0 .051.051.109.109s.051 0 .109 0c.051-.051.051-.109.109-.16 0-.051.051-.109 0-.109-.051-.051-.161-.051-.212 0-.051 0-.109.051-.109.051l-.109.109c-.051.051-.109.051-.109 0a.42.42 0 0 1-.109-.211v-.109s-.109-.051-.161 0c-.051 0-.051.051-.109.051 0 .051-.051.051-.051.109l-.109.109c-.051 0-.109 0-.161-.051s-.109-.051-.161 0-.161.051-.212.051c-.051-.051-.109-.051-.161-.109-.109-.109-.264-.16-.373-.051 0 0-.051 0-.051.051-.051.051-.051.109-.109.16-.109 0-.161-.051-.212-.109s-.051-.109-.051-.211c0-.051-.051-.16-.109-.16-.051-.051-.109 0-.161-.051s-.051-.109-.051-.109c0-.109-.051-.16-.161-.16-.051 0-.109 0-.212.051-.051 0-.109 0-.161-.051 0-.051-.051-.109-.051-.16 2.172-2.798 5.514-4.437 9.068-4.488 2.757 0 5.353.954 7.474 2.747l-.051.051c0 .051 0 .109.051.16l.051.051v.109c0 .051-.051.109.051.109s.109-.051.109-.051c.051-.051.109-.109.109-.16l.212.211s-.051.051-.051.109 0 .109-.051.16l-.109.109c-.161.109-.321.16-.424.211-.109.051-.264.109-.264.211s0 .211.051.262c.051.109 0 .109-.051.16s-.161.109-.161.263c0 .109.051.16.109.211s.161.16.051.16-.161 0-.264-.051c-.051 0-.109-.109-.161-.109s-.109-.051-.109-.109c-.161.051-.109.211-.051.32 0 .051 0 .109.051.16l.109.109c.051.051.109.051.161.109.051 0 .051.051.109.051.051.051.051.16 0 .211 0 .109-.051.16-.109.262-.051.051-.109.16-.161.211-.052 0-.212.051-.212 0s.051-.051.051-.109c.051-.051.109-.109.109-.16.212-.262.212-.423.212-.531-.051-.109-.109-.16-.161-.211s-.109-.051-.161-.109c-.051-.051-.051-.16-.109-.211a.91.91 0 0 0-.109-.371c-.051-.051-.051-.109-.109-.109s-.109.051-.161.109c0 .16 0 .32.109.474.051.109.161.262.264.371.051.051.161.211 0 .211s-.109-.109-.161-.16-.161-.051-.212 0h-.051l-.051-.051h-.161s0 .051-.051.051h-.051l-.051.051c-.051 0-.051.051-.109.109l-.109.109c-.051.051-.109 0-.161.051-.109 0-.212.051-.373.051-.051.051-.161.109-.161.16-.051.051-.051.109-.109.211h-.321c-.051 0-.109.051-.109.109l-.051.051-.052.051c.103 0 .103.051.052.109l-.109.109c-.051 0-.109.051-.109.051l-.051.051v.051h-.051c.109-.109.212-.16.264-.263s-.109-.16-.161-.262h.161c.051 0 .161-.051.212-.109 0 0 .051 0 .051-.051v-.051c0-.051-.051-.051-.109-.051l-.051-.051h-.109c-.051 0-.051-.051-.051-.051v-.109c0-.034-.017-.051-.051-.051l-.161-.16c0-.051-.051-.051-.109-.109l-.051-.051c-.051-.051-.161-.051-.264-.051-.161 0-.321.051-.424.16-.052.051-.109.051-.212.109-.109.051-.161.051-.263.109s-.264.16-.373.211-.161.16-.212.262c-.051.051-.051.109-.051.211s-.212.16-.321.262a.42.42 0 0 0-.109.211c-.051.109-.051.263-.109.423 0 .051-.109.211 0 .262h.476c.051.051.161.109.161.211.051.051.109.16.161.16.161 0 .321-.051.424-.211.109-.109-.051-.262-.109-.371s-.051-.263 0-.371c0-.051.051-.16.109-.211.051-.109.109-.211.212-.262.109-.109.161-.051.212.051 0 .051 0 .16-.051.211s-.109.109-.161.211-.051.109-.109.16.051.16.161.16.161-.051.264-.051h.212c.051 0 .109 0 .161.051l.051.051s-.212.051-.321.051c-.051 0-.109.051-.109.051v.16c0 .109-.109.211-.161.263-.109.109-.212.16-.373.16-.109 0-.212.051-.264.109-.034.034-.071.051-.109.051h-.424c-.109.051-.109.109-.161.16l-.321.32c-.051.051-.161.109-.264.16-.109 0-.161.051-.212.109-.051.051 0 .16.051.211s.051.16.051.211 0 .16-.051.211h-.424v.051h-.051s-.051 0-.051.051v.211s-.051 0-.051.051c-.051.051-.109.16-.051.262 0 .051 0 .109.051.109l.051.051v.051s.161 0 .212-.051.051-.051.109-.051.051.051.109.051.109 0 .161-.051c.051 0 .109-.051.161-.109a.75.75 0 0 0 .161-.211c0-.109.051-.16.051-.262s.051-.16.161-.109.109.051.161.051.109-.16.212-.16.109 0 .161.051.109.109.109.16 0 .051.051.109c0 .051 0 0 .051.051s.109.109.212.109.161.051.161.109-.161.32-.051.371.051-.051.109-.051l.109-.109c.051-.051.051-.16.051-.262 0-.051 0-.109-.109-.109-.051-.051-.161-.109-.212-.109-.051-.051-.109-.051-.109-.109 0-.109-.051-.16-.161-.262.109-.109 0-.16.051-.16h.051l.161.16c.051.051.109.051.161.109.051.051.109.051.109.109.051 0 .109.051.109.109 0 .109.051.211.109.371.052.051.109.263.212.211s0-.109 0-.211c0-.051.051-.16.109-.16.109-.051.161 0 .212-.051s.109-.109.109-.211.051-.211.109-.32c.051-.109.109-.211.212-.16.051 0 .109.051.109.051l.051.051.051-.051c0-.051.052-.051.109-.109.051-.051.321-.16.321-.051s-.051.109-.109.109-.109.109-.109.16c.051 0 .051-.109.109-.109h.109c.051.051.109.109.109.16h.161c.051 0 .109 0 .109.051s.051.109.051.211c0 .051-.051.16 0 .16l-.051.051-.051-.051c-.051 0-.051-.051-.109-.051-.109-.051-.212-.051-.373-.051-.109 0-.161 0-.264.051h-.264c-.109.051-.212.16-.212.263 0 .051.109.109.161.109s.109.051.161.051.109.051.212.109.161 0 .212.109c.051.051.109.109.109.16s-.051.16-.109.211c0 .051-.051.051-.109.109-.109.051-.161 0-.264 0h-.161c-.109-.109-.264-.16-.373-.16-.161 0-.264.051-.424.051v.32c0 .051-.051.109-.109.109s-.109 0-.109-.051c-.051 0-.109 0-.161-.051s-.051-.109-.109-.16-.051-.109-.109-.109-.109-.051-.161-.051c-.109-.051-.264-.109-.373-.109-.052 0-.212 0-.212-.109s.109-.109.161-.16-.109-.16-.161-.16c-.109 0-.212 0-.321.051s-.212.109-.321.109c-.109.051-.212.051-.321.051h-.212c-.051.051-.161.051-.212.051-.161.16-.424.32-.373.583 0 .109-.161.16-.212.211l-.161.16c-.109.051-.161.16-.212.262 0 .051 0 .109-.051.211-.051.051-.051.16-.109.262v.32a.47.47 0 0 0 .051.263l.161.16c.051.109.051.16.109.263l.161.16s.052.051.109.051h.109c.051 0 .051.051.109.109.051 0 .051.051.109.051s.051.051.109.051h.636c.051 0 .109-.051.161-.051.051-.051.109-.051.212 0 .051 0 .051.051.109.051 0-.051 0-.109.051-.16 0-.051.051-.051.109 0s.109.109.161.16.051.109.109.16.161 0 .212.051 0 .16-.052.263-.109.16 0 .262l.052.051s0 .051.051.051.109.051.161.16c0 .109 0 .211.051.32s.109.211.161.32c.051.16 0 .262-.161.371-.051.051-.109.109-.109.16s0 .109.051.16.109.16.161.211c.051.16.109.371.109.531 0 .109.051.16.051.262.051.109.109.16.109.211l.109.16c.051.051.051.16.051.211v.371c0 .051.212 0 .264-.051.051 0 .161-.051.212-.109.051-.051.109-.109.212-.109.051 0 .109-.051.161-.051a1.66 1.66 0 0 0 .373-.262 1.37 1.37 0 0 0 .264-.371c.051-.109 0-.16.109-.211s.161-.051.161-.16v-.371c0-.109.109-.211.161-.262s.109-.109.161-.109.161-.051.161-.109c.051-.051.051-.109.109-.211v-.262c0-.109-.051-.16-.109-.262 0-.051-.051-.109-.109-.16s-.051-.051-.109-.109c0-.051 0-.109.051-.109s.109-.16.161-.211l.109-.109.051-.109c.051-.051.109-.109.212-.16l.161-.109c.051-.051.109-.109.161-.211.109-.16.321-.32.424-.474.051-.051.051-.109.109-.109 0-.051-.161-.051-.212-.051-.109 0-.212.051-.321.109-.109.051-.264.109-.424.109-.109 0-.109-.051-.161-.109s-.051-.051-.051-.109v-.109l-.051-.051v-.32c0-.051-.051-.109-.109-.16s-.161-.109-.161-.16c-.051-.051-.051-.109-.109-.16-.051-.109-.109-.16-.161-.211s-.109-.109-.109-.16v-.371h.109c.109 0 .212.109.264.16.051.109.051.263.109.371s.109.211.161.32.109.16.161.263c.051.051.109.16.161.211.109.109.051.211.109.32.051 0 .161-.051.212-.109s.161-.16.264-.211.212-.211.373-.211c.161-.16.264-.16.373-.263s.161-.211.212-.32c0-.051-.051-.16-.051-.211s-.109-.051-.109-.109h-.161c-.051 0-.109 0-.109-.051v-.109s-.109 0-.161.051c-.109.051-.321.211-.373 0 0-.051-.051-.109-.051-.16s0-.109-.051-.16-.161-.16-.161-.262.051-.109.051-.109v-.051c.051.051.109.16.161.211s.051.109.161.109c.051 0 .161 0 .212.051l.103.051c.051 0 .161.051.212.051 0 0 .051.051.109.051h.264c.109 0 .212.051.373.109.109 0 .212 0 .264.109s0 .211.109.262.109 0 .212 0c.034 0 .071.017.109.051.051.051.051.109.109.16s.161-.051.161-.109.161-.32.212-.211 0 .109-.051.109c0 .109-.052.262-.052.371v.263c0 .051.052.051.109.109s.051.109.109.109h.051l.109.109c0 .109-.051.262 0 .371s.109.16.161.211.161.051.264 0c.109-.109.051-.262.051-.371s.051-.211.109-.32c.051-.109.161-.211.212-.32l.212-.211c.051 0 .109-.051.109-.109.051-.051.051-.109.051-.109s.212-.16.264-.051 0 .16 0 .211.051.109.051.16c.109.211.212-.16.373-.051l.051.051c.051 0 .051.051.051.051v.262c0 .051.051.109.109.16 0 .034.017.07.052.109.051.051.051.109.051.109v.371c0 .073.017.143.051.211 0 .051.051.051.051.109.051 0 .051.051.109.051l.109.109v.051c-.034 0-.071-.017-.109-.051-.052 0-.052-.051-.109-.109s-.051 0-.109-.051l-.051-.051h-.051s-.051 0-.051-.051-.161-.109-.212-.16c0 .051-.051.051 0 .16s.109.109.161.16.051.109.109.16l.109.051.051.051s.051 0 .109.051c0 .051.051.051.051.109v.051c0 .051-.051.109-.051.16l-.051.211-.039.07z"/><path d="M32.77 15.161c-.034-.034-.034-.034 0 0l-.051-.051-.051-.051c-.051-.051-.109 0-.109 0-.051 0-.109 0-.161.051h-.051v-.051h-.051s-.051 0-.051-.051h-.161c-.051 0-.109 0-.109.051-.034-.034-.071-.034-.109 0h.161v.109c0 .051.051 0 .109 0h.534s0 .051.051.051.109 0 .109-.051v-.051l-.051.051-.006-.006zm.636.211h-.212l-.051-.051h-.051c-.052 0-.052.051-.052.051 0 .051.052.109.109.109h.109l.052.051h.109s.051 0 .051-.051-.051-.109-.051-.109h-.013zm11.665 3.22h-.109a1.04 1.04 0 0 1-.161.262h-.109c-.051 0-.109 0-.161.051-.034.034-.051.07-.051.109v.32c0 .051-.051.109-.051.16s-.051.109-.051.16c-.051.051-.051.109-.051.16 0 .262.476.109.424-.109.109-.109.161-.211.212-.371 0-.051.051-.109.051-.16s0-.109.051-.16c0-.051.051-.109.109-.16s.051-.051.051-.109c-.109-.051-.161-.109-.161-.16l.006.006zm-5.463-7.606c0 .051.051.051.051.109v.211c0 .051.051.109.051.16v.16l-.051.051s-.051.051-.051.109 0 .109.051.109c.109.051.051 0 0 0 .161 0 .321-.051.476-.109.051 0 .109-.051.109-.109s-.161-.16-.212-.211-.161-.051-.212-.16c0-.051-.051-.109-.051-.109 0-.051-.051-.051-.051-.109s.051-.051.109-.109v-.109c0-.109-.212-.16-.264-.051v.16h.051l-.006.006z"/><path d="M39.235 11.198c-.051.051-.051.16-.051.211v.109c0 .051-.109.051-.109.109s.109.109.109.109.109 0 0-.051l.321-.32c-.051 0-.051-.051-.051-.109s-.051-.051-.109-.109-.051 0-.109.051zm4.988-2.849c.051 0 .051.051.109.109s.051 0 .109-.051.109-.051.051-.109c-.109-.109-.212-.211-.264-.32.051-.109.051-.16.051-.262 0-.051 0-.109.051-.16.051-.109.161-.211.264-.32.051-.051.161-.051.212-.109s.161-.211-.109-.263c-.051 0-.161.109-.212.211-.109.16-.263.32-.424.423-.212.211-.264.474-.264.743.051.109.264.051.424.109zm-4.827-2.484c-.051-.109-.212-.16-.373-.109-.051 0-.109.051-.109.051l-.109.051h-.264l-.052-.051h-.051v-.109c.051 0 .051-.051.109-.051h.051c.109 0 .161-.051.212-.109 0-.034-.017-.07-.051-.109-.051-.051-.109-.051-.212-.109-.109-.051-.161-.051-.264-.051s-.161-.051-.212-.109c-.161-.051-.264.051-.321.16-.109.051-.161.051-.264.051h-.051c-.212 0-.424 0-.585.109-.109.051-.161.051-.212.16l-.051.051c0 .051-.051.051-.051.051h-.161c-.109 0-.212.051-.321.109l-.161.16c-.051.051-.051.109-.109.211 0 .051-.109.16-.264.211-.109.051-.161.109-.161.211v.262.109c0 .051 0 .109.051.109h.161c.109.051.161.051.264.109l.051.051c.051.051.109.16.109.262s.051.211.109.32l.051.109a.21.21 0 0 0 .051.109c0 .051-.051.109-.051.109l-.051.051c-.051.109-.109.211-.051.32 0 .051.109.109.161.16h.051s.051 0 .051.051 0 .051-.109.16l-.051.051c-.051.051-.161.16-.161.211-.052.16 0 .32.109.371l.051.051s.051.051 0 .109-.051.16-.051.211c-.051.109-.051.16 0 .263.051.051.109.16.212.16.051 0 .109.051.161.051s.161-.051.161-.109c.051-.051.051-.109.051-.109l.052-.051c.051-.051.051-.16.109-.211s.109-.109.212-.16c.051-.051.109-.051.161-.109.051-.051.109-.109.109-.16.051-.051.051-.109.109-.16.051 0 .051-.051.109 0h-.05c.161 0 .264-.051.424-.109.109-.051.321-.109.373-.32 0-.109.051-.16.051-.262v-.051s0-.051.051-.051V8.02c0-.051.051-.109.109-.16l.051-.051c.051-.051.109-.051.109-.109v-.423c0-.051 0-.109.051-.16v-.051c.051-.051.051-.109.109-.16 0-.051 0-.109.051-.16v-.109c0-.051.051-.109.109-.16 0-.051.051-.051.109-.051l.109-.051.109-.051c.051 0 .109-.051.109-.109-.051-.262-.051-.32 0-.371l-.032.019zm-4.344 3.271c.051-.051.109-.109.109-.211 0-.051-.051-.16-.109-.211 0-.051-.051-.051-.109-.109-.051 0-.051-.051-.109-.051-.051-.051-.109-.109-.109-.16-.051-.051 0-.16 0-.211 0-.109-.051-.16-.109-.211l-.109-.109s-.051 0-.051-.051a1.02 1.02 0 0 1-.212-.32c0 .051 0 0-.051 0h-.109s0-.109.051-.16v-.109c-.051 0-.161 0-.161.051-.109.109-.212.16-.264.262s-.051.109-.109.051 0-.109 0-.16v-.109c0-.051.109-.16.109-.211-.161 0-.321.262-.424.32-.109.16-.109.109-.051.16s.051.051.051.051 0 .109-.051.109 0 .109 0 .16.109.262.264.211c.051 0 .109-.051.109-.109h.161c.034 0 .071.017.109.051s.075.051.109.051c.051 0 .109.211.109.263v.16c.051.051.051.109 0 .16-.109.109-.264.262-.424.32l-.161.109v.051h.212c.109 0 .212 0 .263.109s.109.109.109.16 0 .051.051.051h.109c.051 0 .051.051.109.051s.161.051.212.051.212-.051.212-.16-.109-.109-.109-.109c-.051-.051-.109-.109-.109-.16-.051-.109 0-.262.109-.262.051 0 .109 0 .161.051.051 0 .109.051.161.051s.051.051.109 0c-.103.16-.051.16-.051.109l-.006.019z"/><path d="M33.458 6.338c-.161 0-.161.109-.161.211s0 .211.109.262.212 0 .264.051.051.16.161.16h.264c.051 0 .161 0 .161-.051s-.051-.109-.109-.16c-.051-.051-.161-.051-.212-.051s-.109-.051-.161-.051c0 0-.109-.051-.109-.109s.264-.051.373-.051c.212 0 .321.109.476.211-.109 0-.109.109-.051.109h.161c.051 0 .051-.109 0-.16s-.051-.109 0-.16.161-.051.212-.109 0-.109 0-.211c0-.16.051-.16.321-.371l.109-.051c.109-.051.212-.051.264-.109s.161 0 .161-.109-.109-.051-.109-.051c-.051 0-.051-.051-.109-.051-.051-.109.109-.16.212-.16h.212c.051 0 .109 0 .161-.051.109-.051.321-.051.424-.16.109-.109.051-.262-.051-.32-.051-.051-.109-.109-.161-.109h-.848c-.161-.051-.321-.051-.476-.051-.109 0-.161.051-.264.051l-.109.051v.211c0 .034.017.07.051.109.051.051 0 .109 0 .16s0 .051-.051.051h-.161c-.051 0-.051-.109-.051-.16v-.16s.109-.109.051-.109-.109 0-.161.051c-.051 0-.109.051-.109.051-.109.051-.161.16-.212.262-.051.051-.109.109-.109.211s-.161.32 0 .371h.321c.051 0 .109.051.161.16 0 .051 0 .16-.051.211 0 .051-.109.051-.161.051s-.109 0-.161.051l-.109.16c-.051.051-.109.051-.161 0 0 0-.051-.051-.109-.051 0 0-.052-.051-.109-.051l.019.019z"/><path d="M33.509 5.813l.051-.109v-.16l-.109-.051-.109.109-.051.051c0 .034-.017.07-.051.109a1.17 1.17 0 0 0 .264.16c-.051 0 0-.051 0-.109h.006zm-.315.525c-.051.051-.109.16-.161.211V6.6h-.051l-.109-.211c-.058-.102-.051-.051-.109 0s-.051.16 0 .211.109.109.161.109.161 0 .212-.051c.051 0 .109 0 .109-.051s0-.16-.051-.262v-.006z"/><path d="M32.931 7.023c-.109 0-.212 0-.373.051v.211c0 .051 0 .109-.051.16 0 .051-.051.109-.051.109s.161.051.161 0c.051-.051.109-.051.161-.109 0-.051 0-.109.109-.16s.109-.051.161-.109c0-.051 0-.109-.109-.16l-.006.006z"/><path d="M32.134 7.183c.051-.051.109-.051.109-.051 0-.051 0-.109-.051-.16s-.161 0-.212.051l-.161.16c-.051.051-.161-.051-.161-.051v-.109s-.051-.051-.103-.051-.051-.051-.051-.109-.051-.109-.051-.16 0-.211-.109-.262-.212-.051-.264 0c-.161.109-.263.32-.263.531 0 .109.051.211.109.262 0 .051.051.051.051.051.034 0 .071.017.109.051.212.051 0 .263-.051.371s0 .109.051.16c.109 0 .212 0 .263-.051.109-.051.212-.109.321-.109s.051.051.051.051c.034.034.071.051.109.051.109.051.212.051.321 0 0 0 .051 0 .051-.051s0 0-.051 0-.051-.051 0-.109a.59.59 0 0 1-.161-.423c.109.109.109 0 .161-.051l-.019.006zm3.181 4.649c-.051 0-.161.051-.212 0s-.161-.109-.161-.109l-.321.16s-.051 0-.109.051 0 .051.051.109.109.109.109.109.051 0 .109-.051c.109-.051.264 0 .373 0s.109 0 .161-.051.051-.211 0-.211v-.006zm3.606-2.216c.051-.051.051-.211-.051-.211s-.212.051-.264.109-.109.051-.109.051h-.321c-.051 0-.161 0-.161.109s.051.16.109.211.161.051.212 0c.109-.051.212-.051.321-.051.109-.051.212-.109.264-.211v-.006z"/></g><g fill="#fff"><path d="M39.184 3.067c6.26 0 11.292 5.019 11.292 11.249s-5.039 11.249-11.292 11.249-11.292-5.019-11.292-11.249c0-6.236 5.09-11.249 11.292-11.249zm0-.531c-6.523 0-11.825 5.282-11.825 11.78s5.302 11.78 11.825 11.78 11.825-5.282 11.825-11.78-5.302-11.78-11.825-11.78zm33.953 5.147c0 .8-.135 1.549-.411 2.234-.276.679-.655 1.274-1.137 1.767a5.17 5.17 0 0 1-1.729 1.165c-.668.282-1.395.423-2.172.423s-1.562-.141-2.262-.429-1.311-.679-1.832-1.172a5.5 5.5 0 0 1-1.221-1.748c-.296-.672-.443-1.396-.443-2.17a5.34 5.34 0 0 1 .443-2.17 5.41 5.41 0 0 1 1.215-1.748A5.73 5.73 0 0 1 65.4 2.663c.694-.288 1.44-.429 2.243-.429a6.08 6.08 0 0 1 2.577.563c.803.371 1.472.89 1.979 1.53l-1.857 1.671a3.7 3.7 0 0 0-1.215-1.005 3.21 3.21 0 0 0-1.491-.346 2.95 2.95 0 0 0-1.195.237 2.98 2.98 0 0 0-.945.647 2.98 2.98 0 0 0-.623.986c-.154.384-.225.794-.225 1.229a3.24 3.24 0 0 0 .238 1.248c.161.378.373.711.649.992a2.82 2.82 0 0 0 .977.659c.379.16.79.237 1.227.237.617 0 1.157-.154 1.62-.467.469-.314.771-.717.925-1.216h-2.898V6.921h5.758v.768-.013l-.006.006zm1.516 5.41V2.388h4.357c.79 0 1.529.141 2.23.423.694.282 1.298.659 1.806 1.14a5.3 5.3 0 0 1 1.202 1.703c.296.653.443 1.364.443 2.119s-.148 1.428-.443 2.081a5.43 5.43 0 0 1-1.202 1.697 5.54 5.54 0 0 1-1.806 1.133c-.701.275-1.44.41-2.23.41h-4.357zm4.299-8.381h-1.658v6.057h1.658a3.19 3.19 0 0 0 1.183-.224 2.79 2.79 0 0 0 .957-.634 2.97 2.97 0 0 0 .636-.954 3.01 3.01 0 0 0 .225-1.178 3.22 3.22 0 0 0-.225-1.197c-.148-.365-.366-.698-.636-.973s-.591-.493-.957-.647c-.366-.16-.765-.237-1.183-.237v-.013zm12.739 6.102a3.11 3.11 0 0 0 1.453-.339c.443-.224.848-.557 1.202-.992l1.735 1.697c-.501.621-1.163 1.12-1.973 1.498a5.88 5.88 0 0 1-2.506.563 6.03 6.03 0 0 1-2.282-.429c-.714-.288-1.317-.672-1.832-1.165a5.38 5.38 0 0 1-1.215-1.741c-.296-.672-.443-1.396-.443-2.17s.148-1.498.443-2.183a5.23 5.23 0 0 1 1.221-1.748c.514-.493 1.131-.877 1.832-1.165s1.465-.429 2.275-.429a5.78 5.78 0 0 1 1.317.154 6.93 6.93 0 0 1 1.26.423 5.31 5.31 0 0 1 1.105.659 4.65 4.65 0 0 1 .874.864l-1.78 1.741c-.379-.467-.803-.826-1.266-1.063a3.28 3.28 0 0 0-1.51-.359c-.431 0-.835.077-1.202.237a3 3 0 0 0-.964.647 3.1 3.1 0 0 0-.649.986c-.161.378-.238.794-.238 1.229s.077.845.238 1.216a3.09 3.09 0 0 0 .656.973c.277.275.617.493.996.647s.803.237 1.253.237v-.013.026zM62.314 27.773V17.069h8.535v2.279h-5.893v2.004h3.927v2.202h-3.927v4.219h-2.641zm10.945-8.835c-.379 0-.701-.134-.964-.397a1.32 1.32 0 0 1-.399-.96c0-.371.135-.698.399-.96a1.33 1.33 0 0 1 .964-.397c.373 0 .7.134.964.397s.398.589.398.96-.135.698-.398.96a1.33 1.33 0 0 1-.964.397zm1.24.749v8.092h-2.487v-8.092h2.487zm9.107 7.017c-.514.429-1.035.743-1.575.935s-1.144.288-1.819.288c-.617 0-1.195-.109-1.735-.32s-1.015-.506-1.407-.89a4.3 4.3 0 0 1-.938-1.338c-.231-.512-.347-1.063-.347-1.645s.109-1.133.328-1.645a4.29 4.29 0 0 1 .893-1.338c.373-.378.829-.672 1.343-.89a4.23 4.23 0 0 1 1.665-.32c.592 0 1.138.109 1.645.339a3.99 3.99 0 0 1 1.298.922 4.22 4.22 0 0 1 .855 1.402 4.96 4.96 0 0 1 .309 1.767v.615H78.33a2.11 2.11 0 0 0 .771.922c.353.237.758.359 1.228.359.341 0 .649-.051.925-.16a2.05 2.05 0 0 0 .707-.448l1.645 1.453v-.013.006zm-3.625-5.141c-.411 0-.765.109-1.06.339-.296.224-.508.538-.63.948h3.393c-.135-.384-.347-.698-.649-.935a1.68 1.68 0 0 0-1.048-.352h-.006zm7.918-5.032v11.242h-2.487V17.069l2.487-.531v-.006zm7.616 11.242v-.595a3.99 3.99 0 0 1-1.028.519c-.366.122-.752.186-1.15.186-.572 0-1.112-.109-1.62-.32a4.01 4.01 0 0 1-1.317-.89 4.27 4.27 0 0 1-.88-1.325c-.212-.499-.321-1.044-.321-1.626a4.02 4.02 0 0 1 .328-1.626c.225-.506.521-.948.893-1.312s.829-.666 1.343-.877a4.31 4.31 0 0 1 1.652-.32c.379 0 .745.045 1.093.134a4.11 4.11 0 0 1 .983.397v-3.041l2.487-.531v11.242h-2.455l-.006-.013zm-3.888-4.053c0 .583.206 1.069.623 1.466a2.12 2.12 0 0 0 1.51.589c.347 0 .662-.051.951-.16s.54-.269.771-.48v-2.83c-.218-.199-.469-.346-.771-.461s-.617-.166-.951-.166a2.14 2.14 0 0 0-1.523.589c-.411.391-.617.877-.617 1.466l.006-.013zm19.228-1.299a5.34 5.34 0 0 1-.443 2.164 5.48 5.48 0 0 1-1.215 1.761c-.514.5-1.118.883-1.831 1.172a5.92 5.92 0 0 1-2.256.429 5.92 5.92 0 0 1-2.256-.429 5.76 5.76 0 0 1-1.832-1.172c-.514-.499-.919-1.076-1.214-1.761a5.36 5.36 0 0 1-.443-2.164c0-.762.148-1.485.443-2.164a5.46 5.46 0 0 1 1.214-1.761 5.59 5.59 0 0 1 1.832-1.172 5.92 5.92 0 0 1 2.256-.429 5.92 5.92 0 0 1 2.256.429c.707.288 1.317.679 1.831 1.172a5.57 5.57 0 0 1 1.215 1.761 5.36 5.36 0 0 1 .443 2.164zm-2.712 0c0-.435-.077-.851-.225-1.229s-.366-.711-.636-.986a2.9 2.9 0 0 0-.958-.647 2.97 2.97 0 0 0-1.195-.237 2.97 2.97 0 0 0-1.195.237c-.367.16-.688.378-.958.647a2.9 2.9 0 0 0-.636.986 3.27 3.27 0 0 0-.225 1.229c0 .435.077.852.225 1.229a2.93 2.93 0 0 0 .636.986 2.9 2.9 0 0 0 .958.647 2.97 2.97 0 0 0 1.195.237 2.97 2.97 0 0 0 1.195-.237c.367-.16.688-.378.958-.647a2.9 2.9 0 0 0 .636-.986 3.25 3.25 0 0 0 .225-1.229zM112.25 31V19.687h2.455v.595a3.98 3.98 0 0 1 1.028-.519c.367-.122.752-.186 1.151-.186a4.17 4.17 0 0 1 1.619.32 3.93 3.93 0 0 1 1.318.89 4.32 4.32 0 0 1 .88 1.319c.212.499.322 1.044.322 1.626s-.11 1.127-.328 1.626a4.22 4.22 0 0 1-.893 1.312 4.21 4.21 0 0 1-1.344.877 4.31 4.31 0 0 1-1.651.32 4.36 4.36 0 0 1-1.093-.134 4.1 4.1 0 0 1-.983-.397v3.656h-2.487l.006.006zm4.203-9.315c-.347 0-.662.051-.957.16a2.32 2.32 0 0 0-.772.48v2.83a2.37 2.37 0 0 0 .772.461c.302.115.617.166.957.166.604 0 1.106-.198 1.523-.589a1.91 1.91 0 0 0 .617-1.46c0-.583-.205-1.069-.623-1.466s-.919-.589-1.51-.589l-.007.006zm5.238 5.186l1.182-1.671c.515.307.977.531 1.395.666s.836.205 1.247.205.733-.058.977-.173c.238-.115.36-.275.36-.467 0-.154-.071-.282-.2-.378s-.347-.166-.629-.205l-1.614-.243c-.803-.122-1.407-.39-1.838-.8s-.649-.954-.649-1.613c0-.813.315-1.46.939-1.927s1.478-.704 2.557-.704a6.23 6.23 0 0 1 1.761.256c.592.173 1.138.41 1.633.73l-1.183 1.588c-.437-.256-.861-.435-1.259-.557-.399-.115-.804-.173-1.196-.173-.321 0-.572.051-.771.16s-.289.25-.289.423a.46.46 0 0 0 .218.39c.142.096.386.166.739.224l1.614.243c.803.109 1.413.378 1.85.788s.65.935.65 1.569a2.18 2.18 0 0 1-.277 1.082c-.186.339-.437.627-.758.871a3.81 3.81 0 0 1-1.163.576c-.45.134-.939.205-1.459.205a8.12 8.12 0 0 1-2.14-.269c-.656-.179-1.228-.435-1.697-.788v-.006zm11.806.902V17.069h8.535v2.279h-5.894v2.004h3.927v2.202h-3.927v4.219h-2.641zm16.073-1.069c-.514.429-1.034.743-1.574.935s-1.144.288-1.819.288a4.72 4.72 0 0 1-1.735-.32c-.54-.211-1.016-.506-1.408-.89-.392-.378-.707-.826-.938-1.338s-.347-1.063-.347-1.645.109-1.133.328-1.645.52-.96.893-1.338.829-.672 1.343-.89 1.074-.32 1.665-.32a3.93 3.93 0 0 1 1.645.339c.508.23.932.531 1.298.922.36.384.649.858.855 1.402a4.95 4.95 0 0 1 .309 1.767v.615h-5.791a2.11 2.11 0 0 0 .771.922c.354.237.759.359 1.228.359.34 0 .649-.051.925-.16a2.06 2.06 0 0 0 .707-.448l1.645 1.453v-.013.006zm-3.624-5.141c-.412 0-.765.109-1.061.339-.295.224-.507.538-.63.948h3.394c-.135-.384-.347-.698-.649-.935a1.68 1.68 0 0 0-1.048-.352h-.006zm7.924-5.032v11.242h-2.487V17.069l2.487-.531v-.006zm4.139 0v11.242h-2.488V17.069l2.488-.531v-.006zm1.292 7.209c0-.583.115-1.133.347-1.645s.539-.96.938-1.338a4.21 4.21 0 0 1 1.401-.89 4.69 4.69 0 0 1 1.729-.326c.617 0 1.189.109 1.729.326a4.41 4.41 0 0 1 1.394.89c.392.371.707.826.938 1.338s.348 1.063.348 1.645-.116 1.133-.348 1.645-.539.96-.938 1.338c-.392.378-.861.672-1.394.89s-1.112.32-1.729.32-1.189-.109-1.729-.32c-.533-.211-1.003-.506-1.401-.89a4.3 4.3 0 0 1-.938-1.338c-.232-.512-.347-1.063-.347-1.645zm4.408 2.049c.553 0 1.016-.198 1.408-.595.379-.397.578-.884.578-1.453s-.193-1.069-.578-1.466a1.89 1.89 0 0 0-1.408-.595c-.552 0-1.022.198-1.407.595s-.579.89-.579 1.466.193 1.056.579 1.453c.379.397.855.595 1.407.595zm9.499 1.984h-2.397l-2.211-8.092h2.346l1.195 4.757 1.459-4.757h2.057l1.459 4.77 1.182-4.77h2.32l-2.23 8.092h-2.378l-1.407-4.68-1.395 4.68zm7.796-.902l1.182-1.671c.514.307.977.531 1.395.666a4.05 4.05 0 0 0 1.247.205c.412 0 .732-.058.976-.173.238-.115.36-.275.36-.467 0-.154-.07-.282-.199-.378s-.347-.166-.63-.205l-1.613-.243c-.803-.122-1.407-.39-1.838-.8s-.649-.954-.649-1.613c0-.813.315-1.46.938-1.927s1.478-.704 2.558-.704a6.23 6.23 0 0 1 1.761.256c.591.166 1.138.41 1.633.73l-1.183 1.588a5.91 5.91 0 0 0-1.26-.557c-.398-.115-.803-.173-1.195-.173-.321 0-.572.051-.771.16s-.289.25-.289.423a.46.46 0 0 0 .218.39c.141.096.386.166.739.224l1.613.243c.804.109 1.414.378 1.851.788s.649.935.649 1.569a2.19 2.19 0 0 1-.276 1.082c-.186.339-.437.627-.758.871s-.714.435-1.164.576a5.08 5.08 0 0 1-1.459.205c-.771 0-1.478-.09-2.14-.269-.655-.179-1.227-.435-1.696-.788v-.006zm8.573.902V17.069l2.487-.531v3.701a3.35 3.35 0 0 1 1.009-.519 3.79 3.79 0 0 1 1.17-.186c.951 0 1.729.307 2.333.922s.906 1.389.906 2.337v4.987h-2.487v-4.648c0-.435-.135-.794-.412-1.063-.269-.269-.623-.41-1.066-.41a2.03 2.03 0 0 0-.842.167c-.244.109-.45.269-.617.474v5.48h-2.487v-.013l.006.006zm10.745-8.835c-.379 0-.7-.134-.964-.397a1.32 1.32 0 0 1-.398-.96 1.32 1.32 0 0 1 .398-.96 1.33 1.33 0 0 1 .964-.397c.373 0 .701.134.964.397a1.32 1.32 0 0 1 .399.96c0 .371-.135.698-.399.96a1.33 1.33 0 0 1-.964.397zm1.241.749v8.092h-2.487v-8.092h2.487zM203.221 31V19.687h2.455v.595a3.98 3.98 0 0 1 1.028-.519c.367-.122.752-.186 1.151-.186a4.17 4.17 0 0 1 1.619.32 3.93 3.93 0 0 1 1.318.89 4.32 4.32 0 0 1 .88 1.319c.212.499.322 1.044.322 1.626s-.11 1.127-.328 1.626c-.225.506-.521.947-.894 1.312a4.2 4.2 0 0 1-1.343.877c-.514.211-1.067.32-1.651.32a4.36 4.36 0 0 1-1.093-.134 4.1 4.1 0 0 1-.983-.397v3.656h-2.487l.006.006zm4.203-9.315c-.347 0-.662.051-.957.16a2.32 2.32 0 0 0-.772.48v2.83a2.36 2.36 0 0 0 .772.461 2.65 2.65 0 0 0 .957.166c.604 0 1.106-.198 1.523-.589a1.91 1.91 0 0 0 .617-1.46c0-.583-.205-1.069-.623-1.466s-.919-.589-1.51-.589l-.007.006z"/></g></g><defs><clipPath id="A"><path fill="#fff" d="M0 0h212v31H0z"/></clipPath></defs></svg>