<?xml version="1.0" encoding="UTF-8"?><svg id="a" xmlns="http://www.w3.org/2000/svg" viewBox="0 0 405.83 88.09"><path d="m141.02,28.79c0,1.52-.26,2.93-.78,4.23-.52,1.29-1.24,2.41-2.14,3.34s-1.99,1.67-3.26,2.2c-1.26.53-2.63.8-4.1.8s-2.95-.27-4.27-.81c-1.32-.54-2.47-1.28-3.45-2.22-.97-.94-1.74-2.04-2.3-3.31-.56-1.27-.84-2.64-.84-4.11s.28-2.84.84-4.11c.56-1.27,1.32-2.38,2.29-3.31s2.1-1.67,3.42-2.22c1.31-.54,2.72-.81,4.23-.81,1.72,0,3.34.36,4.86,1.07,1.52.71,2.77,1.68,3.73,2.9l-3.5,3.16c-.66-.83-1.42-1.46-2.29-1.9s-1.8-.65-2.81-.65c-.81,0-1.56.15-2.26.45-.69.3-1.29.71-1.78,1.23-.49.52-.88,1.14-1.17,1.87s-.43,1.5-.43,2.33.15,1.64.45,2.36c.3.72.7,1.35,1.22,1.88.51.53,1.12.95,1.84,1.25.71.3,1.49.45,2.32.45,1.16,0,2.18-.29,3.05-.88.88-.59,1.46-1.36,1.75-2.3h-5.47v-4.31h10.86v1.45Z" stroke-width="0"/><path d="m143.89,39.04v-20.27h8.22c1.49,0,2.89.27,4.2.8,1.31.53,2.45,1.25,3.4,2.16.96.91,1.71,1.98,2.27,3.23.56,1.24.84,2.58.84,4.01s-.28,2.7-.84,3.94c-.56,1.23-1.32,2.31-2.27,3.21-.96.91-2.09,1.62-3.4,2.14s-2.71.78-4.2.78h-8.22Zm8.11-15.87h-3.13v11.47h3.13c.79,0,1.53-.14,2.23-.43s1.3-.69,1.81-1.2c.51-.51.91-1.11,1.2-1.81.29-.69.43-1.44.43-2.23s-.14-1.57-.43-2.27-.69-1.32-1.2-1.84c-.51-.52-1.11-.93-1.81-1.23-.69-.3-1.44-.45-2.23-.45Z" stroke-width="0"/><path d="m176.02,34.72c.98,0,1.9-.21,2.74-.64.84-.42,1.6-1.05,2.27-1.88l3.27,3.21c-.95,1.18-2.19,2.12-3.72,2.84s-3.11,1.07-4.73,1.07c-1.53,0-2.96-.27-4.3-.81-1.34-.54-2.49-1.27-3.46-2.2-.97-.93-1.73-2.03-2.29-3.3-.56-1.27-.84-2.64-.84-4.11s.28-2.84.84-4.13,1.33-2.39,2.3-3.31c.97-.93,2.13-1.66,3.46-2.2,1.33-.54,2.76-.81,4.29-.81.83,0,1.66.1,2.49.29.83.19,1.62.46,2.37.8.75.34,1.45.75,2.08,1.25.64.49,1.19,1.04,1.65,1.64l-3.36,3.3c-.71-.89-1.51-1.56-2.39-2.01-.88-.45-1.83-.68-2.85-.68-.81,0-1.57.15-2.27.45-.71.3-1.31.71-1.82,1.23-.51.52-.92,1.14-1.22,1.87-.3.72-.45,1.5-.45,2.33s.15,1.6.45,2.3c.3.7.71,1.32,1.24,1.84s1.16.93,1.88,1.23,1.51.45,2.36.45Z" stroke-width="0"/><path d="m120.61,66.83v-20.27h16.1v4.31h-11.12v3.79h7.41v4.17h-7.41v7.99h-4.98Z" stroke-width="0"/><path d="m141.25,50.1c-.71,0-1.32-.25-1.82-.75-.5-.5-.75-1.11-.75-1.82s.25-1.32.75-1.82c.5-.5,1.11-.75,1.82-.75s1.32.25,1.82.75c.5.5.75,1.11.75,1.82s-.25,1.32-.75,1.82c-.5.5-1.11.75-1.82.75Zm2.34,1.42v15.32h-4.69v-15.32h4.69Z" stroke-width="0"/><path d="m160.77,64.8c-.97.81-1.95,1.4-2.97,1.77s-2.16.55-3.43.55c-1.16,0-2.25-.2-3.27-.61-1.02-.4-1.91-.96-2.65-1.68-.74-.71-1.33-1.56-1.77-2.53s-.65-2.01-.65-3.11.21-2.14.62-3.11.98-1.82,1.69-2.53c.71-.71,1.56-1.27,2.53-1.68.97-.41,2.02-.61,3.14-.61s2.15.21,3.1.64c.95.43,1.76,1,2.45,1.74.68.73,1.22,1.62,1.61,2.65.39,1.03.58,2.15.58,3.34v1.16h-10.92c.31.71.79,1.3,1.45,1.75.66.45,1.43.68,2.32.68.64,0,1.22-.1,1.74-.3.52-.2.97-.49,1.33-.85l3.1,2.75Zm-6.83-9.73c-.77,0-1.44.21-2,.64-.56.42-.96,1.02-1.19,1.79h6.4c-.25-.73-.66-1.32-1.23-1.77-.57-.44-1.23-.67-1.98-.67Z" stroke-width="0"/><path d="m168.87,45.55v21.28h-4.69v-20.27l4.69-1.01Z" stroke-width="0"/><path d="m183.23,66.83v-1.13c-.6.42-1.25.75-1.94.98s-1.42.35-2.17.35c-1.08,0-2.1-.2-3.05-.61-.96-.41-1.79-.97-2.49-1.68s-1.26-1.55-1.66-2.51c-.4-.95-.61-1.98-.61-3.08s.21-2.13.62-3.08c.42-.96.98-1.79,1.69-2.49s1.56-1.26,2.53-1.66c.97-.4,2.01-.61,3.11-.61.71,0,1.4.09,2.06.26.66.17,1.27.42,1.85.75v-5.76l4.69-1.01v21.28h-4.63Zm-7.33-7.67c0,1.1.39,2.02,1.17,2.77.78.74,1.73,1.11,2.85,1.11.66,0,1.25-.1,1.79-.3.54-.2,1.02-.51,1.45-.91v-5.36c-.41-.37-.89-.66-1.45-.87-.56-.21-1.16-.32-1.79-.32-1.14,0-2.09.37-2.87,1.11-.77.74-1.16,1.66-1.16,2.77Z" stroke-width="0"/><path d="m212.16,56.7c0,1.45-.28,2.81-.84,4.1-.56,1.28-1.32,2.39-2.29,3.33-.97.94-2.11,1.67-3.45,2.22-1.33.54-2.75.81-4.26.81s-2.92-.27-4.26-.81c-1.33-.54-2.48-1.28-3.45-2.22-.97-.94-1.73-2.04-2.29-3.33-.56-1.28-.84-2.65-.84-4.1s.28-2.81.84-4.1,1.32-2.39,2.29-3.33,2.11-1.67,3.45-2.22c1.33-.54,2.75-.81,4.26-.81s2.92.27,4.26.81c1.33.54,2.48,1.28,3.45,2.22.96.94,1.73,2.05,2.29,3.33s.84,2.65.84,4.1Zm-5.12,0c0-.83-.14-1.61-.43-2.33s-.69-1.35-1.2-1.87c-.51-.52-1.11-.93-1.81-1.23-.69-.3-1.45-.45-2.26-.45s-1.56.15-2.26.45c-.69.3-1.3.71-1.81,1.23-.51.52-.91,1.14-1.2,1.87s-.43,1.5-.43,2.33.14,1.61.43,2.33.69,1.35,1.2,1.87c.51.52,1.11.93,1.81,1.23.69.3,1.45.45,2.26.45s1.56-.15,2.26-.45c.69-.3,1.3-.71,1.81-1.23.51-.52.91-1.14,1.2-1.87s.43-1.5.43-2.33Z" stroke-width="0"/><path d="m214.79,72.94v-21.42h4.63v1.13c.6-.42,1.25-.75,1.94-.98.69-.23,1.42-.35,2.17-.35,1.08,0,2.1.2,3.05.61s1.79.97,2.49,1.68,1.26,1.55,1.66,2.5.61,1.98.61,3.08-.21,2.13-.62,3.08c-.42.96-.98,1.79-1.69,2.49s-1.56,1.26-2.53,1.66c-.97.4-2.01.61-3.11.61-.71,0-1.4-.09-2.06-.26-.66-.17-1.27-.42-1.85-.75v6.92h-4.69Zm7.93-17.63c-.66,0-1.25.1-1.8.3s-1.02.51-1.45.91v5.36c.41.37.89.66,1.45.87.56.21,1.16.32,1.8.32,1.14,0,2.09-.37,2.87-1.12.77-.74,1.16-1.66,1.16-2.76s-.39-2.02-1.17-2.77-1.73-1.12-2.85-1.12Z" stroke-width="0"/><path d="m232.6,65.12l2.23-3.16c.97.58,1.84,1,2.63,1.26.79.26,1.57.39,2.35.39s1.38-.11,1.84-.33c.45-.22.68-.52.68-.88,0-.29-.13-.53-.38-.71s-.65-.31-1.19-.39l-3.04-.46c-1.51-.23-2.66-.74-3.47-1.52-.81-.78-1.22-1.8-1.22-3.05,0-1.54.59-2.76,1.77-3.65,1.18-.89,2.79-1.33,4.83-1.33,1.1,0,2.21.16,3.32.48,1.11.32,2.14.78,3.08,1.38l-2.23,3.01c-.83-.48-1.62-.83-2.37-1.06-.75-.22-1.51-.33-2.26-.33-.6,0-1.08.1-1.45.3-.37.2-.55.47-.55.8,0,.31.14.55.41.74.27.18.73.32,1.39.42l3.04.46c1.51.21,2.67.71,3.49,1.49.82.78,1.23,1.77,1.23,2.97,0,.73-.17,1.42-.52,2.05-.35.64-.83,1.19-1.43,1.65-.61.46-1.34.83-2.19,1.09-.85.26-1.77.39-2.75.39-1.45,0-2.79-.17-4.04-.51-1.24-.34-2.31-.83-3.2-1.49Z" stroke-width="0"/><path d="m254.86,66.83v-20.27h16.1v4.31h-11.12v3.79h7.41v4.17h-7.41v7.99h-4.98Z" stroke-width="0"/><path d="m285.17,64.8c-.97.81-1.95,1.4-2.97,1.77s-2.16.55-3.43.55c-1.16,0-2.25-.2-3.27-.61-1.02-.4-1.91-.96-2.65-1.68-.74-.71-1.33-1.56-1.77-2.53s-.65-2.01-.65-3.11.21-2.14.62-3.11.98-1.82,1.69-2.53c.71-.71,1.56-1.27,2.53-1.68.97-.41,2.02-.61,3.14-.61s2.15.21,3.1.64c.95.43,1.76,1,2.45,1.74.68.73,1.22,1.62,1.61,2.65.39,1.03.58,2.15.58,3.34v1.16h-10.92c.31.71.79,1.3,1.45,1.75.66.45,1.43.68,2.32.68.64,0,1.22-.1,1.74-.3.52-.2.97-.49,1.33-.85l3.1,2.75Zm-6.83-9.73c-.77,0-1.44.21-2,.64-.56.42-.96,1.02-1.19,1.79h6.4c-.25-.73-.66-1.32-1.23-1.77-.57-.44-1.23-.67-1.98-.67Z" stroke-width="0"/><path d="m293.28,45.55v21.28h-4.69v-20.27l4.69-1.01Z" stroke-width="0"/><path d="m301.09,45.55v21.28h-4.69v-20.27l4.69-1.01Z" stroke-width="0"/><path d="m303.53,59.19c0-1.1.22-2.14.65-3.11s1.02-1.82,1.77-2.53c.74-.71,1.62-1.28,2.64-1.69s2.1-.62,3.26-.62,2.24.21,3.26.62,1.89.98,2.63,1.69c.74.71,1.33,1.56,1.77,2.53s.65,2.01.65,3.11-.22,2.14-.65,3.11-1.02,1.82-1.77,2.53c-.74.71-1.62,1.27-2.63,1.68-1.01.41-2.1.61-3.26.61s-2.24-.2-3.26-.61c-1.01-.4-1.89-.96-2.64-1.68-.74-.71-1.33-1.56-1.77-2.53s-.65-2.01-.65-3.11Zm8.31,3.88c1.04,0,1.92-.38,2.65-1.13.72-.75,1.09-1.67,1.09-2.75s-.36-2.03-1.09-2.78-1.61-1.13-2.65-1.13-1.93.38-2.65,1.13-1.09,1.68-1.09,2.78.36,2,1.09,2.75c.72.75,1.61,1.13,2.65,1.13Z" stroke-width="0"/><path d="m329.76,66.83h-4.52l-4.17-15.32h4.43l2.26,9,2.75-9h3.88l2.75,9.03,2.23-9.03h4.37l-4.2,15.32h-4.49l-2.66-8.86-2.63,8.86Z" stroke-width="0"/><path d="m344.46,65.12l2.23-3.16c.97.58,1.84,1,2.63,1.26.79.26,1.57.39,2.35.39s1.38-.11,1.84-.33c.45-.22.68-.52.68-.88,0-.29-.13-.53-.38-.71s-.65-.31-1.19-.39l-3.04-.46c-1.51-.23-2.66-.74-3.47-1.52-.81-.78-1.22-1.8-1.22-3.05,0-1.54.59-2.76,1.77-3.65,1.18-.89,2.79-1.33,4.83-1.33,1.1,0,2.21.16,3.32.48,1.11.32,2.14.78,3.08,1.38l-2.23,3.01c-.83-.48-1.62-.83-2.37-1.06-.75-.22-1.51-.33-2.26-.33-.6,0-1.08.1-1.45.3-.37.2-.55.47-.55.8,0,.31.14.55.41.74.27.18.73.32,1.39.42l3.04.46c1.51.21,2.67.71,3.49,1.49.82.78,1.23,1.77,1.23,2.97,0,.73-.17,1.42-.52,2.05-.35.64-.83,1.19-1.43,1.65-.61.46-1.34.83-2.19,1.09-.85.26-1.77.39-2.75.39-1.45,0-2.79-.17-4.04-.51-1.24-.34-2.31-.83-3.2-1.49Z" stroke-width="0"/><path d="m360.62,66.83v-20.27l4.69-1.01v7.01c.56-.42,1.19-.75,1.9-.98s1.44-.35,2.21-.35c1.79,0,3.26.58,4.4,1.74s1.71,2.63,1.71,4.43v9.44h-4.69v-8.8c0-.83-.26-1.5-.77-2.01-.51-.51-1.18-.77-2.01-.77-.6,0-1.13.11-1.59.32-.46.21-.85.51-1.16.9v10.37h-4.69Z" stroke-width="0"/><path d="m380.89,50.1c-.71,0-1.32-.25-1.82-.75-.5-.5-.75-1.11-.75-1.82s.25-1.32.75-1.82c.5-.5,1.11-.75,1.82-.75s1.32.25,1.82.75c.5.5.75,1.11.75,1.82s-.25,1.32-.75,1.82c-.5.5-1.11.75-1.82.75Zm2.34,1.42v15.32h-4.69v-15.32h4.69Z" stroke-width="0"/><path d="m386.36,72.94v-21.42h4.63v1.13c.6-.42,1.25-.75,1.94-.98.69-.23,1.42-.35,2.17-.35,1.08,0,2.1.2,3.05.61s1.79.97,2.49,1.68,1.26,1.55,1.66,2.5.61,1.98.61,3.08-.21,2.13-.62,3.08c-.42.96-.98,1.79-1.69,2.49s-1.56,1.26-2.53,1.66c-.97.4-2.01.61-3.11.61-.71,0-1.4-.09-2.06-.26-.66-.17-1.27-.42-1.85-.75v6.92h-4.69Zm7.93-17.63c-.66,0-1.25.1-1.8.3s-1.02.51-1.45.91v5.36c.41.37.89.66,1.45.87.56.21,1.16.32,1.8.32,1.14,0,2.09-.37,2.87-1.12.77-.74,1.16-1.66,1.16-2.76s-.39-2.02-1.17-2.77-1.73-1.12-2.85-1.12Z" stroke-width="0"/><rect x="2.92" y="15.15" width="102.56" height="54.29" rx="27.15" ry="27.15" stroke-width="0"/><path d="m97.9,35.85c.62,2.03.96,4.19.96,6.42,0,12.18-9.87,22.05-22.05,22.05s-22.05-9.87-22.05-22.05,9.76-21.93,21.84-22.04c-.07,0-.14-.01-.21-.01-12.51,0-22.64,10.14-22.64,22.64s10.14,22.64,22.64,22.64,22.64-10.14,22.64-22.64c0-2.45-.4-4.8-1.12-7.01Z" opacity=".2" stroke-width="0"/><circle cx="76.9" cy="42.2" r="22.28" fill="#fff" stroke-width="0"/><path d="m97.41,32.65c-.61-1.32-1.36-2.59-2.22-3.77-.23-.31-.44-.59-.64-.83-.16-.2-.3-.37-.44-.53-.39-.46-.8-.9-1.21-1.31-4.27-4.28-9.95-6.63-16-6.63-7.22,0-14.07,3.49-18.32,9.34-.39.54-.76,1.1-1.11,1.68-.14.23-.27.47-.42.73-.65,1.18-1.2,2.43-1.63,3.72l-.03.08h0s-.03.09-.04.13v.04c-.07.19-.13.37-.19.56v.04c-.6,2.04-.9,4.15-.9,6.3,0,12.48,10.15,22.62,22.62,22.62,8.19,0,15.76-4.44,19.76-11.6l.07-.12h0c.5-.92.94-1.86,1.3-2.81.17-.44.33-.89.46-1.33,0-.02.01-.05.02-.07v-.04c.06-.15.1-.31.14-.45.05-.16.08-.29.11-.41.02-.06.03-.12.05-.18,0-.03.02-.06.02-.09.11-.45.22-.91.31-1.43.08-.42.14-.86.2-1.29.05-.39.09-.8.12-1.22.04-.53.06-1.07.06-1.61,0-3.34-.71-6.56-2.11-9.55Zm.18,13.46s-.03-.07-.05-.11c-.03-.08-.02-.2,0-.28.01-.05.02-.1.03-.16.09-.01.23.09.32.14.06.03.13.05.16.11.05.07.05.17.07.26,0,.01,0,.03,0,.04-.04.22-.09.44-.13.65-.12-.13-.24-.24-.34-.39-.01-.03-.03-.05-.04-.07,0-.03,0-.06,0-.09,0-.04,0-.08-.02-.12Zm-4.13-17.74c.06.07.12.14.18.22-.06.01-.11.01-.16-.02-.06-.04-.05-.12-.03-.21Zm4.86,16.11c-.14-.18-.05-.48.1-.63-.02.23-.04.45-.06.67-.01-.01-.03-.03-.04-.04Zm-.81,4.14v.04c-.14.42-.29.85-.46,1.27-.36.95-.8,1.89-1.31,2.8l-.05.09c-3.83,6.77-11.03,10.97-18.8,10.97-11.9,0-21.58-9.68-21.58-21.58,0-2.06.29-4.09.86-6.05l.02-.07h0c.03-.11.07-.22.1-.33l.05-.15c.02-.07.05-.15.07-.22l.02-.07s0-.03.01-.04c.07.05.15.08.22.11.1.04.22.03.3.11.03.03.05.08.08.12.05.08.1.16.14.25.03.07.04.15.06.23.03.13.08.25.08.39,0,.08,0,.27-.11.29-.11.02-.14-.18-.16-.25-.03-.1-.06-.17-.13-.25-.1-.12-.21-.2-.36-.26-.11-.04-.21-.12-.33-.09,0,.09.1.22.13.31.06.18.07.38.14.55.06.16.1.26.08.44-.02.2-.03.38-.1.57-.06.19-.07.38-.13.57-.07.2-.17.44-.19.65-.02.16,0,.32.03.48.01.08.02.18.06.25.09.18.28.32.4.49.11.16.14.31.19.5.02.08.05.19.11.26.04.05.1.07.15.11.06.05.08.12.12.19.06.1.12.05.19.28.03.35.19.67.27,1.01.06.24.16.37.34.54.13.13.33.4.53.43-.06-.16-.26-.25-.34-.41-.03-.07-.05-.13-.09-.19-.05-.08-.12-.13-.18-.2-.14-.15-.12-.38-.16-.58-.04-.21-.04-.42-.01-.63.07.09.13.25.19.34.22.17.4.49.6.68.09.25.24.4.41.56.12.11.03.27.02.41,0,.11,0,.23,0,.34,0,.15.07.19.19.26.14.09.26.2.42.27.13.18.24.21.38.28.17.09.24.35.43.2.1-.08.26-.34.41-.27.13.06.12.26.28.32.17.07.37.05.55.07.23.03.26.2.36.43.13-.02.19.02.28.02.12,0,.27-.03.36.08.12.13.07.36.1.52.01.07.07.16.11.21.06.07.13.05.23.05.15,0,.29.05.44,0,.11-.03.2-.07.31-.08.1,0,.13.02.21.07.01,0,.03.01.04.02h0s-.07.02-.07.02c.04.01.07.03.1.06-.01.01,0,.05,0,.06,0,.02.02.03.02.06,0,.06,0,.12.02.18,0,.02,0,.03.03.05.02.02.06.05.07.08.02.06-.03.13-.08.14-.04.01-.07.01-.11.04-.03.02-.07.04-.1.07-.01.02-.03.04-.04.05-.01.02,0,.04-.02.06,0,.02-.03.03-.04.04-.05.06-.11.12-.12.2,0,.06,0,.13-.04.18,0,.01-.03.02-.04.03-.02.02-.02.04-.04.06-.03.04-.07.07-.09.11,0,.02-.01.05-.01.07,0,.04.01.05-.02.08-.04.04-.06.09-.09.14-.01.03-.02.06,0,.09.01.04,0,.07-.01.11-.03.06-.07.13-.06.2,0,.03.03.05.05.07.04.03.08.06.09.11,0,.02,0,.05,0,.08h0s0,.07,0,.08c0,.03-.02.05-.03.07-.02.04-.03.08-.04.12-.01.05-.02.11,0,.16,0,.02.02.03.03.05.03.21.12.46.23.64.06.09.14.17.2.27.06.1.12.2.18.3.06.09.14.22.23.28.08.05.19.09.28.12.09.03.2.06.27.13.1.1.08.27.19.36.11.09.24.17.34.27.1.52.08,1.05.26,1.55.07.18.1.37.12.57-.03.18-.03.34,0,.5-.01.26-.06.52-.11.76-.05.21-.06.43-.08.64-.01.11,0,.22-.02.33-.04.05-.08.09-.1.14-.04.08,0,.16.02.25.02.15.04.3.06.45.04.31.12.63.13.94,0,.3-.03.61-.02.92.07.24.22.44.36.65.21.32.46.43.82.64.09-.01.27.12.44.14.18.1.39.18.6.15.02-.14-.12-.2-.22-.27-.13-.09-.27-.12-.33-.28-.04-.11-.13-.21-.23-.28-.07-.05-.15-.06-.22-.1-.04-.02-.07-.05-.1-.07l-.09-.04c0-.09,0-.18,0-.27.01-.1.03-.24.07-.34.03-.07.08-.11.11-.17.04-.09.02-.2.02-.29,0-.15.04-.29.04-.44,0-.23-.02-.44.07-.66.13-.31.35-.62.59-.85.06-.06.12-.14.19-.2.08-.06.19-.06.26-.15.05-.07.08-.18.1-.26.03-.11.08-.21.09-.32.01-.18-.08-.33-.16-.48.05.02.1.03.15.04.1.01.18.05.28.07.11.01.26-.03.35-.08.08-.05.09-.14.15-.21.04-.04.09-.08.13-.13.06-.07.11-.14.18-.2.03-.02.07-.04.09-.06.16-.17.21-.48.29-.7.08-.24.21-.49.34-.69.08-.13.24-.26.38-.31.15-.06.34-.16.47-.27.15-.12.17-.29.28-.44.07-.09.14-.17.16-.29.03-.16,0-.34,0-.5,0-.12-.03-.21-.07-.33-.03-.12-.02-.23-.02-.35,0-.15.07-.23.2-.31.12-.07.21-.15.31-.26.15-.16.41-.47.32-.72-.04-.11-.12-.13-.21-.16-.05-.02-.1-.06-.15-.08-.06-.02-.12-.02-.19-.02h-.1s0-.03,0-.04c0-.17-.15-.19-.29-.21-.1-.02-.2-.02-.29-.05-.08-.03-.16-.07-.25-.09-.09-.02-.17-.08-.26-.11-.08-.03-.2-.06-.26-.13-.1-.12-.06-.28-.2-.36-.15-.08-.35-.09-.5-.17,0-.05,0-.1-.02-.15-.04-.07-.13-.12-.22-.15-.05-.11-.08-.22-.12-.31-.1-.24-.4-.32-.72-.33-.15-.14-.32-.26-.5-.38h-.48c-.11,0-.3,0-.39-.07-.05-.04-.07-.11-.13-.15-.09-.05-.18-.08-.27-.15-.12-.1-.2-.23-.29-.36-.05-.07-.07-.09-.16-.09-.12,0-.18.09-.26.18-.05.06-.13.19-.19.09-.06-.11.06-.31-.12-.33-.12-.01-.23,0-.35-.03-.08-.02-.17-.02-.26.02-.21.1-.38.33-.52.51-.06.08-.22.32-.34.25-.05-.03-.07-.09-.13-.12-.04-.02-.09-.06-.13-.07-.12-.01-.25.11-.37.12-.11.01-.24,0-.34-.06-.05-.03-.1-.05-.12-.1-.02-.06.05-.22.07-.28.07-.24.19-.48.09-.73-.07-.17-.32-.16-.46-.08-.14.09-.27.32-.47.25.01-.15.07-.25-.03-.39-.08-.11-.12-.16-.06-.29.08-.17.21-.3.32-.46.08-.13.01-.17-.11-.23-.11-.06-.22-.14-.35-.09-.13.05-.15.2-.22.29-.08.12-.2.19-.31.28-.13.11-.3.31-.5.26-.13-.03-.26-.22-.33-.32-.07-.1-.15-.12-.13-.25.03-.14.09-.25.09-.39,0-.05,0-.11,0-.16,0-.12-.02-.26-.05-.37-.02-.07-.04-.12-.04-.2.01-.19.18-.72.45-.58.18.09.34.23.55.24.13,0,.29-.01.27-.15-.01-.11-.13-.25-.02-.33.13-.09.34.04.47.05.15,0,.16-.12.28-.16.11-.04.21.03.3.06.2.08.27.19.35.39.06.15.14.28.2.44.05.14.12.18.19.03.08-.18.09-.42.11-.61.02-.23-.02-.45.13-.65.09-.12.22-.24.36-.3.11-.05.24-.06.34-.12.13-.08.21-.27.19-.42-.02-.14-.1-.28-.06-.43.04-.12.21-.18.3-.25.29-.24.57-.49.81-.79.13-.16.25-.3.47-.32.2-.01.36.01.55-.06.1-.04.54-.22.45-.38-.06-.1-.27-.1-.33-.21-.07-.15.14-.29.24-.35.13-.08.2-.13.18-.29-.03-.18-.17-.16-.33-.16-.16,0-.3.07-.45.12-.07.02-.19.08-.26.07.04-.07.13-.13.19-.19.08-.07.16-.16.26-.21.18-.08.4-.12.59-.19.17-.06.34,0,.52,0,.09,0,.18,0,.27,0,.1,0,.2.05.3.06.13.02.39,0,.5-.09.09-.08.03-.21-.01-.31-.05-.12-.13-.2-.17-.32-.07-.18-.16-.28-.27-.43-.1-.13-.2-.25-.29-.39-.07-.12-.06-.18-.02-.31.03-.12.22-.64.04-.67-.07-.01-.12.05-.17.08-.08.06-.17.14-.28.17-.26.07-.48-.2-.57-.4-.08-.17-.05-.35-.1-.53-.05-.17-.17-.33-.34-.4-.1-.04-.29-.06-.37.04-.05.06,0,.11-.01.18-.01.13-.13.22-.21.3-.11.11-.25.26-.28.41-.05.22.09.46.09.69,0,.12,0,.22-.06.33-.08.15-.22.26-.3.41-.06.11-.11.23-.14.35-.06.26-.15.56-.44.66-.1.03-.25.03-.3-.08-.03-.06-.02-.14-.02-.2,0-.2.05-.49-.05-.66-.05-.09-.09-.08-.18-.12-.08-.03-.13-.1-.18-.16-.1-.12-.15-.29-.26-.4-.17-.16-.33-.11-.55-.13-.11-.01-.14-.07-.23-.13-.02,0-.04-.02-.06-.02-.01-.03-.02-.05-.02-.07,0-.06,0-.14,0-.21,0-.1.01-.2.04-.29.02-.07.06-.15.14-.16-.06-.1-.1-.2-.11-.32-.01-.15.02-.24.12-.36.19-.23.55-.18.78-.33.08-.05.15-.11.19-.2.03-.06.05-.11.08-.16.04-.06.09-.12.11-.18.01-.04,0-.06.04-.09.07-.08.17-.08.26-.09.1,0,.29-.05.34-.15.03-.07.02-.15.02-.22,0-.13.03-.19.13-.26.06-.05.22-.11.25-.18.03-.07-.01-.14-.03-.2-.02-.05-.02-.18.02-.22.05-.05.16-.05.22-.02.08.05.14.15.23.2.08.04.11.01.16-.05.09-.1.13-.17.15-.3.01-.07.06-.15.02-.22-.15-.09-.29-.1-.45-.05-.08.03-.17.06-.23.12-.08.08-.14.18-.24.24-.08.06-.16.1-.24.03-.1-.09-.18-.27-.23-.4-.03-.08.01-.18-.02-.26-.05-.09-.18-.06-.26-.04-.06.02-.13.05-.18.09-.05.05-.08.13-.12.19-.06.09-.14.15-.26.16-.12,0-.19-.05-.28-.12-.1-.07-.18-.07-.28,0-.14.08-.29.15-.45.09-.11-.04-.2-.13-.27-.22-.22-.24-.54-.32-.8-.06-.1.1-.13.18-.14.33-.19-.04-.33-.08-.44-.23-.09-.12-.08-.22-.09-.36-.01-.12-.06-.26-.16-.33-.08-.06-.19-.03-.27-.08-.08-.05-.07-.17-.09-.25-.04-.17-.11-.28-.3-.29-.13,0-.25.05-.37.07-.13.03-.2-.03-.26-.14-.05-.09-.08-.19-.14-.27,4.07-5.3,10.43-8.45,17.13-8.45,5.21,0,10.14,1.83,14.05,5.2-.02.02-.03.04-.04.07-.02.09.06.22.11.29.03.04.07.07.09.11.05.08,0,.12-.04.19-.06.09-.05.23.08.25.15.02.21-.07.21-.09.08-.08.15-.17.23-.26.14.13.29.27.43.41-.04.05-.08.1-.1.16-.04.09-.04.19-.1.27-.04.06-.13.12-.19.17-.25.19-.57.3-.85.44-.19.09-.47.18-.51.43-.03.2.04.34.13.51.07.17.04.24-.13.32-.21.09-.33.22-.27.47.04.16.12.29.23.41.08.09.29.26.08.32-.13.03-.35-.01-.46-.06-.12-.05-.19-.16-.28-.25-.08-.07-.18-.12-.25-.19-.27.12-.16.39-.11.62.02.09.03.2.09.29.05.09.15.15.22.21.08.08.16.14.26.19.07.04.16.05.21.1.08.07.06.28.05.39-.01.16-.09.33-.15.47-.06.12-.17.29-.3.35-.09.04-.4.07-.43-.04-.02-.08.1-.13.14-.17.09-.08.18-.19.25-.29.11-.17.2-.41.17-.62-.02-.14-.19-.34-.29-.42-.09-.07-.21-.09-.29-.17-.11-.11-.13-.27-.15-.41-.05-.26-.11-.48-.24-.7-.06-.1-.1-.19-.23-.18-.11.01-.26.09-.31.2-.09.24.06.66.18.87.14.25.32.46.48.7.06.09.26.38.02.4-.16.02-.14-.18-.21-.27-.1-.12-.25-.11-.38-.05-.03.01-.06.03-.09.04-.04-.03-.09-.06-.14-.07-.09-.03-.23-.05-.32,0-.05.02-.09.08-.14.1-.05.01-.09,0-.14.01-.03.01-.05.04-.07.06-.06.05-.11.08-.15.15-.06.09-.06.13-.18.17-.1.03-.21.04-.32.06-.21.04-.45.05-.65.14-.15.06-.23.17-.34.3-.09.11-.14.23-.18.36-.01-.01-.02-.02-.04-.02-.04-.01-.11,0-.15,0-.06,0-.12.03-.17.06-.03.01-.04.03-.06.05-.03.02-.08,0-.11.01-.09.01-.15.08-.18.16-.02.05-.03.09-.05.13-.03.05-.07.09-.1.13-.06.09-.09.2-.13.3-.05.1-.13.14-.21.19-.08.04-.16.04-.25.08-.05.02-.07.06-.09.11-.02.04-.04.08-.05.12-.04,0-.09-.01-.12-.03.15-.17.45-.26.46-.54,0-.21-.17-.33-.3-.47.04,0,.08,0,.11,0,.06,0,.13.02.19.02.14,0,.28-.13.38-.21.03-.03.08-.05.09-.09,0-.03,0-.06,0-.09,0-.07,0-.12-.05-.17-.03-.04-.09-.07-.13-.09-.06-.04-.14-.01-.2-.04-.04-.02-.1-.08-.13-.13-.05-.07-.01-.15-.03-.23-.01-.05-.06-.1-.08-.14-.06-.12-.13-.2-.3-.26-.03-.06-.08-.09-.14-.11-.03-.03-.05-.06-.08-.08-.14-.11-.33-.11-.5-.1-.3.02-.53.15-.78.31-.13.07-.24.14-.38.19-.16.06-.3.12-.45.21-.23.13-.46.25-.66.42-.17.14-.29.32-.42.49-.1.14-.09.2-.1.4-.12.27-.4.34-.59.53-.11.11-.2.25-.25.4-.08.24-.13.5-.17.75-.02.11-.2.4-.03.45.1.03.3,0,.41,0,.09,0,.17-.04.26-.04.08,0,.15.01.22.05.16.07.25.23.33.38.06.12.15.27.3.27.27,0,.6-.12.77-.35.16-.22-.14-.49-.2-.69-.07-.26-.01-.48.04-.73.03-.15.07-.27.15-.4.1-.17.21-.37.36-.51.21-.19.34-.07.43.15.05.12,0,.26-.07.37-.09.14-.24.25-.33.39-.05.09-.11.21-.16.31-.06.15.14.3.27.33.17.04.33-.06.48-.09.13-.03.25-.03.38-.03.11,0,.19.01.28.08.05.04.11.08.07.15-.08.13-.41.07-.55.12-.05.02-.2.08-.23.13-.01.02,0,.08,0,.11,0,.05-.03.11-.04.16-.06.22-.14.33-.31.48-.17.15-.44.29-.66.33-.2.04-.35.06-.53.18-.07.05-.15.1-.23.11-.08.01-.16,0-.23-.02-.17-.03-.39-.08-.56-.02-.18.06-.21.21-.33.34-.19.19-.38.41-.6.57-.16.12-.26.23-.46.27-.16.03-.35.06-.45.19-.08.11-.03.28.06.37.1.11.11.26.11.41,0,.14.02.27-.09.36-.08.06-.2.04-.3.04-.14,0-.36-.03-.49.04-.06.03-.06.07-.05.12h0s-.1-.01-.14,0c-.05.02-.08.05-.09.1-.02.09.05.18.04.27,0,.04-.02.08-.04.11-.03.02-.06.04-.08.06-.14.13-.14.34-.11.52.01.08.04.17.08.24.02.04.06.07.09.11.02.02.01.06.04.08.06.04.31-.03.37-.07.07-.05.12-.14.22-.11.06.02.09.07.14.08.11.02.25-.02.35-.07.11-.06.26-.11.35-.2.1-.11.22-.25.29-.39.08-.15.06-.34.1-.5.05-.17.09-.28.29-.25.1.02.21.12.31.06.14-.08.23-.27.37-.34.11-.06.21.04.31.09.1.06.21.15.25.27.02.06.02.12.06.18.03.06.04.05.09.07.14.06.24.17.37.24.1.05.26.14.29.25.03.1-.29.62-.12.65.05,0,.14-.07.18-.09.07-.06.14-.14.18-.22.06-.13.11-.31.11-.45,0-.13-.04-.17-.16-.23-.14-.07-.25-.17-.38-.25-.09-.06-.15-.09-.19-.2-.06-.17-.04-.27-.29-.45.16-.21.03-.26.13-.28.03,0,.09.03.12.05.14.08.2.23.31.33.09.08.23.1.33.18.09.06.14.13.24.17.1.05.15.09.19.2.08.21.07.44.17.65.06.12.2.5.39.44.17-.06.03-.25.02-.36,0-.16.04-.29.19-.35.15-.06.31,0,.45-.07.13-.08.21-.21.21-.36,0-.23.04-.38.16-.57.09-.15.18-.36.39-.32.1.02.15.07.21.14.03.03.08.13.13.13.07,0,.07-.08.1-.12.04-.06.12-.12.18-.16.08-.05.55-.27.6-.11.02.07-.11.16-.15.2-.1.1-.19.15-.16.3.09-.02.14-.16.24-.19.07-.02.13,0,.19.04.11.07.21.14.24.28.1.02.18,0,.27.04.06.03.17.04.21.1.05.07.07.27.09.36.01.08-.09.31-.03.33-.03.03-.06.06-.09.1-.03-.02-.06-.05-.1-.07-.08-.05-.15-.08-.23-.11-.22-.1-.4-.14-.65-.13-.18,0-.35.05-.51.11-.17.06-.33.01-.5.03-.22.03-.43.33-.41.54.01.13.19.19.3.24.09.04.18.05.27.09.13.05.23.14.36.19.16.07.32.03.45.15.1.1.17.19.17.33,0,.14-.09.27-.15.39-.05.09-.12.14-.2.18-.19.1-.32.01-.51-.05-.09-.02-.16-.05-.25-.05-.02,0-.05.01-.08.04-.21-.16-.49-.28-.73-.3-.27-.02-.53.09-.79.09-.01.08.01.16.02.25,0,.14.02.3-.03.44-.03.09-.09.2-.19.22-.09.02-.15-.02-.21-.06-.1-.07-.18-.11-.24-.22-.06-.1-.11-.19-.19-.28-.06-.07-.13-.16-.2-.23-.07-.06-.18-.08-.25-.14-.21-.15-.45-.17-.7-.18-.14,0-.38-.04-.36-.24.01-.14.25-.23.33-.32.15-.17-.23-.28-.34-.29-.22-.02-.41.04-.6.13-.19.09-.38.17-.57.24-.19.06-.36.08-.55.05-.13-.01-.25-.05-.37,0-.08.03-.2.09-.41.11-.33.28-.78.61-.66,1.1.04.19-.27.3-.4.39-.11.08-.21.18-.31.28-.15.14-.31.26-.39.45-.05.13-.03.25-.08.38-.06.15-.14.29-.15.46-.02.21-.05.42-.05.64,0,.17,0,.36.09.5.08.12.2.2.28.32.09.13.1.33.17.48.06.13.17.2.27.29.06.05.1.08.17.09.07.01.16,0,.23.04.07.05.1.14.16.19.06.05.15.08.23.11.06.03.11.08.17.11.11.06.23.04.35.02.1-.02.18-.04.28-.03.13.03.23,0,.35-.02.06-.01.13,0,.19-.01.1,0,.21-.06.31-.09.12-.04.25-.08.38-.05.08.02.11.13.2.11,0-.08.01-.2.06-.27.04-.07.1-.06.18-.01.1.06.19.17.25.27.07.11.08.26.22.3.11.04.36.01.42.14.1.19,0,.34-.07.51-.08.17-.19.32,0,.46.05.04.09.05.14.1.03.04.06.08.09.12.1.1.23.11.26.26.04.2.01.44.1.63.1.2.25.37.3.59.06.28-.06.52-.26.71-.11.09-.19.17-.22.31-.04.15-.01.17.15.32.07.16.21.26.28.41.15.32.11.65.16.99.03.17.07.34.13.49.06.15.17.27.25.41.06.12.12.23.19.34.07.12.07.28.07.41,0,.13,0,.25-.04.38-.02.07-.05.2,0,.26.1.12.39-.03.5-.08.14-.05.3-.08.43-.16.13-.08.23-.2.38-.25.1-.04.18-.08.27-.13.25-.13.47-.32.66-.52.19-.2.43-.47.51-.74.06-.18,0-.33.21-.41.14-.06.31-.12.31-.29,0-.1-.02-.19-.05-.28-.04-.13-.03-.27-.03-.41,0-.2.21-.4.35-.52.1-.09.19-.15.31-.2.13-.05.26-.11.35-.23.08-.11.14-.23.16-.37,0-.05,0-.11,0-.16,0-.11.04-.23.05-.34.02-.18-.08-.3-.16-.45-.05-.09-.09-.18-.15-.26-.05-.06-.12-.11-.15-.19-.04-.1,0-.16.06-.24.1-.13.17-.27.27-.4.07-.09.15-.16.22-.25.05-.07.09-.15.14-.21.1-.13.25-.18.38-.28.1-.08.2-.15.29-.23.12-.1.2-.25.3-.36.26-.31.55-.59.81-.89.04-.05.15-.18.16-.25.01-.14-.29-.1-.37-.09-.21.02-.4.12-.59.22-.22.11-.51.17-.75.17-.15,0-.21-.11-.3-.23-.04-.05-.08-.09-.09-.16-.01-.07.02-.16,0-.24-.01-.06-.04-.06-.07-.11-.03-.05-.02-.11-.02-.17,0-.05-.03-.1-.04-.15-.01-.06-.01-.13-.02-.2-.03-.14-.14-.2-.25-.27-.11-.08-.27-.2-.35-.32-.07-.1-.11-.22-.15-.33-.07-.18-.15-.28-.31-.39-.11-.07-.21-.17-.24-.3-.03-.13.01-.27.01-.4,0-.08,0-.18-.03-.28.08,0,.15.02.21.04.2.06.42.14.53.33.11.21.14.46.22.68.09.22.21.41.32.63.09.19.22.32.35.48.1.12.14.26.26.37.19.17.12.39.15.61.11.03.3-.1.38-.16.17-.13.31-.29.48-.41.21-.15.36-.37.66-.39.3-.31.54-.3.74-.52.16-.17.3-.36.39-.57.04-.08.11-.24.09-.33-.03-.1-.15-.13-.24-.15-.12-.02-.22-.04-.34-.04-.12,0-.21.02-.23-.12,0-.05.03-.19,0-.23-.06-.1-.25.03-.31.06-.24.14-.55.4-.7.01-.03-.09-.08-.18-.09-.27-.02-.13-.08-.18-.15-.28-.09-.14-.32-.29-.34-.47,0-.1.07-.17.12-.25.01-.02.02-.05.04-.07.13.15.2.29.35.42.12.11.14.18.29.21.15.02.29-.01.44.06.04.02.08.06.12.08.12.06.26.06.37.14.05.04.09.12.15.13.01,0,.09-.02.11-.03.12-.01.26,0,.38.01.24.03.43.14.66.19.19.04.38.04.48.22.09.16.06.39.19.52.11.11.24,0,.39,0,.07,0,.16.01.21.06.09.06.08.2.16.27.16.14.26-.09.33-.22.02-.04.31-.56.4-.4.03.05-.04.16-.05.2-.05.22-.07.46-.12.68-.02.11-.09.33-.04.45.03.06.11.11.16.16.05.06.1.16.16.21.04.02.07.02.1.04.09.05.12.11.14.23.05.23-.04.47,0,.7.04.16.2.28.32.38.13.1.36.06.48-.05.17-.17.12-.45.12-.67,0-.24.06-.39.2-.58.13-.19.25-.4.41-.57.13-.13.26-.28.43-.36.09-.05.17-.09.24-.18.05-.07.08-.16.13-.23.12-.15.42-.32.54-.07.05.11,0,.28.03.41.03.11.08.22.14.31.25.36.42-.3.67-.06.06.06.09.11.16.16.07.05.1.05.12.14.03.1,0,.22.03.33.01.06.02.11.03.18.03.15.12.22.22.32,0,.01.01.02.02.04.02.05.04.12.07.17.04.08.08.15.1.24,0,.05,0,.09.01.13,0,.05.02.1.03.15.01.09,0,.19.01.28-.02.04-.04.09-.05.14-.04.16.04.24.11.38.04.07.05.16.1.22.04.05.12.1.16.14.07.07.12.14.18.21,0,.03-.01.05-.02.08,0,.01,0,.02,0,.03-.05-.02-.1-.04-.16-.05-.1-.02-.1-.12-.19-.17-.06-.03-.12-.03-.17-.08-.04-.04-.05-.06-.1-.07-.03,0-.05,0-.08,0-.04-.01-.06-.05-.08-.08-.11-.13-.28-.24-.4-.35-.03.06-.1.14-.05.26.06.13.2.2.3.3.1.1.07.25.17.35.05.05.11.08.16.13.05.05.07.11.14.14.06.02.14.02.18.07.04.04.06.13.08.18,0,.02.01.04.02.06-.03.11-.06.23-.1.33,0,.02-.01.04-.02.07Z" stroke-width="0"/><path d="m64.81,43.78s-.05,0-.08-.02c-.02-.01-.02-.05-.04-.06-.02-.02-.05-.04-.08-.06-.02-.02-.03-.05-.06-.06-.07-.03-.18.03-.25.05-.1.02-.2.05-.31.05-.05,0-.1,0-.13-.05-.02-.02-.01-.06-.03-.08-.02-.02-.05-.01-.08-.02-.04,0-.07-.04-.11-.06-.05-.02-.1-.03-.15-.03-.03,0-.07,0-.1-.01-.09,0-.14.02-.23.07-.06-.08-.11-.06-.15-.03.02.03.11.04.14.04.04,0,.08-.01.12,0,.05.03.01.1.04.15.05.07.12.05.19.04.05,0,.13-.01.18,0,.03.02.05.04.09.04.05.01.09,0,.14.03.03.01.05.02.07.02.05,0,.08,0,.13.02.03.01.04.04.07.04.04,0,.09-.03.14-.03.03,0,.07,0,.1,0,.04,0,.09.02.13.05.04.03.04.07.1.06.06,0,.16-.03.21-.07.04-.03.03-.05,0-.07-.01-.02-.05-.05-.07-.06Z" stroke-width="0"/><path d="m65.98,44.22s-.05-.03-.1-.04c-.04,0-.09,0-.13-.03-.03-.01-.05-.03-.09-.04-.05,0-.1,0-.14-.03-.03-.03-.05-.06-.09-.08-.04-.01-.09-.01-.13,0-.05,0-.11.07-.11.13.05.08.11.16.18.23.03-.03.11-.02.16-.03.03,0,.08-.02.1-.02.05,0,.07.07.12.09.08.04.16,0,.22-.05.02-.01.07-.04.08-.07,0-.05-.05-.06-.08-.08Z" stroke-width="0"/><path d="m87.95,50.33c-.06-.04-.09-.04-.22-.03-.09.19-.2.37-.32.54-.03-.03-.06-.01-.09-.02-.03,0-.06-.03-.09-.04-.11-.04-.21,0-.3.06-.09.06-.11.08-.11.18,0,.11.02.21.02.32,0,.09,0,.19,0,.28-.02.11-.09.19-.13.29-.04.1-.06.2-.12.29-.06.11-.11.21-.12.34-.03.53.9.17.8-.17.18-.16.28-.44.36-.69.04-.11.1-.21.13-.33.02-.11.02-.21.07-.31.05-.1.11-.2.17-.29.06-.09.1-.13.07-.23-.02-.08-.04-.15-.11-.2Z" stroke-width="0"/><path d="m77.66,35.96c.03.06.1.1.12.16.04.12-.03.26-.04.37,0,.1.06.18.07.28.01.08.04.21.01.28-.02.03-.06.07-.09.1-.04.06-.07.12-.08.18-.03.12-.02.17.09.22.05.02.18.11,0-.02.29-.06.67-.09.94-.24.06-.04.2-.08.22-.16.04-.17-.28-.31-.4-.35-.15-.06-.33-.13-.37-.29-.03-.09-.06-.14-.11-.22-.03-.05-.09-.16-.1-.22-.02-.12.11-.14.17-.22.05-.06.05-.14.04-.21-.01-.19-.4-.29-.52-.13-.06.07-.03.21,0,.29.02.05.04.11.06.16Z" stroke-width="0"/><path d="m77.02,36.32c-.1.11-.1.28-.1.43,0,.06.01.14-.01.2-.03.08-.15.11-.16.2-.02.11.16.16.25.17.1,0,.18-.02.05-.1.19-.19.38-.39.55-.59-.1.05-.09-.11-.11-.15-.03-.07-.11-.14-.16-.2-.09-.11-.21-.05-.3.05Z" stroke-width="0"/><path d="m86.36,30.97c.07.04.1.14.17.16.07.03.13-.03.19-.07.08-.05.24-.12.12-.24-.2-.19-.37-.41-.51-.64.08-.13.1-.35.11-.5,0-.15.03-.22.12-.34.15-.2.27-.47.46-.63.13-.11.31-.13.43-.24.18-.16.35-.44-.21-.46-.14.02-.28.23-.38.35-.23.3-.48.58-.74.85-.31.32-.59.91-.49,1.38.07.37.5.25.74.38Z" stroke-width="0"/><path d="m77.26,26.19c-.1-.22-.41-.3-.64-.24-.09.02-.16.06-.24.1-.06.03-.11.06-.16.08-.06.02-.12.02-.19.02h-.04s-.05,0-.08,0c-.07,0-.17,0-.21-.02,0,0-.02-.02-.03-.03,0,0-.01-.02-.02-.03-.02-.02-.05-.05-.07-.07-.02-.02-.04-.03-.05-.05-.02-.03-.02-.08-.02-.14,0-.05,0-.1-.01-.14,0-.01,0-.02,0-.03h0s.11-.1.18-.12c.02,0,.04-.01.07-.02.2-.05.35-.1.38-.22,0-.05,0-.11-.09-.18-.1-.08-.25-.13-.37-.17l-.07-.02c-.17-.06-.33-.11-.52-.11-.11,0-.2-.03-.32-.06-.27-.08-.48.13-.63.28l-.04.04c-.1.1-.33.1-.5.09h-.07s0,0-.02,0c-.3,0-.74.02-1.12.17-.19.08-.33.17-.42.27-.03.03-.05.07-.08.1-.04.06-.07.1-.13.13-.07.04-.14.04-.23.03h-.06s0,0,0,0c-.2,0-.39.05-.61.16-.16.08-.25.19-.35.3-.11.13-.14.25-.17.37-.03.14-.2.27-.48.37-.16.06-.33.24-.32.43,0,.06.02.12.04.17,0,.03.02.05.02.08.01.06,0,.09-.02.15l-.02.05c-.02.06-.03.13-.04.2,0,.11.04.19.11.21.05.02.12,0,.19-.08.03.01.07.03.1.04.15.06.31.12.48.21.01,0,.02.01.03.02.02.04.07.08.11.12.12.15.15.3.16.52,0,.23.11.41.22.58.03.05.06.11.09.16.05.1.07.18.07.25,0,.07-.07.15-.13.23-.03.04-.06.08-.08.12-.06.1-.2.35-.14.58.04.14.19.25.28.31.02.02.05.03.07.04.04.02.09.05.1.07.01.04-.01.12-.19.31-.03.03-.06.07-.1.1-.12.12-.26.27-.34.43-.07.16-.08.33-.02.48.05.13.15.19.24.25.04.03.08.06.12.09.03.03.05.07.01.19-.05.13-.1.27-.11.42v.03c-.02.15-.05.34.04.49.08.14.24.28.39.34.1.04.2.06.28.06.15,0,.27-.06.35-.18.06-.08.09-.16.12-.25.02-.04.03-.08.05-.12v-.03c.08-.14.15-.29.24-.41.1-.14.24-.23.4-.33.11-.07.22-.14.32-.23.09-.08.15-.18.22-.28.08-.12.15-.23.25-.29.05-.03.12-.04.2-.05.04,0,.08,0,.12-.01.26-.04.5-.12.77-.21.19-.06.63-.25.68-.65.03-.18.06-.34.09-.47.01-.05.03-.09.05-.14.02-.05.04-.11.05-.16.03-.14,0-.27-.02-.38v-.06c-.04-.14-.03-.29,0-.46.03-.12.06-.18.16-.26.03-.02.06-.05.1-.08.08-.06.18-.13.23-.21.05-.08.05-.17.05-.25,0-.02,0-.05,0-.07,0-.05.01-.1.02-.15.01-.07.02-.15.03-.23,0-.04,0-.07,0-.1,0-.13,0-.22.08-.32.02-.03.04-.05.05-.07.07-.09.14-.18.16-.33.02-.11.04-.21.07-.32.01-.05.01-.1.01-.15s0-.08.01-.11c.04-.11.12-.23.18-.33.04-.07.08-.09.16-.13.06-.03.11-.05.17-.08.07-.04.14-.07.21-.1.08-.03.19-.08.23-.18.03-.09.01-.2-.05-.33Z" stroke-width="0"/><path d="m69.09,32.45c.08-.09.18-.23.19-.36.01-.15-.09-.26-.16-.38-.04-.07-.09-.13-.16-.18-.07-.04-.14-.05-.22-.09-.12-.06-.2-.21-.25-.33-.06-.15,0-.27,0-.42,0-.17-.06-.29-.17-.42-.05-.06-.11-.13-.17-.18-.04-.03-.09-.04-.12-.07-.14-.11-.4-.58-.42-.61.01.12-.02,0-.12-.02-.07-.01-.18.03-.22-.05-.04-.08.05-.22.08-.3.02-.08.05-.15.04-.24-.15-.02-.25.01-.35.13-.16.18-.37.29-.52.49-.05.06-.13.2-.22.13-.08-.06-.04-.24-.04-.32,0-.08,0-.15.03-.23.04-.12.2-.29.2-.41-.35,0-.64.51-.78.56-.16.28-.17.26-.08.34.04.04.09.07.09.14,0,.08-.06.17-.06.25,0,.1,0,.21,0,.31.02.24.2.48.46.37.08-.04.16-.13.24-.16.08-.02.2,0,.28.02.06.02.13.04.17.09.06.08.07.1.16.15.21.1.18.35.18.55,0,.1,0,.19.04.28.05.11.04.18-.05.29-.21.26-.48.44-.75.63-.02.01-.31.19-.32.25,0,.03,0,.05.03.07.03.02.12,0,.15-.01.08,0,.16,0,.24,0,.18,0,.42,0,.51.17.06.12.16.22.22.34.03.05.04.12.1.15.04.03.11.03.16.05.07.03.12.08.19.11.13.04.26.07.39.11.21.07.43-.08.37-.31-.03-.11-.15-.19-.24-.25-.1-.07-.15-.15-.19-.27-.07-.18-.04-.52.2-.53.11,0,.2.05.3.09.1.05.2.07.3.12.07.03.12.09.2.05.04-.02.09-.08.12-.11Z" stroke-width="0"/><path d="m66.14,27.14c-.25.02-.28.2-.28.41,0,.15.02.38.17.45.18.09.42-.05.54.15.09.15.14.28.34.3.11.01.22,0,.33.02.05.01.11.03.16.04.08.01.26,0,.26-.13,0-.11-.11-.25-.19-.3-.14-.08-.3-.08-.45-.11-.12-.02-.19-.06-.28-.14-.04-.04-.17-.12-.16-.19.02-.19.53-.11.65-.11.39,0,.59.2.94.41-.15.01-.18.16-.08.2.06.02.19,0,.25-.03.11-.04.07-.18.03-.27-.06-.11-.12-.21,0-.31.12-.09.31-.09.44-.17.1-.07.01-.26,0-.36-.01-.33.08-.31.62-.69.05-.03.11-.06.16-.08.18-.06.36-.14.54-.21.1-.04.3-.05.35-.17-.03-.06-.18-.06-.23-.08-.06-.02-.13-.05-.16-.11-.11-.19.23-.26.35-.26.14,0,.26.05.4.06.14,0,.21-.05.33-.1.25-.1.55-.08.75-.29.18-.19.1-.48-.09-.63-.09-.07-.19-.19-.3-.21-.2-.04-.44,0-.64.03-.35.04-.69-.05-1.05.01-.27-.14-.6-.11-.9-.07-.17.02-.3.05-.46.12-.04.02-.22.08-.24.13-.01.04.02.1.02.14,0,.1-.01.2,0,.29,0,.09.03.1.08.17.08.11.03.15-.04.25-.03.04-.04.07-.08.09-.07.03-.21.02-.27,0-.13-.05-.11-.18-.11-.3,0-.09,0-.21.02-.3.01-.05.14-.19.11-.24-.12,0-.23.03-.34.07-.09.03-.18.05-.26.1-.18.11-.3.3-.41.47-.08.12-.19.23-.26.37-.08.15-.27.64,0,.72.13.04.31,0,.45,0,.08,0,.16,0,.23,0,.14.01.23.13.27.26.03.12-.04.29-.09.4-.05.1-.17.1-.28.12-.11.02-.2.03-.3.08-.08.04-.15.1-.23.14-.11.05-.21.04-.31-.03-.06-.05-.09-.09-.15-.11-.05-.01-.14,0-.19,0Z" stroke-width="0"/><path d="m66.2,26.15c.03-.06.06-.16.08-.22.03-.09,0-.2-.06-.28-.04-.04-.18-.14-.24-.13.02.09-.15.16-.21.21-.05.04-.09.08-.11.14-.03.07-.03.15-.07.22.15.12.32.22.5.29.03-.14.09-.17.11-.22Z" stroke-width="0"/><path d="m65.58,27.12c-.11.12-.27.25-.35.4,0,.02,0,.06-.02.07-.03.02-.09,0-.12-.03-.11-.09-.09-.24-.16-.35-.07-.11-.12-.07-.17.03-.06.13-.09.3-.02.42.06.1.16.16.28.2.15.05.24,0,.37-.06.09-.04.15-.04.21-.14.05-.08.14-.35-.02-.54Z" stroke-width="0"/><path d="m65.07,28.43c-.23,0-.45.04-.66.12,0,.12-.01.24-.01.36,0,.13,0,.2-.08.3-.04.06-.12.15-.09.23.05.12.25.09.34.04.11-.06.24-.14.3-.26.05-.1.04-.21.15-.26.1-.05.21-.06.26-.17.04-.08.06-.32-.2-.38Z" stroke-width="0"/><path d="m63.59,28.75c.08-.08.15-.07.25-.11,0-.09-.03-.24-.1-.3-.13-.11-.28.03-.36.12-.08.08-.17.24-.26.29-.12.06-.27-.06-.34-.15-.04-.06-.07-.13-.12-.19-.06-.06-.08-.05-.16-.07-.09-.03-.08-.08-.1-.17-.02-.1-.06-.2-.07-.31-.03-.2-.05-.37-.24-.48-.18-.1-.36-.08-.52.05-.3.25-.57.63-.53,1.03.02.21.13.35.26.5.04.05.08.11.13.15.07.05.15.04.23.06.39.07-.04.53-.08.73-.02.12-.04.22.08.26.18.06.38,0,.54-.08.15-.06.42-.25.58-.17.05.02.08.07.12.11.05.06.12.09.19.11.17.06.38.08.55.04.05-.01.12-.03.1-.09,0-.03-.04-.03-.05-.05-.04-.05-.06-.07,0-.21-.16-.24-.27-.5-.34-.77.12-.08.15-.22.24-.31Z" stroke-width="0"/><path d="m69.6,37.51c-.12-.06-.29.07-.43,0-.06-.03-.24-.12-.23-.18-.2.08-.39.17-.57.28,0-.02-.13,0-.18.09-.05.08,0,.09.08.14.07.05.16.17.25.18.05,0,.11-.04.16-.06.24-.11.46.03.71.02.13,0,.21-.02.27-.14.04-.09.07-.27-.05-.32Z" stroke-width="0"/><path d="m76.43,33.36c.07-.1.08-.38-.06-.43-.12-.04-.39.12-.48.19-.08.06-.13.1-.24.1-.04,0-.08,0-.12-.02-.19-.04-.29-.03-.53-.03-.08,0-.28-.04-.3.18-.02.13.09.32.2.38.15.08.29.09.45.03.19-.08.38-.07.57-.12.16-.04.4-.13.5-.28Z" stroke-width="0"/><path d="m76.9,20.9c11.74,0,21.3,9.56,21.3,21.3s-9.56,21.3-21.3,21.3-21.3-9.56-21.3-21.3,9.56-21.3,21.3-21.3m0-.98c-12.3,0-22.28,9.97-22.28,22.28s9.97,22.28,22.28,22.28,22.28-9.97,22.28-22.28-9.97-22.28-22.28-22.28h0Z" fill="#fff" stroke-width="0"/></svg>