<svg xmlns="http://www.w3.org/2000/svg" viewBox="0 0 405.83 88.09"><path d="M143.55 25.14a9.62 9.62 0 0 1-.67 3.64 9 9 0 0 1-1.88 2.88 8.44 8.44 0 0 1-2.8 1.89 9 9 0 0 1-3.53.68 9.7 9.7 0 0 1-3.67-.69 9.35 9.35 0 0 1-3-1.91 8.89 8.89 0 0 1 0-12.78 9.22 9.22 0 0 1 3-1.91 9.55 9.55 0 0 1 3.64-.7 9.72 9.72 0 0 1 4.19.93 8.69 8.69 0 0 1 3.17 2.49l-3 2.71a5.94 5.94 0 0 0-2-1.63 5.41 5.41 0 0 0-2.42-.56 4.77 4.77 0 0 0-1.94.39 4.65 4.65 0 0 0-1.54 1.06 5.13 5.13 0 0 0-1 1.6 5.6 5.6 0 0 0-.37 2 5.21 5.21 0 0 0 .39 2 5.06 5.06 0 0 0 1 1.62 4.64 4.64 0 0 0 1.67 1.15 5 5 0 0 0 2 .39 4.67 4.67 0 0 0 2.63-.76 3.67 3.67 0 0 0 1.51-2h-4.71v-3.74h9.34zM146 34V16.52h7.07a9.71 9.71 0 0 1 3.62.68 9.35 9.35 0 0 1 2.92 1.86 8.6 8.6 0 0 1 2 2.78 8.33 8.33 0 0 1 .72 3.45 8.12 8.12 0 0 1-.72 3.39 8.62 8.62 0 0 1-2 2.76 9 9 0 0 1-2.92 1.85 9.7 9.7 0 0 1-3.62.67zm7-13.65h-2.7v9.86h2.7a4.94 4.94 0 0 0 1.92-.37 4.66 4.66 0 0 0 2.59-2.59 4.94 4.94 0 0 0 .38-1.92 5.11 5.11 0 0 0-.38-2 5 5 0 0 0-1-1.58 4.84 4.84 0 0 0-1.56-1.06 4.77 4.77 0 0 0-1.95-.38zm20.67 9.9a5.22 5.22 0 0 0 2.33-.55 6.16 6.16 0 0 0 2-1.62l2.82 2.77a8.82 8.82 0 0 1-3.2 2.44 9.63 9.63 0 0 1-4.08.92 9.74 9.74 0 0 1-3.7-.7 9.09 9.09 0 0 1-3-1.89 8.88 8.88 0 0 1-2-2.84 9.09 9.09 0 0 1 0-7.09 8.48 8.48 0 0 1 2-2.85 9.44 9.44 0 0 1 3-1.9 9.78 9.78 0 0 1 5.83-.45 11.66 11.66 0 0 1 2 .69 8.66 8.66 0 0 1 1.79 1.07 7.3 7.3 0 0 1 1.42 1.41L178 22.5a6.36 6.36 0 0 0-2-1.73 5.31 5.31 0 0 0-2.46-.59 4.89 4.89 0 0 0-2 .39 4.78 4.78 0 0 0-1.54 1.06 5.05 5.05 0 0 0-1.05 1.6 5.21 5.21 0 0 0-.38 2A4.87 4.87 0 0 0 170 28.8a5.11 5.11 0 0 0 1.62 1.06 5.24 5.24 0 0 0 2.05.39zM126 62V44.52h13.86v3.71h-9.57v3.27h6.38v3.58h-6.38V62zm17.75-14.44a2.22 2.22 0 1 1 1.57-.65 2.14 2.14 0 0 1-1.57.65zm2 1.22V62h-4V48.78zm14.79 11.44a7.89 7.89 0 0 1-5.5 2 7.56 7.56 0 0 1-2.82-.52 6.89 6.89 0 0 1-2.28-1.45 6.73 6.73 0 0 1-1.52-2.18 6.57 6.57 0 0 1-.56-2.68 6.75 6.75 0 0 1 .54-2.68 6.93 6.93 0 0 1 1.45-2.18 6.79 6.79 0 0 1 2.15-1.45 7 7 0 0 1 2.71-.52 6.39 6.39 0 0 1 4.77 2 6.69 6.69 0 0 1 1.38 2.28 8.22 8.22 0 0 1 .5 2.88v1H152a3.44 3.44 0 0 0 3.24 2.1 4 4 0 0 0 1.49-.27 3.33 3.33 0 0 0 1.15-.73zm-5.88-8.38a2.81 2.81 0 0 0-1.72.55 3 3 0 0 0-1 1.55h5.51a3.21 3.21 0 0 0-1.06-1.52 2.72 2.72 0 0 0-1.73-.58zm12.86-8.19V62h-4V44.52zM179.88 62v-1a6.58 6.58 0 0 1-1.67.85 5.86 5.86 0 0 1-1.87.3 6.73 6.73 0 0 1-4.77-2 6.76 6.76 0 0 1-2-4.81 6.7 6.7 0 0 1 2-4.8 6.66 6.66 0 0 1 2.18-1.43 7 7 0 0 1 4.44-.3 6.4 6.4 0 0 1 1.6.65v-5l4-.87V62zm-6.31-6.6a3.17 3.17 0 0 0 1 2.38 3.44 3.44 0 0 0 2.46 1 4.22 4.22 0 0 0 1.54-.27 3.56 3.56 0 0 0 1.25-.78V53a4.2 4.2 0 0 0-1.25-.75A4.34 4.34 0 0 0 177 52a3.42 3.42 0 0 0-2.47 1 3.19 3.19 0 0 0-.96 2.36zm36.26-2.16a8.62 8.62 0 0 1-.73 3.53 8.83 8.83 0 0 1-2 2.86 9.14 9.14 0 0 1-3 1.91 10.05 10.05 0 0 1-7.32 0 9.14 9.14 0 0 1-3-1.91 8.91 8.91 0 0 1 0-12.78 9.14 9.14 0 0 1 3-1.91 9.92 9.92 0 0 1 7.32 0 9.14 9.14 0 0 1 3 1.91 8.83 8.83 0 0 1 2 2.86 8.62 8.62 0 0 1 .73 3.53zm-4.41 0a5.4 5.4 0 0 0-.38-2 4.83 4.83 0 0 0-4.53-3 4.77 4.77 0 0 0-1.94.39 4.8 4.8 0 0 0-2.6 2.66 5.64 5.64 0 0 0 0 4 4.8 4.8 0 0 0 2.6 2.66 5 5 0 0 0 3.88 0 4.74 4.74 0 0 0 2.55-2.7 5.4 5.4 0 0 0 .42-2.01zm6.67 13.98V48.78h4v1a6.58 6.58 0 0 1 1.67-.85 5.86 5.86 0 0 1 1.87-.3 6.64 6.64 0 0 1 2.63.53 6.72 6.72 0 0 1 2.14 1.44 6.9 6.9 0 0 1 1.43 2.16 6.71 6.71 0 0 1 .53 2.65 6.59 6.59 0 0 1-.54 2.66 6.78 6.78 0 0 1-1.46 2.14 6.66 6.66 0 0 1-2.18 1.43 6.89 6.89 0 0 1-2.68.53 6.79 6.79 0 0 1-1.76-.23 6.4 6.4 0 0 1-1.6-.65v6zM218.92 52a4.22 4.22 0 0 0-1.54.27 3.56 3.56 0 0 0-1.25.78v4.65a3.89 3.89 0 0 0 1.25.75 4.34 4.34 0 0 0 1.54.27 3.43 3.43 0 0 0 2.47-1 3.34 3.34 0 0 0 0-4.76 3.46 3.46 0 0 0-2.47-.96zm8.5 8.49l1.92-2.72a11.75 11.75 0 0 0 2.26 1.09 6.57 6.57 0 0 0 2 .33 3.64 3.64 0 0 0 1.58-.28.87.87 0 0 0 .59-.76.74.74 0 0 0-.32-.61 2.38 2.38 0 0 0-1-.34l-2.61-.4a5.31 5.31 0 0 1-3-1.31 3.46 3.46 0 0 1-1.05-2.62 3.72 3.72 0 0 1 1.52-3.14 6.72 6.72 0 0 1 4.16-1.15 10.51 10.51 0 0 1 2.86.41 10.23 10.23 0 0 1 2.67 1.19l-1.92 2.59a9 9 0 0 0-2-.91 6.93 6.93 0 0 0-2-.29 2.6 2.6 0 0 0-1.24.26.78.78 0 0 0-.48.69.74.74 0 0 0 .35.63 3 3 0 0 0 1.2.36l2.62.4a5.33 5.33 0 0 1 3 1.29 3.39 3.39 0 0 1 1.06 2.55 3.64 3.64 0 0 1-.45 1.77 4.5 4.5 0 0 1-1.23 1.42 6 6 0 0 1-1.89.93 7.83 7.83 0 0 1-2.36.34 13.26 13.26 0 0 1-3.48-.44 8 8 0 0 1-2.76-1.28zM246.58 62V44.52h13.85v3.71h-9.57v3.27h6.38v3.58h-6.38V62zm26.09-1.78a7.94 7.94 0 0 1-5.51 2 7.56 7.56 0 0 1-2.82-.52 6.82 6.82 0 0 1-3.8-3.63 6.57 6.57 0 0 1-.56-2.68 6.75 6.75 0 0 1 .54-2.68 7 7 0 0 1 1.48-2.19 6.68 6.68 0 0 1 2.18-1.44 7 7 0 0 1 2.7-.52 6.35 6.35 0 0 1 4.77 2 6.69 6.69 0 0 1 1.35 2.32 8 8 0 0 1 .5 2.88v1h-9.39a3.46 3.46 0 0 0 3.24 2.1 3.92 3.92 0 0 0 1.49-.27 3.33 3.33 0 0 0 1.15-.73zm-5.88-8.38a2.79 2.79 0 0 0-1.72.55 2.91 2.91 0 0 0-1 1.55h5.51a3.14 3.14 0 0 0-1.06-1.52 2.71 2.71 0 0 0-1.73-.58zm12.85-8.19V62h-4V44.52zm6.73 0V62h-4V44.52zm2.09 11.73a6.6 6.6 0 0 1 .54-2.68 6.84 6.84 0 0 1 3.79-3.63 7.56 7.56 0 0 1 5.61 0 7.07 7.07 0 0 1 2.26 1.45 7 7 0 0 1 1.52 2.18 6.69 6.69 0 0 1 0 5.36 6.73 6.73 0 0 1-1.52 2.18 6.9 6.9 0 0 1-2.26 1.45 7.83 7.83 0 0 1-5.61 0 6.84 6.84 0 0 1-3.79-3.63 6.57 6.57 0 0 1-.54-2.68zm7.15 3.34a3 3 0 0 0 2.28-1 3.48 3.48 0 0 0 0-4.76 3 3 0 0 0-2.28-1 3.06 3.06 0 0 0-2.28 1 3.51 3.51 0 0 0 0 4.76 3.06 3.06 0 0 0 2.28 1zM311 62h-3.89l-3.59-13.18h3.81l1.95 7.75 2.36-7.75H315l2.37 7.77 1.92-7.77h3.76L319.46 62h-3.86l-2.3-7.62zm12.69-1.51l1.92-2.72a11.81 11.81 0 0 0 2.27 1.09 6.52 6.52 0 0 0 2 .33 3.67 3.67 0 0 0 1.58-.28.87.87 0 0 0 .59-.76.72.72 0 0 0-.33-.61 2.28 2.28 0 0 0-1-.34l-2.62-.4a5.35 5.35 0 0 1-3-1.31 3.49 3.49 0 0 1-1-2.62 3.7 3.7 0 0 1 1.52-3.14 6.72 6.72 0 0 1 4.16-1.15 10.39 10.39 0 0 1 2.85.41 10.08 10.08 0 0 1 2.65 1.19l-1.91 2.59a9.23 9.23 0 0 0-2-.91 6.81 6.81 0 0 0-1.94-.29 2.67 2.67 0 0 0-1.25.26.79.79 0 0 0-.47.69.74.74 0 0 0 .35.63 2.94 2.94 0 0 0 1.2.36l2.61.4a5.27 5.27 0 0 1 3 1.29 3.35 3.35 0 0 1 1.06 2.55 3.74 3.74 0 0 1-.44 1.77 4.53 4.53 0 0 1-1.24 1.42 5.8 5.8 0 0 1-1.88.93 7.85 7.85 0 0 1-2.37.34 13.24 13.24 0 0 1-3.47-.44 8.17 8.17 0 0 1-2.84-1.28zM337.6 62V44.52l4-.87v6a5.56 5.56 0 0 1 1.64-.85 6 6 0 0 1 1.9-.3A5.1 5.1 0 0 1 349 50a5.23 5.23 0 0 1 1.47 3.82V62h-4v-7.61A2.27 2.27 0 0 0 344 52a3.32 3.32 0 0 0-1.37.28 2.72 2.72 0 0 0-1 .77V62zM355 47.56a2.22 2.22 0 1 1 1.57-.65 2.14 2.14 0 0 1-1.57.65zm2 1.22V62h-4V48.78zm2.75 18.44V48.78h4v1a6.75 6.75 0 0 1 1.67-.85 5.9 5.9 0 0 1 1.87-.3 6.73 6.73 0 0 1 4.77 2 6.93 6.93 0 0 1 1.44 2.16 6.7 6.7 0 0 1 .52 2.65 6.59 6.59 0 0 1-.54 2.66 6.62 6.62 0 0 1-3.63 3.57 6.93 6.93 0 0 1-2.68.53 6.81 6.81 0 0 1-1.77-.23 6.4 6.4 0 0 1-1.6-.65v6zM366.58 52a4.27 4.27 0 0 0-1.55.27 3.56 3.56 0 0 0-1.25.78v4.65a4 4 0 0 0 1.25.75 4.39 4.39 0 0 0 1.55.27 3.41 3.41 0 0 0 2.46-1A3.32 3.32 0 0 0 369 53a3.42 3.42 0 0 0-2.42-1zm11.48 10.23a2.34 2.34 0 1 1 1.63-.68 2.21 2.21 0 0 1-1.63.68zm-1.54-5.65L376 43.4h4.09l-.5 13.18z" fill="#fff"/><rect x="24.36" y="18.31" width="88.56" height="46.88" rx="23.44" fill="#5f7dcd"/><path d="M106.38,36.19A19,19,0,1,1,88,22.7h-.19a19.59,19.59,0,1,0,18.59,13.5Z" opacity=".2"/><circle cx="88.24" cy="41.67" r="19.24" fill="#fff"/><g fill="#5f7dcd"><path d="M106 33.42a19.77 19.77 0 0 0-2-3.26l-.55-.71-.38-.46-1-1.13a19.37 19.37 0 0 0-13.82-5.73 19.61 19.61 0 0 0-15.82 8.07l-1 1.45-.36.63a18.72 18.72 0 0 0-1.41 3.21v.07h0a.76.76 0 0 1 0 .11h0l-.15.49h0a19.54 19.54 0 0 0 35.83 15v-.11h0a18.25 18.25 0 0 0 1.13-2.42l.4-1.15v-.06h0c0-.13.08-.26.11-.38l.1-.36v-.15-.08q.15-.57.27-1.23l.17-1.11.1-1.06c.02-.36 0-.92 0-1.38a19.29 19.29 0 0 0-1.62-8.25zm.12 11.58l-.05-.1a.59.59 0 0 1 0-.23v-.14c.08 0 .2.08.28.12s.11.05.14.1a.56.56 0 0 1 .06.23h0c0 .19-.07.38-.11.56a4.38 4.38 0 0 1-.29-.34v-.06-.08s-.03.02-.03-.06zm-3.57-15.32l.15.19a.19.19 0 0 1-.13 0 .15.15 0 0 1-.02-.15zm4.19 13.91a.46.46 0 0 1 .09-.55l-.06.58zm-.69 3.57h0l-.38 1.09a18.25 18.25 0 0 1-1.13 2.42v.08a18.64 18.64 0 0 1-34.19-14.3v-.07h0c0-.09 0-.19.08-.28v-.13a1.39 1.39 0 0 1 .06-.19v-.06h0l.19.1a.73.73 0 0 1 .26.09.41.41 0 0 1 .07.11 1.43 1.43 0 0 1 .12.21.73.73 0 0 1 0 .2 2.09 2.09 0 0 1 .08.34c0 .07 0 .24-.1.26s-.12-.16-.14-.22a.57.57 0 0 0-.11-.22.77.77 0 0 0-.31-.22.49.49 0 0 0-.29-.08c0 .07.09.19.12.27s.06.32.12.47a.83.83 0 0 1 .07.38 2.1 2.1 0 0 1-.09.5c0 .16 0 .33-.11.49a3 3 0 0 0-.16.56 1.12 1.12 0 0 0 0 .41.59.59 0 0 0 0 .22 2.72 2.72 0 0 0 .34.42 1.33 1.33 0 0 1 .17.43.43.43 0 0 0 .09.22c0 .05.09.06.13.1a.54.54 0 0 1 .1.16c0 .09.1 0 .16.25a5.64 5.64 0 0 0 .24.87.87.87 0 0 0 .29.47c.12.11.28.35.46.37 0-.14-.23-.22-.29-.36s0-.11-.08-.16a.87.87 0 0 0-.16-.17c-.12-.14-.1-.33-.14-.5a2 2 0 0 1 0-.55 1.71 1.71 0 0 1 .16.29 5.78 5.78 0 0 1 .52.59 1.17 1.17 0 0 0 .36.48c.1.1 0 .23 0 .36a1.4 1.4 0 0 0 0 .29c0 .13.06.16.16.22a2.92 2.92 0 0 0 .37.24.69.69 0 0 0 .32.24c.15.08.21.3.38.17s.23-.29.35-.23.11.22.24.27a1.89 1.89 0 0 0 .47.06c.2 0 .22.18.31.37a1.54 1.54 0 0 1 .24 0c.11 0 .24 0 .32.07s.06.3.09.44a.38.38 0 0 0 .09.18c.06.07.11.05.2.05a1.21 1.21 0 0 0 .38 0 1.25 1.25 0 0 1 .26-.07.25.25 0 0 1 .19 0h0 0l.09.05v.05a.76.76 0 0 0 0 .15.09.09 0 0 0 0 0l.06.06a.12.12 0 0 1-.08.13h-.09l-.09.06h0L77 46h0a.34.34 0 0 0-.1.16v.16h0s-.07.06-.08.09a.15.15 0 0 0 0 .07v.07a.47.47 0 0 0-.07.12.11.11 0 0 0 0 .08.09.09 0 0 1 0 .09c0 .06-.06.11 0 .18a.1.1 0 0 0 0 .06.24.24 0 0 1 .08.09v.07h0v.06a.14.14 0 0 1 0 .06.36.36 0 0 0 0 .11.23.23 0 0 0 0 .14h0a1.52 1.52 0 0 0 .2.55c0 .08.12.15.17.23l.16.26a.91.91 0 0 0 .2.24 1.73 1.73 0 0 0 .24.1.66.66 0 0 1 .24.11c.08.09.07.23.16.32a2.17 2.17 0 0 1 .3.23 8.71 8.71 0 0 0 .22 1.34 2 2 0 0 1 .1.48.93.93 0 0 0 0 .44 3.63 3.63 0 0 1-.1.66c0 .18 0 .36-.07.55a2.64 2.64 0 0 1 0 .28.35.35 0 0 0-.08.13v.21.39a7.17 7.17 0 0 1 .11.81v.79a2.21 2.21 0 0 0 .31.56 1.74 1.74 0 0 0 .71.55c.08 0 .23.1.38.11a.89.89 0 0 0 .52.14c0-.13-.1-.17-.19-.23s-.24-.11-.28-.24a.49.49 0 0 0-.2-.25s-.13 0-.19-.09a.16.16 0 0 1-.08-.06h-.08a1.85 1.85 0 0 1 0-.23.94.94 0 0 1 .06-.29c0-.06.07-.1.09-.15a.53.53 0 0 0 0-.25v-.38a1.37 1.37 0 0 1 .06-.57 2.46 2.46 0 0 1 .51-.73 1.36 1.36 0 0 1 .17-.17c.07-.06.16-.06.22-.13a.63.63 0 0 0 .08-.23 1.29 1.29 0 0 0 .08-.28.78.78 0 0 0-.14-.41h.14.24a.52.52 0 0 0 .3-.06c.07 0 .08-.13.13-.19l.12-.1a.61.61 0 0 1 .15-.17.24.24 0 0 0 .08-.06 1.59 1.59 0 0 0 .25-.6 2.81 2.81 0 0 1 .3-.6.73.73 0 0 1 .33-.27 1.34 1.34 0 0 0 .4-.23c.13-.1.15-.25.24-.38a.62.62 0 0 0 .14-.25 2.06 2.06 0 0 0 0-.43 1.26 1.26 0 0 0 0-.28 1.06 1.06 0 0 1 0-.31.29.29 0 0 1 .17-.26 1.37 1.37 0 0 0 .27-.22c.13-.14.35-.41.27-.62s-.1-.11-.18-.14l-.13-.07a.41.41 0 0 0-.16 0h-.08 0c0-.15-.13-.16-.25-.19a1.87 1.87 0 0 1-.25 0l-.34.03c-.08 0-.15-.07-.22-.09a.61.61 0 0 1-.23-.11c-.08-.1-.05-.24-.17-.31s-.31-.08-.43-.15a.15.15 0 0 0 0-.13.35.35 0 0 0-.18-.13c0-.09-.07-.19-.11-.27s-.35-.27-.62-.28a2 2 0 0 0-.43-.33H80a.56.56 0 0 1-.34-.06s0-.1-.11-.13a1.86 1.86 0 0 1-.23-.13 1.48 1.48 0 0 1-.25-.3c0-.07-.06-.08-.13-.08s-.16.08-.23.15-.11.16-.16.08 0-.27-.11-.28a1.43 1.43 0 0 1-.29 0 .33.33 0 0 0-.22 0 1.35 1.35 0 0 0-.45.44c-.05.07-.19.28-.29.22s-.07-.08-.11-.1-.08-.06-.12-.06-.21.09-.32.1a.41.41 0 0 1-.29 0s-.09 0-.1-.08 0-.19.06-.25a1 1 0 0 0 .08-.63c-.06-.15-.28-.14-.39-.07s-.24.28-.41.22v-.34c0-.12-.11-.13 0-.25a2.55 2.55 0 0 1 .27-.4c.07-.11 0-.15-.1-.2s-.19-.12-.3-.08-.13.17-.19.26a1.48 1.48 0 0 1-.26.24c-.12.1-.26.27-.43.23s-.22-.19-.28-.27-.13-.11-.11-.22a1.94 1.94 0 0 0 .07-.33v-.14a1.17 1.17 0 0 0 0-.32 1.22 1.22 0 0 1 0-.17c0-.17.15-.62.39-.5a1.16 1.16 0 0 0 .47.2c.11 0 .25 0 .23-.13s-.11-.22 0-.28.3 0 .41 0 .14-.1.24-.14a.42.42 0 0 1 .27 0 .51.51 0 0 1 .3.34c0 .13.12.24.17.38s.1.15.16 0a1.6 1.6 0 0 0 .09-.53 1 1 0 0 1 .12-.56.85.85 0 0 1 .3-.26 2.64 2.64 0 0 0 .3-.1.34.34 0 0 0 .16-.36.77.77 0 0 1 0-.37c0-.1.18-.15.26-.22a4.49 4.49 0 0 0 .7-.68c.11-.13.21-.26.4-.27a1.48 1.48 0 0 0 .47-.06c.09 0 .47-.19.39-.33s-.23-.09-.28-.18.13-.26.21-.31.18-.11.16-.25-.15-.14-.28-.14a1.43 1.43 0 0 0-.39.11.59.59 0 0 1-.23 0 1.33 1.33 0 0 1 .17-.16 1.24 1.24 0 0 1 .22-.18c.16-.07.35-.1.52-.16a1.35 1.35 0 0 1 .45 0h.23.26a.65.65 0 0 0 .43-.07c.08-.07 0-.19 0-.27a2.49 2.49 0 0 1-.15-.28 1.47 1.47 0 0 0-.24-.37 4 4 0 0 1-.24-.33.29.29 0 0 1 0-.27c0-.1.19-.55 0-.58s-.1 0-.14.07a.75.75 0 0 1-.24.15c-.22.06-.41-.17-.49-.35a2.49 2.49 0 0 1-.09-.46.54.54 0 0 0-.29-.35h-.32c-.06 0 0 .1 0 .16a.53.53 0 0 1-.18.26.78.78 0 0 0-.25.35c0 .2.08.41.08.6a.58.58 0 0 1 0 .29c-.07.13-.19.22-.26.35a1.66 1.66 0 0 0-.12.31.65.65 0 0 1-.63.68.22.22 0 0 1-.26-.06.53.53 0 0 1 0-.18 1.21 1.21 0 0 0 0-.57c0-.08-.08-.07-.15-.1a.46.46 0 0 1-.16-.15c-.09-.1-.13-.24-.23-.34s-.28-.09-.47-.11-.12-.07-.2-.11h0a.14.14 0 0 1 0-.06 1 1 0 0 1 0-.18.73.73 0 0 1 0-.25.16.16 0 0 1 .12-.14.52.52 0 0 1-.1-.27.39.39 0 0 1 .1-.31c.17-.2.48-.16.68-.29a.49.49 0 0 0 .17-.18.83.83 0 0 1 .07-.13 1.29 1.29 0 0 0 .09-.16v-.08a.27.27 0 0 1 .22-.08c.09 0 .26 0 .3-.13a.58.58 0 0 0 0-.19.23.23 0 0 1 .1-.23.37.37 0 0 0 .22-.15.24.24 0 0 0 0-.17.34.34 0 0 1 0-.2.18.18 0 0 1 .19 0c.07 0 .12.13.2.17s.09 0 .13-.05a.48.48 0 0 0 .14-.25v-.19a.4.4 0 0 0-.38 0 .42.42 0 0 0-.2.1c-.08.07-.13.15-.21.21s-.14.09-.21 0a1.08 1.08 0 0 1-.19-.35v-.22c0-.06-.16 0-.23 0a.44.44 0 0 0-.15.08c-.05 0-.07.11-.11.16a.31.31 0 0 1-.22.14.3.3 0 0 1-.24-.11.21.21 0 0 0-.25 0 .44.44 0 0 1-.38.08.75.75 0 0 1-.24-.19.45.45 0 0 0-.69-.05.38.38 0 0 0-.12.28.51.51 0 0 1-.38-.2.47.47 0 0 1-.08-.3.39.39 0 0 0-.14-.29c-.07 0-.17 0-.24-.07s-.06-.14-.07-.21-.1-.25-.26-.25a1.2 1.2 0 0 0-.32.06c-.12 0-.17 0-.23-.13a1.51 1.51 0 0 0-.11-.22A18.68 18.68 0 0 1 88.24 23a18.43 18.43 0 0 1 12.13 4.49.09.09 0 0 0 0 .06c0 .08 0 .19.09.25s.06.06.08.1 0 .1 0 .16 0 .2.06.22.18-.06.18-.08a1.37 1.37 0 0 0 .2-.22l.37.35a1 1 0 0 0-.08.14 1.7 1.7 0 0 1-.09.24 1.07 1.07 0 0 1-.16.14 3.7 3.7 0 0 1-.74.38c-.17.08-.41.16-.44.37a.74.74 0 0 0 .11.44c.06.15 0 .21-.11.28s-.29.19-.23.4a.69.69 0 0 0 .2.35c.06.08.24.23.07.28a.78.78 0 0 1-.4-.06c-.11 0-.17-.14-.25-.22S99 31 99 30.94c-.23.1-.14.34-.09.53a.55.55 0 0 0 .07.25 1.62 1.62 0 0 0 .19.18.82.82 0 0 0 .22.16c.06 0 .14 0 .19.09s0 .24 0 .34a1.23 1.23 0 0 1-.13.41.76.76 0 0 1-.26.3c-.08 0-.35.06-.38 0s.09-.12.13-.15a2.52 2.52 0 0 0 .21-.25.83.83 0 0 0 .14-.53.84.84 0 0 0-.25-.37c-.07-.06-.18-.08-.25-.14a.63.63 0 0 1-.13-.35 1.9 1.9 0 0 0-.2-.61c0-.09-.09-.17-.2-.15a.33.33 0 0 0-.26.17 1.07 1.07 0 0 0 .16.75c.12.21.28.4.41.6s.23.33 0 .35-.12-.15-.18-.23a.26.26 0 0 0-.33 0h-.08a.27.27 0 0 0-.12-.06.36.36 0 0 0-.27 0s-.08.07-.13.09-.08 0-.11 0h-.06a.4.4 0 0 0-.13.13c-.05.08-.05.11-.15.15h-.28a2.25 2.25 0 0 0-.56.12.72.72 0 0 0-.29.26.92.92 0 0 0-.16.31h0-.13a.44.44 0 0 0-.15.05h-.05a.17.17 0 0 1-.1 0 .21.21 0 0 0-.16.14.56.56 0 0 1 0 .12.87.87 0 0 1-.09.11 1.19 1.19 0 0 0-.11.26.38.38 0 0 1-.19.16 1.72 1.72 0 0 1-.21.07s-.06.05-.08.09 0 .07-.05.1a.18.18 0 0 1-.1 0c.13-.15.39-.23.4-.47s-.15-.28-.27-.4h.26a.64.64 0 0 0 .33-.18s.06 0 .07-.08 0-.05 0-.08a.23.23 0 0 0 0-.14.32.32 0 0 0-.12-.08h-.17c-.05 0-.08-.07-.11-.11s0-.13 0-.19a.54.54 0 0 0-.07-.13.45.45 0 0 0-.26-.22.21.21 0 0 0-.13-.1l-.07-.07a.6.6 0 0 0-.43-.09 1.4 1.4 0 0 0-.68.27 2.39 2.39 0 0 1-.32.16 1.53 1.53 0 0 0-.39.18 3.5 3.5 0 0 0-.58.36 2.49 2.49 0 0 0-.36.43c-.09.12-.08.17-.08.35s-.35.29-.51.46a1 1 0 0 0-.22.34 4.72 4.72 0 0 0-.15.65c0 .09-.17.34 0 .39a1.37 1.37 0 0 0 .35 0 1.7 1.7 0 0 1 .22 0 .48.48 0 0 1 .2 0 .65.65 0 0 1 .28.33c0 .1.13.23.26.23a.84.84 0 0 0 .66-.3c.14-.19-.13-.42-.17-.59a1.39 1.39 0 0 1 0-.64 1 1 0 0 1 .13-.34 2 2 0 0 1 .31-.44c.18-.17.29-.06.37.13a.34.34 0 0 1-.06.32c-.07.12-.2.21-.28.34a1.71 1.71 0 0 0-.14.27c0 .12.12.25.24.28a1 1 0 0 0 .41-.08 1.83 1.83 0 0 1 .33 0 .34.34 0 0 1 .24.07s.1.06.06.12-.35.06-.47.11a.64.64 0 0 0-.2.11.27.27 0 0 0 0 .09v.14a.75.75 0 0 1-.26.41 1.33 1.33 0 0 1-.58.29 1 1 0 0 0-.46.16.37.37 0 0 1-.19.09.44.44 0 0 1-.2 0 1 1 0 0 0-.49 0c-.15.06-.18.19-.28.29a4.79 4.79 0 0 1-.52.49 1 1 0 0 1-.4.24.57.57 0 0 0-.39.16.27.27 0 0 0 0 .32.47.47 0 0 1 .1.35c0 .12 0 .23-.08.31s-.17 0-.26 0a1 1 0 0 0-.42 0 .09.09 0 0 0 0 .1h0a.29.29 0 0 0-.13 0 .11.11 0 0 0-.07.09v.23a.17.17 0 0 1 0 .1h-.07a.48.48 0 0 0-.09.45.53.53 0 0 0 .07.2s0 .06.07.1 0 .05 0 .06.27 0 .32 0 .11-.12.19-.1.08.06.13.07a.51.51 0 0 0 .3-.06 1.11 1.11 0 0 0 .3-.17 1.59 1.59 0 0 0 .25-.33 3.29 3.29 0 0 0 .09-.43c0-.15.07-.25.24-.22s.18.11.27 0 .2-.23.32-.29.19 0 .27.07a.52.52 0 0 1 .21.23 1.42 1.42 0 0 0 .05.16c0 .05 0 0 .08.06a1.6 1.6 0 0 0 .32.2c.12.05.22.12.25.22s-.26.53-.11.56.13-.06.16-.08a.55.55 0 0 0 .15-.19.89.89 0 0 0 .09-.39.18.18 0 0 0-.13-.2 2.3 2.3 0 0 1-.33-.21.35.35 0 0 1-.17-.17c-.05-.15 0-.24-.24-.39.14-.18 0-.23.11-.24a.3.3 0 0 1 .1 0c.12.07.18.2.27.29s.2.09.29.15a.75.75 0 0 0 .2.15.29.29 0 0 1 .17.17 2.91 2.91 0 0 0 .15.56c0 .1.17.43.33.37s0-.21 0-.31 0-.25.17-.3.27 0 .38-.07a.34.34 0 0 0 .18-.31.85.85 0 0 1 .14-.49c.08-.13.16-.32.34-.28a.28.28 0 0 1 .18.12s.07.12.11.12.06-.07.08-.11a.47.47 0 0 1 .15-.13c.07 0 .48-.24.52-.1s-.1.14-.13.18-.17.13-.14.25.11-.14.2-.16a.2.2 0 0 1 .17 0 .37.37 0 0 1 .2.24.63.63 0 0 1 .24 0s.14 0 .18.09a1 1 0 0 1 .07.31c0 .07-.07.27 0 .29a.6.6 0 0 0-.08.08l-.08-.06-.2-.09a1 1 0 0 0-.56-.11 1.39 1.39 0 0 0-.45.09 1.53 1.53 0 0 1-.43 0 .5.5 0 0 0-.36.47c0 .11.16.17.26.21l.23.07a2.27 2.27 0 0 1 .31.17c.14.06.28 0 .39.13a.38.38 0 0 1 .15.29.91.91 0 0 1-.14.34.44.44 0 0 1-.17.16c-.17.08-.28 0-.44 0a.85.85 0 0 0-.22 0h-.06a1.27 1.27 0 0 0-.64-.26c-.23 0-.45.08-.68.08a1.7 1.7 0 0 0 0 .22.92.92 0 0 1 0 .37.27.27 0 0 1-.16.2c-.08 0-.12 0-.18-.06s-.16-.09-.21-.19l-.16-.24-.18-.2c-.06-.05-.15-.07-.22-.12a1 1 0 0 0-.72.09c-.12 0-.33 0-.31-.21s.21-.2.29-.29-.2-.24-.29-.25a.94.94 0 0 0-.52.11l-.5.21a.87.87 0 0 1-.48 0 .69.69 0 0 0-.32 0 .85.85 0 0 1-.35.09c-.28.25-.67.53-.57.95 0 .17-.24.26-.35.34a2 2 0 0 0-.26.24 1.07 1.07 0 0 0-.34.39c0 .11 0 .21-.07.32a1.34 1.34 0 0 0-.13.4 4.89 4.89 0 0 0 0 .55.79.79 0 0 0 .08.43 3.33 3.33 0 0 0 .25.28 2.47 2.47 0 0 1 .14.41.72.72 0 0 0 .24.25.29.29 0 0 0 .15.09.32.32 0 0 1 .19 0c.06 0 .09.11.14.16s.13.06.19.1l.15.1a.44.44 0 0 0 .3 0 .5.5 0 0 1 .24 0 .65.65 0 0 0 .31 0h.16a1.2 1.2 0 0 0 .27-.08.74.74 0 0 1 .33-.05c.06 0 .09.12.17.1a.46.46 0 0 1 0-.23c0-.06.09 0 .16 0a1 1 0 0 1 .22.23c.06.09.07.22.18.25s.31 0 .37.13 0 .29-.06.43-.17.28 0 .4a.94.94 0 0 1 .12.09l.08.11c.09.08.2.09.22.22a2.34 2.34 0 0 0 .09.54 2.45 2.45 0 0 1 .26.51.62.62 0 0 1-.23.62.49.49 0 0 0-.19.26c0 .13 0 .15.13.28s.18.23.24.36a3.16 3.16 0 0 1 .14.86 2.88 2.88 0 0 0 .11.42 2.56 2.56 0 0 0 .22.35 2.85 2.85 0 0 0 .16.3.7.7 0 0 1 .06.35 1.23 1.23 0 0 1 0 .33v.22c0 .05.34 0 .43-.06a2.39 2.39 0 0 0 .37-.15 1.85 1.85 0 0 1 .33-.21 1.27 1.27 0 0 0 .23-.12 2.23 2.23 0 0 0 .57-.44 1.88 1.88 0 0 0 .44-.64c0-.16 0-.29.19-.36s.27-.1.27-.25a.93.93 0 0 0 0-.24 1.06 1.06 0 0 1 0-.35c0-.18.19-.35.31-.46a1 1 0 0 1 .27-.17.55.55 0 0 0 .3-.2.71.71 0 0 0 .14-.32v-.13-.3a.71.71 0 0 0-.14-.39 1.59 1.59 0 0 0-.13-.22.65.65 0 0 1-.13-.16.2.2 0 0 1 0-.21l.24-.35a1.92 1.92 0 0 0 .18-.22 2 2 0 0 0 .12-.19 2 2 0 0 1 .33-.24 2.48 2.48 0 0 1 .26-.19 3.4 3.4 0 0 0 .25-.31l.7-.78a.6.6 0 0 0 .14-.21c0-.13-.25-.09-.32-.08a1.49 1.49 0 0 0-.51.19 1.47 1.47 0 0 1-.65.15c-.13 0-.18-.1-.26-.2a.22.22 0 0 1-.08-.13v-.21c0-.07 0 0-.06-.09a.23.23 0 0 1 0-.14.79.79 0 0 1 0-.13 1.22 1.22 0 0 1 0-.17c0-.13-.12-.17-.22-.24a.9.9 0 0 1-.42-.56.65.65 0 0 0-.27-.34.4.4 0 0 1-.21-.25 1.28 1.28 0 0 1 0-.34 1 1 0 0 0 0-.24.36.36 0 0 1 .18 0 .69.69 0 0 1 .46.29 5.62 5.62 0 0 1 .19.58c.08.19.19.36.28.55a1.73 1.73 0 0 0 .3.41c.09.11.12.23.23.32s.1.34.13.53c.09 0 .26-.09.33-.14s.27-.25.41-.35.32-.32.58-.34c.25-.27.46-.26.64-.45a2.14 2.14 0 0 0 .34-.49.58.58 0 0 0 .07-.28c0-.09-.13-.12-.2-.13a1.45 1.45 0 0 0-.3 0c-.1 0-.18 0-.19-.1s0-.16 0-.2-.21 0-.27 0-.47.35-.6 0a.9.9 0 0 1-.08-.23c0-.11-.06-.15-.13-.24s-.27-.25-.29-.4a.39.39 0 0 1 .11-.22v-.06a2.6 2.6 0 0 0 .3.36c.11.1.12.16.25.18a1.14 1.14 0 0 1 .37.05l.11.07a1.75 1.75 0 0 1 .32.12s.08.1.13.11h.09a1.79 1.79 0 0 1 .33 0 5.32 5.32 0 0 1 .57.16c.16 0 .32 0 .41.19s0 .34.17.45.21 0 .33 0a.37.37 0 0 1 .18 0c.08 0 .07.17.14.23s.23-.07.28-.19.27-.48.35-.35 0 .14 0 .18c0 .19-.06.39-.1.58a.86.86 0 0 0 0 .39s.1.09.14.14a1.18 1.18 0 0 0 .13.18h.09a.26.26 0 0 1 .13.2v.6a.74.74 0 0 0 .28.33.34.34 0 0 0 .41 0c.15-.15.11-.39.1-.58A.76.76 0 0 1 103 44a4 4 0 0 1 .35-.49 1.36 1.36 0 0 1 .37-.31.8.8 0 0 0 .21-.15 1.8 1.8 0 0 1 .11-.2c.1-.13.36-.28.46-.06s0 .24 0 .35a1.31 1.31 0 0 0 .12.27c.21.31.37-.26.58-.06a1 1 0 0 0 .14.15c.06 0 .08 0 .1.12a2.4 2.4 0 0 1 0 .28v.15a.44.44 0 0 0 .19.27.08.08 0 0 0 0 0 .84.84 0 0 0 .06.14.76.76 0 0 1 .08.21.49.49 0 0 1 0 .12v.13.24a.28.28 0 0 0 0 .12c0 .14 0 .21.09.32a1.72 1.72 0 0 0 .09.19.53.53 0 0 0 .14.12c.06.06.1.12.15.18v.1l-.14-.05c-.08 0-.08-.1-.16-.14s-.1 0-.15-.07 0 0-.09-.06h-.07l-.07-.06-.34-.31c0 .06-.09.12-.05.23s.18.18.26.26.06.22.15.3.09.07.13.12a.5.5 0 0 0 .13.12h.15a.56.56 0 0 1 .07.16h0l-.09.28.08.23z"/><path d="M77.81 43h-.07 0l-.07-.05h0-.22a2.51 2.51 0 0 1-.27 0 .12.12 0 0 1-.11 0v-.07c0-.07 0 0-.07 0h-.1a.27.27 0 0 0-.12 0h-.09a.33.33 0 0 0-.19.06c-.06-.07-.1 0-.14 0a.28.28 0 0 0 .13 0 .17.17 0 0 1 .1 0v.13c0 .04.1 0 .17 0a.39.39 0 0 1 .15 0h.07.13.06.11.06.12.09a.21.21 0 0 1 .11 0s0 .06.09.05a.37.37 0 0 0 .18-.05V43z"/><path d="M78.82 43.41a.13.13 0 0 0-.08 0h-.12-.07-.13l-.07-.07h-.11a.15.15 0 0 0-.1.12l.16.2h.13.09c.02 0 .06.06.1.08a.21.21 0 0 0 .2 0 .2.2 0 0 0 .07-.06s-.05-.25-.07-.27zm18.96 5.28h-.19a3.24 3.24 0 0 1-.28.47h-.08-.07a.25.25 0 0 0-.26.05c-.08 0-.1.07-.1.16v.27a2.09 2.09 0 0 1 0 .25 1.89 1.89 0 0 1-.11.25c0 .08-.06.17-.1.25a.54.54 0 0 0-.1.3c0 .46.78.14.69-.15a1.43 1.43 0 0 0 .31-.6c0-.1.09-.19.11-.29a1.31 1.31 0 0 1 .06-.27l.14-.25c0-.07.09-.11.07-.19a.27.27 0 0 0-.09-.25zM88.9 36.28s.08.08.1.14 0 .22 0 .32.06.16.07.24a.53.53 0 0 1 0 .25l-.08.09a.41.41 0 0 0-.07.15c0 .11 0 .15.08.19s.16.1 0 0a3 3 0 0 0 .82-.2s.17-.07.19-.14-.25-.27-.34-.3-.29-.12-.33-.26a.58.58 0 0 0-.1-.19 1 1 0 0 1-.08-.18c0-.11.09-.12.15-.19a.23.23 0 0 0 0-.18c0-.16-.34-.25-.45-.11a.31.31 0 0 0 0 .25.59.59 0 0 0 .04.12z"/><path d="M88.35 36.59a.52.52 0 0 0-.08.37.42.42 0 0 1 0 .16c0 .07-.14.1-.15.18s.14.13.22.14.15 0 0-.09l.47-.5c-.08 0-.08-.1-.09-.14a1.15 1.15 0 0 0-.14-.17c-.05-.09-.15-.04-.23.05zM96.41 32c.06 0 .09.12.15.14s.11 0 .16 0 .21-.11.1-.21a2.65 2.65 0 0 1-.44-.56.88.88 0 0 0 .09-.43.51.51 0 0 1 .1-.29A2.41 2.41 0 0 1 97 30c.11-.09.26-.11.37-.21s.3-.38-.19-.4c-.12 0-.24.2-.32.3a9 9 0 0 1-.64.73 1.51 1.51 0 0 0-.43 1.19c.05.39.42.25.62.39zm-7.86-4.16a.49.49 0 0 0-.55-.21 1.33 1.33 0 0 0-.21.09l-.14.07a.46.46 0 0 1-.17 0h-.1a.44.44 0 0 1-.18 0 0 0 0 0 0 0 0l-.06-.06h0v-.13a.49.49 0 0 0 0-.12h0 0a.4.4 0 0 1 .15-.1h.06c.17 0 .31-.09.33-.2a.16.16 0 0 0-.08-.15.94.94 0 0 0-.32-.15h-.06a1.56 1.56 0 0 0-.45-.1.91.91 0 0 1-.27-.05.57.57 0 0 0-.54.25h0c-.08.09-.29.09-.43.08h-.07a2.74 2.74 0 0 0-1 .15.88.88 0 0 0-.37.24l-.06.08a.65.65 0 0 1-.11.12.37.37 0 0 1-.21 0h0a1.2 1.2 0 0 0-.53.14 1 1 0 0 0-.3.26.67.67 0 0 0-.15.32c0 .12-.17.24-.41.33a.4.4 0 0 0-.27.37.8.8 0 0 0 0 .15.64.64 0 0 1 0 .07.21.21 0 0 1 0 .13h0a1 1 0 0 0 0 .18.18.18 0 0 0 .1.18.14.14 0 0 0 .16-.07h.09l.42.18h0a.47.47 0 0 0 .1.1.7.7 0 0 1 .13.44 1 1 0 0 0 .19.5 1 1 0 0 0 .08.14.57.57 0 0 1 .06.21.62.62 0 0 1-.12.2.86.86 0 0 1-.07.1.75.75 0 0 0-.12.5.58.58 0 0 0 .24.27h.06s.08 0 .09.06 0 .11-.16.27l-.09.09a1.28 1.28 0 0 0-.29.37.54.54 0 0 0 0 .41.5.5 0 0 0 .21.22l.1.08v.17a1.36 1.36 0 0 0-.09.36h0a.8.8 0 0 0 0 .43.87.87 0 0 0 .34.29.79.79 0 0 0 .24.05.37.37 0 0 0 .31-.15.72.72 0 0 0 .1-.22 1.17 1.17 0 0 0 .05-.11h0a2.53 2.53 0 0 1 .2-.36 1.38 1.38 0 0 1 .34-.28 1.71 1.71 0 0 0 .27-.2 1.43 1.43 0 0 0 .19-.24.9.9 0 0 1 .22-.25.27.27 0 0 1 .16 0h.11a4.34 4.34 0 0 0 .66-.18c.16 0 .54-.21.59-.56a3.32 3.32 0 0 1 .08-.41.56.56 0 0 1 0-.12s0-.09.05-.13a.71.71 0 0 0 0-.33v-.06a1.11 1.11 0 0 1 0-.4.32.32 0 0 1 .14-.22l.08-.07a.59.59 0 0 0 .2-.18.44.44 0 0 0 0-.22v-.06-.13-.2V30a.44.44 0 0 1 .07-.28.21.21 0 0 0 0-.06.56.56 0 0 0 .14-.29l.06-.28a.62.62 0 0 0 0-.13.31.31 0 0 1 0-.1 1.56 1.56 0 0 1 .16-.28.26.26 0 0 1 .14-.11.61.61 0 0 0 .14-.07l.19-.08c.07 0 .17-.07.2-.16a.41.41 0 0 0-.02-.32zm-7.05 5.41a.63.63 0 0 0 .17-.31c0-.13-.08-.22-.14-.33a.5.5 0 0 0-.14-.15s-.12 0-.18-.07a.57.57 0 0 1-.21-.29c-.06-.13 0-.23 0-.37a.55.55 0 0 0-.15-.36 1 1 0 0 0-.14-.15.6.6 0 0 0-.11-.06 2.61 2.61 0 0 1-.36-.53c0 .1 0 0-.11 0s-.15 0-.18-.05 0-.19.06-.26a.37.37 0 0 0 0-.21.31.31 0 0 0-.3.11c-.14.16-.32.26-.45.42s-.12.17-.19.12 0-.21 0-.28a.4.4 0 0 1 0-.19c0-.11.17-.25.17-.36-.31 0-.55.44-.67.49-.15.24-.15.22-.07.29s.07.07.07.12v.22a2.35 2.35 0 0 0 0 .27c0 .21.17.42.4.32.07 0 .13-.11.21-.14a.5.5 0 0 1 .24 0 .31.31 0 0 1 .15.08c0 .07 0 .09.13.13s.16.3.16.47a.48.48 0 0 0 0 .24.22.22 0 0 1 0 .25 3.44 3.44 0 0 1-.65.55s-.27.16-.28.21 0 0 0 .06.11 0 .13 0h.21c.15 0 .37 0 .44.15s.13.18.18.29 0 .1.09.13.1 0 .14 0a.91.91 0 0 0 .17.09l.33.1a.23.23 0 0 0 .32-.27c0-.1-.13-.17-.21-.22a.44.44 0 0 1-.17-.23c-.05-.15 0-.44.17-.46a.5.5 0 0 1 .26.08l.26.1c.06 0 .1.08.17.05a.32.32 0 0 0 .08-.05z"/><path d="M79 28.66c-.22 0-.24.17-.24.36s0 .32.15.39.36-.05.47.12.11.24.29.26.18 0 .28 0h.14c.07 0 .22 0 .23-.11a.39.39 0 0 0-.17-.26 1.06 1.06 0 0 0-.39-.09.5.5 0 0 1-.24-.12s-.15-.1-.14-.16.46-.1.56-.1c.34 0 .5.17.81.36-.13 0-.16.14-.07.17a.41.41 0 0 0 .22 0c.09 0 .06-.16 0-.23s-.1-.19 0-.27.26-.08.37-.15 0-.22 0-.31c0-.29.07-.27.54-.6a.84.84 0 0 1 .14-.06c.16-.05.31-.13.47-.18s.26 0 .3-.14-.15-.06-.2-.07a.24.24 0 0 1-.14-.1c-.1-.16.2-.22.3-.23s.23 0 .35.06a.71.71 0 0 0 .28-.09c.21-.09.47-.07.65-.25a.39.39 0 0 0-.08-.55c-.08-.06-.16-.16-.26-.18a2 2 0 0 0-.55 0h-.91a1.34 1.34 0 0 0-.77-.07 1.4 1.4 0 0 0-.4.11s-.18.07-.2.11a.25.25 0 0 0 0 .12v.26c0 .09 0 .08.08.14s0 .13 0 .22 0 .06-.07.08a.44.44 0 0 1-.23 0c-.12 0-.1-.15-.1-.26a1.14 1.14 0 0 1 0-.26s.12-.16.09-.21a1 1 0 0 0-.29.06 2 2 0 0 0-.22.09 1.25 1.25 0 0 0-.36.4 3.62 3.62 0 0 0-.22.32c-.07.13-.23.55 0 .62a1.27 1.27 0 0 0 .39 0 1.33 1.33 0 0 1 .2 0 .27.27 0 0 1 .23.23.6.6 0 0 1-.07.34c0 .09-.15.09-.24.1a1.25 1.25 0 0 0-.26.07 2.12 2.12 0 0 1-.2.12.24.24 0 0 1-.27 0s-.07-.08-.13-.1a.86.86 0 0 0-.12.04zm0-.85a1.18 1.18 0 0 0 .07-.2.26.26 0 0 0 0-.24s-.16-.12-.21-.11-.13.14-.18.18a.58.58 0 0 0-.1.12c0 .06 0 .13-.06.19a1.48 1.48 0 0 0 .44.25.41.41 0 0 1 .04-.19zm-.53.84a1.67 1.67 0 0 0-.31.34v.06c0 .01-.08 0-.1 0s-.08-.21-.14-.31-.1 0-.14 0a.38.38 0 0 0 0 .37.44.44 0 0 0 .23.17.43.43 0 0 0 .33-.06c.08 0 .13 0 .18-.11a.44.44 0 0 0-.05-.46zM78 29.78a1.38 1.38 0 0 0-.57.11v.31a.36.36 0 0 1-.07.26c0 .05-.1.13-.07.2s.22.08.29 0a.65.65 0 0 0 .26-.23c0-.09 0-.17.13-.22s.17-.05.22-.15a.23.23 0 0 0-.19-.28zm-1.25.27c.08-.07.13-.06.22-.1a.37.37 0 0 0-.09-.25c-.11-.1-.24 0-.32.1s-.14.21-.22.25-.24-.05-.3-.13-.06-.11-.1-.16-.08 0-.14-.06-.06-.07-.08-.15 0-.17-.07-.26 0-.32-.2-.41a.38.38 0 0 0-.45 0 1.06 1.06 0 0 0-.45.89.84.84 0 0 0 .22.44.63.63 0 0 0 .11.12.46.46 0 0 0 .2.05c.34.07 0 .46-.07.64s0 .18.07.22a.66.66 0 0 0 .47-.07c.12-.05.35-.21.5-.14a.32.32 0 0 1 .1.1.56.56 0 0 0 .17.09 1 1 0 0 0 .48 0s.1 0 .09-.09 0 0 0 0-.06-.06 0-.18a2.12 2.12 0 0 1-.3-.67c.05-.03.08-.15.16-.23zm5.19 7.56c-.1 0-.25.06-.37 0s-.2-.1-.2-.15a2.23 2.23 0 0 0-.49.24.18.18 0 0 0-.16.08c0 .07 0 .08.07.12s.13.15.21.15h.14c.2-.09.4 0 .61 0s.18 0 .23-.13.02-.26-.04-.31zm5.9-3.61c0-.09.07-.33 0-.37s-.34.1-.42.16a.28.28 0 0 1-.2.08h-.1a1.7 1.7 0 0 0-.46 0c-.07 0-.24 0-.26.15a.38.38 0 0 0 .17.33.42.42 0 0 0 .39 0 4.42 4.42 0 0 1 .5-.1.88.88 0 0 0 .38-.25z"/></g><path d="M88.24,23.27a18.4,18.4,0,1,1-18.39,18.4,18.42,18.42,0,0,1,18.39-18.4m0-.84a19.24,19.24,0,1,0,19.24,19.24A19.23,19.23,0,0,0,88.24,22.43Z" fill="#fff"/></svg>
