<svg xmlns="http://www.w3.org/2000/svg" xmlns:xlink="http://www.w3.org/1999/xlink" viewBox="0 0 405.83 88.09"><g fill="#fff"><path d="M141.02 28.79c0 1.52-.26 2.93-.78 4.23-.52 1.29-1.24 2.41-2.14 3.34s-1.99 1.67-3.26 2.2c-1.26.53-2.63.8-4.1.8s-2.95-.27-4.27-.81-2.47-1.28-3.45-2.22c-.97-.94-1.74-2.04-2.3-3.31s-.84-2.64-.84-4.11.28-2.84.84-4.11 1.32-2.38 2.29-3.31 2.1-1.67 3.42-2.22c1.31-.54 2.72-.81 4.23-.81 1.72 0 3.34.36 4.86 1.07s2.77 1.68 3.73 2.9l-3.5 3.16c-.66-.83-1.42-1.46-2.29-1.9a6.11 6.11 0 0 0-2.81-.65c-.81 0-1.56.15-2.26.45a5.35 5.35 0 0 0-1.78 1.23c-.49.52-.88 1.14-1.17 1.87s-.43 1.5-.43 2.33a6.16 6.16 0 0 0 .45 2.36c.3.72.7 1.35 1.22 1.88.51.53 1.12.95 1.84 1.25.71.3 1.49.45 2.32.45 1.16 0 2.18-.29 3.05-.88.88-.59 1.46-1.36 1.75-2.3h-5.47v-4.31h10.86v1.45zm2.87 10.25V18.77h8.22c1.49 0 2.89.27 4.2.8s2.45 1.25 3.4 2.16c.96.91 1.71 1.98 2.27 3.23.56 1.24.84 2.58.84 4.01a9.32 9.32 0 0 1-.84 3.94c-.56 1.23-1.32 2.31-2.27 3.21-.96.91-2.09 1.62-3.4 2.14s-2.71.78-4.2.78h-8.22zM152 23.17h-3.13v11.47H152c.79 0 1.53-.14 2.23-.43s1.3-.69 1.81-1.2.91-1.11 1.2-1.81c.29-.69.43-1.44.43-2.23s-.14-1.57-.43-2.27-.69-1.32-1.2-1.84a5.58 5.58 0 0 0-1.81-1.23c-.69-.3-1.44-.45-2.23-.45zm24.02 11.55c.98 0 1.9-.21 2.74-.64.84-.42 1.6-1.05 2.27-1.88l3.27 3.21c-.95 1.18-2.19 2.12-3.72 2.84a10.99 10.99 0 0 1-4.73 1.07c-1.53 0-2.96-.27-4.3-.81s-2.49-1.27-3.46-2.2-1.73-2.03-2.29-3.3-.84-2.64-.84-4.11.28-2.84.84-4.13 1.33-2.39 2.3-3.31c.97-.93 2.13-1.66 3.46-2.2s2.76-.81 4.29-.81c.83 0 1.66.1 2.49.29s1.62.46 2.37.8 1.45.75 2.08 1.25a8.84 8.84 0 0 1 1.65 1.64l-3.36 3.3c-.71-.89-1.51-1.56-2.39-2.01s-1.83-.68-2.85-.68c-.81 0-1.57.15-2.27.45a5.52 5.52 0 0 0-1.82 1.23 5.77 5.77 0 0 0-1.22 1.87c-.3.72-.45 1.5-.45 2.33s.15 1.6.45 2.3.71 1.32 1.24 1.84 1.16.93 1.88 1.23 1.51.45 2.36.45zm-55.41 32.11V46.56h16.1v4.31h-11.12v3.79H133v4.17h-7.41v7.99h-4.98z"/><use xlink:href="#B"/><use xlink:href="#C"/><path d="M168.87 45.55v21.28h-4.69V46.56l4.69-1.01zm14.36 21.28V65.7a7.53 7.53 0 0 1-1.94.98 6.85 6.85 0 0 1-2.17.35c-1.08 0-2.1-.2-3.05-.61-.96-.41-1.79-.97-2.49-1.68a7.85 7.85 0 0 1-1.66-2.51c-.4-.95-.61-1.98-.61-3.08s.21-2.13.62-3.08c.42-.96.98-1.79 1.69-2.49a7.83 7.83 0 0 1 2.53-1.66c.97-.4 2.01-.61 3.11-.61.71 0 1.4.09 2.06.26a7.48 7.48 0 0 1 1.85.75v-5.76l4.69-1.01v21.28h-4.63zm-7.33-7.67c0 1.1.39 2.02 1.17 2.77.78.74 1.73 1.11 2.85 1.11.66 0 1.25-.1 1.79-.3a4.33 4.33 0 0 0 1.45-.91v-5.36c-.41-.37-.89-.66-1.45-.87a5.07 5.07 0 0 0-1.79-.32c-1.14 0-2.09.37-2.87 1.11a3.68 3.68 0 0 0-1.16 2.77zm36.26-2.46c0 1.45-.28 2.81-.84 4.1-.56 1.28-1.32 2.39-2.29 3.33s-2.11 1.67-3.45 2.22c-1.33.54-2.75.81-4.26.81s-2.92-.27-4.26-.81c-1.33-.54-2.48-1.28-3.45-2.22s-1.73-2.04-2.29-3.33c-.56-1.28-.84-2.65-.84-4.1s.28-2.81.84-4.1 1.32-2.39 2.29-3.33 2.11-1.67 3.45-2.22c1.33-.54 2.75-.81 4.26-.81s2.92.27 4.26.81c1.33.54 2.48 1.28 3.45 2.22a10.52 10.52 0 0 1 2.29 3.33c.56 1.28.84 2.65.84 4.1zm-5.12 0c0-.83-.14-1.61-.43-2.33s-.69-1.35-1.2-1.87a5.58 5.58 0 0 0-1.81-1.23 5.63 5.63 0 0 0-2.26-.45c-.81 0-1.56.15-2.26.45a5.69 5.69 0 0 0-1.81 1.23c-.51.52-.91 1.14-1.2 1.87s-.43 1.5-.43 2.33.14 1.61.43 2.33.69 1.35 1.2 1.87a5.58 5.58 0 0 0 1.81 1.23 5.63 5.63 0 0 0 2.26.45c.81 0 1.56-.15 2.26-.45a5.69 5.69 0 0 0 1.81-1.23c.51-.52.91-1.14 1.2-1.87s.43-1.5.43-2.33z"/><use xlink:href="#D"/><use xlink:href="#E"/><path d="M254.86 66.83V46.56h16.1v4.31h-11.12v3.79h7.41v4.17h-7.41v7.99h-4.98z"/><use xlink:href="#C" x="124.4"/><path d="M293.28 45.55v21.28h-4.69V46.56l4.69-1.01zm7.81 0v21.28h-4.69V46.56l4.69-1.01zm2.44 13.64c0-1.1.22-2.14.65-3.11s1.02-1.82 1.77-2.53c.74-.71 1.62-1.28 2.64-1.69s2.1-.62 3.26-.62 2.24.21 3.26.62a8.14 8.14 0 0 1 2.63 1.69c.74.71 1.33 1.56 1.77 2.53s.65 2.01.65 3.11-.22 2.14-.65 3.11-1.02 1.82-1.77 2.53c-.74.71-1.62 1.27-2.63 1.68s-2.1.61-3.26.61a8.63 8.63 0 0 1-3.26-.61c-1.01-.4-1.89-.96-2.64-1.68-.74-.71-1.33-1.56-1.77-2.53s-.65-2.01-.65-3.11zm8.31 3.88a3.56 3.56 0 0 0 2.65-1.13c.72-.75 1.09-1.67 1.09-2.75s-.36-2.03-1.09-2.78a3.56 3.56 0 0 0-2.65-1.13c-1.04 0-1.93.38-2.65 1.13s-1.09 1.68-1.09 2.78.36 2 1.09 2.75c.72.75 1.61 1.13 2.65 1.13zm17.92 3.76h-4.52l-4.17-15.32h4.43l2.26 9 2.75-9h3.88l2.75 9.03 2.23-9.03h4.37l-4.2 15.32h-4.49l-2.66-8.86-2.63 8.86z"/><use xlink:href="#E" x="111.86"/><path d="M360.62 66.83V46.56l4.69-1.01v7.01c.56-.42 1.19-.75 1.9-.98a7.1 7.1 0 0 1 2.21-.35c1.79 0 3.26.58 4.4 1.74s1.71 2.63 1.71 4.43v9.44h-4.69v-8.8c0-.83-.26-1.5-.77-2.01s-1.18-.77-2.01-.77c-.6 0-1.13.11-1.59.32s-.85.51-1.16.9v10.37h-4.69z"/><use xlink:href="#B" x="239.64"/><use xlink:href="#D" x="171.57"/></g><rect x="2.92" y="15.15" width="102.56" height="54.29" rx="27.15" fill="#5c7aca"/><path d="M97.9,35.85c.62,2.03,.96,4.19,.96,6.42,0,12.18-9.87,22.05-22.05,22.05s-22.05-9.87-22.05-22.05,9.76-21.93,21.84-22.04c-.07,0-.14-.01-.21-.01-12.51,0-22.64,10.14-22.64,22.64s10.14,22.64,22.64,22.64,22.64-10.14,22.64-22.64c0-2.45-.4-4.8-1.12-7.01Z" opacity=".2"/><circle cx="76.9" cy="42.2" r="22.28" fill="#fff"/><g fill="#5c7aca"><path d="M97.41 32.65c-.61-1.32-1.36-2.59-2.22-3.77l-.64-.83-.44-.53-1.21-1.31c-4.27-4.28-9.95-6.63-16-6.63-7.22 0-14.07 3.49-18.32 9.34-.39.54-.76 1.1-1.11 1.68-.14.23-.27.47-.42.73a22.43 22.43 0 0 0-1.63 3.72l-.03.08h0s-.03.09-.04.13v.04a12.31 12.31 0 0 0-.19.56v.04c-.6 2.04-.9 4.15-.9 6.3 0 12.48 10.15 22.62 22.62 22.62a22.65 22.65 0 0 0 19.76-11.6l.07-.12h0c.5-.92.94-1.86 1.3-2.81a17.47 17.47 0 0 0 .46-1.33c0-.02.01-.05.02-.07v-.04c.06-.15.1-.31.14-.45.05-.16.08-.29.11-.41.02-.06.03-.12.05-.18 0-.03.02-.06.02-.09.11-.45.22-.91.31-1.43.08-.42.14-.86.2-1.29a21.93 21.93 0 0 0 .12-1.22c.04-.53.06-1.07.06-1.61 0-3.34-.71-6.56-2.11-9.55zm.18 13.46s-.03-.07-.05-.11c-.03-.08-.02-.2 0-.28l.03-.16c.09-.01.23.09.32.14.06.03.13.05.16.11.05.07.05.17.07.26v.04l-.14.65c-.12-.13-.24-.24-.34-.39-.01-.03-.03-.05-.04-.07v-.09c0-.04 0-.08-.02-.12zm-4.13-17.74c.06.07.12.14.18.22-.06.01-.11.01-.16-.02-.06-.04-.05-.12-.03-.21zm4.86 16.11c-.14-.18-.05-.48.1-.63l-.06.67-.04-.04zm-.81 4.14v.04c-.14.42-.29.85-.46 1.27a20.87 20.87 0 0 1-1.31 2.8l-.05.09a21.63 21.63 0 0 1-18.8 10.97c-11.9 0-21.58-9.68-21.58-21.58a21.63 21.63 0 0 1 .86-6.05l.02-.07h0c.03-.11.07-.22.1-.33l.05-.15c.02-.07.05-.15.07-.22l.02-.07v-.04c.09.05.17.08.24.11.1.04.22.03.3.11.03.03.05.08.08.12.05.08.1.16.14.25.03.07.04.15.06.23.03.13.08.25.08.39 0 .08 0 .27-.11.29s-.14-.18-.16-.25a.6.6 0 0 0-.13-.25.86.86 0 0 0-.36-.26c-.11-.04-.21-.12-.33-.09 0 .09.1.22.13.31.06.18.07.38.14.55.06.16.1.26.08.44-.02.2-.03.38-.1.57-.06.19-.07.38-.13.57-.07.2-.17.44-.19.65-.02.16 0 .32.03.48.01.08.02.18.06.25.09.18.28.32.4.49.11.16.14.31.19.5a.66.66 0 0 0 .11.26c.04.05.1.07.15.11.06.05.08.12.12.19.06.1.12.05.19.28.03.35.19.67.27 1.01.06.24.16.37.34.54.13.13.33.4.53.43-.06-.16-.26-.25-.34-.41-.03-.07-.05-.13-.09-.19-.05-.08-.12-.13-.18-.2-.14-.15-.12-.38-.16-.58-.04-.21-.04-.42-.01-.63.07.09.13.25.19.34.22.17.4.49.6.68.09.25.24.4.41.56.12.11.03.27.02.41v.34c0 .15.07.19.19.26.14.09.26.2.42.27.13.18.24.21.38.28.17.09.24.35.43.2.1-.08.26-.34.41-.27.13.06.12.26.28.32.17.07.37.05.55.07.23.03.26.2.36.43.13-.02.19.02.28.02.12 0 .27-.03.36.08.12.13.07.36.1.52a.53.53 0 0 0 .11.21c.06.07.13.05.23.05.15 0 .29.05.44 0 .11-.03.2-.07.31-.08.1 0 .13.02.21.07.01 0 .03.01.04.02h0l-.07.02s.07.03.1.06c-.01.01 0 .05 0 .06 0 .02.02.03.02.06 0 .06 0 .12.02.18 0 .02 0 .03.03.05.02.02.06.05.07.08.02.06-.03.13-.08.14-.04.01-.07.01-.11.04-.03.02-.07.04-.1.07-.01.02-.03.04-.04.05-.01.02 0 .04-.02.06 0 .02-.03.03-.04.04-.05.06-.11.12-.12.2 0 .06 0 .13-.04.18 0 .01-.03.02-.04.03-.02.02-.02.04-.04.06-.03.04-.07.07-.09.11 0 .02-.01.05-.01.07 0 .04.01.05-.02.08-.04.04-.06.09-.09.14-.01.03-.02.06 0 .09.01.04 0 .07-.01.11-.03.06-.07.13-.06.2 0 .03.03.05.05.07.04.03.08.06.09.11v.08h0v.08c0 .03-.02.05-.03.07-.02.04-.03.08-.04.12-.01.05-.02.11 0 .16 0 .02.02.03.03.05a1.82 1.82 0 0 0 .23.64c.06.09.14.17.2.27l.18.3c.06.09.14.22.23.28a1.39 1.39 0 0 0 .28.12c.09.03.2.06.27.13.1.1.08.27.19.36s.24.17.34.27c.1.52.08 1.05.26 1.55.07.18.1.37.12.57a1.4 1.4 0 0 0 0 .5c-.01.26-.06.52-.11.76-.05.21-.06.43-.08.64-.01.11 0 .22-.02.33-.04.05-.08.09-.1.14-.04.08 0 .16.02.25l.06.45c.04.31.12.63.13.94 0 .3-.03.61-.02.92.07.24.22.44.36.65.21.32.46.43.82.64.09-.01.27.12.44.14.18.1.39.18.6.15.02-.14-.12-.2-.22-.27-.13-.09-.27-.12-.33-.28-.04-.11-.13-.21-.23-.28-.07-.05-.15-.06-.22-.1-.04-.02-.07-.05-.1-.07l-.09-.04v-.27c.01-.1.03-.24.07-.34.03-.07.08-.11.11-.17.04-.09.02-.2.02-.29 0-.15.04-.29.04-.44 0-.23-.02-.44.07-.66a2.65 2.65 0 0 1 .59-.85c.06-.06.12-.14.19-.2.08-.06.19-.06.26-.15.05-.07.08-.18.1-.26.03-.11.08-.21.09-.32.01-.18-.08-.33-.16-.48.05.02.1.03.15.04.1.01.18.05.28.07.11.01.26-.03.35-.08.08-.05.09-.14.15-.21.04-.04.09-.08.13-.13.06-.07.11-.14.18-.2.03-.02.07-.04.09-.06.16-.17.21-.48.29-.7.08-.24.21-.49.34-.69a.82.82 0 0 1 .38-.31c.15-.06.34-.16.47-.27.15-.12.17-.29.28-.44.07-.09.14-.17.16-.29.03-.16 0-.34 0-.5 0-.12-.03-.21-.07-.33-.03-.12-.02-.23-.02-.35 0-.15.07-.23.2-.31.12-.07.21-.15.31-.26.15-.16.41-.47.32-.72-.04-.11-.12-.13-.21-.16-.05-.02-.1-.06-.15-.08-.06-.02-.12-.02-.19-.02h-.1v-.04c0-.17-.15-.19-.29-.21-.1-.02-.2-.02-.29-.05-.08-.03-.16-.07-.25-.09s-.17-.08-.26-.11c-.08-.03-.2-.06-.26-.13-.1-.12-.06-.28-.2-.36-.15-.08-.35-.09-.5-.17 0-.05 0-.1-.02-.15-.04-.07-.13-.12-.22-.15-.05-.11-.08-.22-.12-.31-.1-.24-.4-.32-.72-.33-.15-.14-.32-.26-.5-.38h-.48c-.11 0-.3 0-.39-.07-.05-.04-.07-.11-.13-.15-.09-.05-.18-.08-.27-.15-.12-.1-.2-.23-.29-.36-.05-.07-.07-.09-.16-.09-.12 0-.18.09-.26.18-.05.06-.13.19-.19.09-.06-.11.06-.31-.12-.33-.12-.01-.23 0-.35-.03-.08-.02-.17-.02-.26.02-.21.1-.38.33-.52.51-.06.08-.22.32-.34.25-.05-.03-.07-.09-.13-.12-.04-.02-.09-.06-.13-.07-.12-.01-.25.11-.37.12-.11.01-.24 0-.34-.06-.05-.03-.1-.05-.12-.1-.02-.06.05-.22.07-.28.07-.24.19-.48.09-.73-.07-.17-.32-.16-.46-.08-.14.09-.27.32-.47.25.01-.15.07-.25-.03-.39-.08-.11-.12-.16-.06-.29.08-.17.21-.3.32-.46.08-.13.01-.17-.11-.23-.11-.06-.22-.14-.35-.09s-.15.2-.22.29c-.08.12-.2.19-.31.28-.13.11-.3.31-.5.26-.13-.03-.26-.22-.33-.32s-.15-.12-.13-.25c.03-.14.09-.25.09-.39v-.16a1.5 1.5 0 0 0-.05-.37c-.02-.07-.04-.12-.04-.2.01-.19.18-.72.45-.58.18.09.34.23.55.24.13 0 .29-.01.27-.15-.01-.11-.13-.25-.02-.33.13-.09.34.04.47.05.15 0 .16-.12.28-.16.11-.04.21.03.3.06.2.08.27.19.35.39.06.15.14.28.2.44.05.14.12.18.19.03.08-.18.09-.42.11-.61.02-.23-.02-.45.13-.65.09-.12.22-.24.36-.3.11-.05.24-.06.34-.12a.46.46 0 0 0 .19-.42c-.02-.14-.1-.28-.06-.43.04-.12.21-.18.3-.25.29-.24.57-.49.81-.79.13-.16.25-.3.47-.32.2-.01.36.01.55-.06.1-.04.54-.22.45-.38-.06-.1-.27-.1-.33-.21-.07-.15.14-.29.24-.35.13-.08.2-.13.18-.29-.03-.18-.17-.16-.33-.16s-.3.07-.45.12c-.07.02-.19.08-.26.07.04-.07.13-.13.19-.19.08-.07.16-.16.26-.21.18-.08.4-.12.59-.19.17-.06.34 0 .52 0h.27c.1 0 .2.05.3.06.13.02.39 0 .5-.09.09-.08.03-.21-.01-.31-.05-.12-.13-.2-.17-.32-.07-.18-.16-.28-.27-.43-.1-.13-.2-.25-.29-.39-.07-.12-.06-.18-.02-.31.03-.12.22-.64.04-.67-.07-.01-.12.05-.17.08-.08.06-.17.14-.28.17-.26.07-.48-.2-.57-.4-.08-.17-.05-.35-.1-.53-.05-.17-.17-.33-.34-.4-.1-.04-.29-.06-.37.04-.05.06 0 .11-.01.18-.01.13-.13.22-.21.3-.11.11-.25.26-.28.41-.05.22.09.46.09.69 0 .12 0 .22-.06.33-.08.15-.22.26-.3.41-.06.11-.11.23-.14.35-.06.26-.15.56-.44.66-.1.03-.25.03-.3-.08-.03-.06-.02-.14-.02-.2 0-.2.05-.49-.05-.66-.05-.09-.09-.08-.18-.12-.08-.03-.13-.1-.18-.16-.1-.12-.15-.29-.26-.4-.17-.16-.33-.11-.55-.13-.11-.01-.14-.07-.23-.13-.02 0-.04-.02-.06-.02-.01-.03-.02-.05-.02-.07v-.21c0-.1.01-.2.04-.29.02-.07.06-.15.14-.16a.72.72 0 0 1-.11-.32.44.44 0 0 1 .12-.36c.19-.23.55-.18.78-.33a.46.46 0 0 0 .19-.2c.03-.06.05-.11.08-.16.04-.06.09-.12.11-.18.01-.04 0-.06.04-.09.07-.08.17-.08.26-.09.1 0 .29-.05.34-.15.03-.07.02-.15.02-.22 0-.13.03-.19.13-.26.06-.05.22-.11.25-.18s-.01-.14-.03-.2c-.02-.05-.02-.18.02-.22.05-.05.16-.05.22-.02.08.05.14.15.23.2.08.04.11.01.16-.05.09-.1.13-.17.15-.3.01-.07.06-.15.02-.22-.15-.09-.29-.1-.45-.05-.08.03-.17.06-.23.12-.08.08-.14.18-.24.24-.08.06-.16.1-.24.03-.1-.09-.18-.27-.23-.4-.03-.08.01-.18-.02-.26-.05-.09-.18-.06-.26-.04-.06.02-.13.05-.18.09-.05.05-.08.13-.12.19a.33.33 0 0 1-.26.16c-.12 0-.19-.05-.28-.12-.1-.07-.18-.07-.28 0-.14.08-.29.15-.45.09-.11-.04-.2-.13-.27-.22-.22-.24-.54-.32-.8-.06-.1.1-.13.18-.14.33-.19-.04-.33-.08-.44-.23-.09-.12-.08-.22-.09-.36-.01-.12-.06-.26-.16-.33-.08-.06-.19-.03-.27-.08s-.07-.17-.09-.25c-.04-.17-.11-.28-.3-.29-.13 0-.25.05-.37.07-.13.03-.2-.03-.26-.14-.05-.09-.08-.19-.14-.27 4.07-5.3 10.43-8.45 17.13-8.45a21.39 21.39 0 0 1 14.05 5.2c-.02.02-.03.04-.04.07-.02.09.06.22.11.29.03.04.07.07.09.11.05.08 0 .12-.04.19-.06.09-.05.23.08.25.15.02.21-.07.21-.09.08-.08.15-.17.23-.26l.43.41c-.04.05-.08.1-.1.16-.04.09-.04.19-.1.27-.04.06-.13.12-.19.17-.25.19-.57.3-.85.44-.19.09-.47.18-.51.43-.03.2.04.34.13.51.07.17.04.24-.13.32-.21.09-.33.22-.27.47a.93.93 0 0 0 .23.41c.08.09.29.26.08.32-.13.03-.35-.01-.46-.06-.12-.05-.19-.16-.28-.25-.08-.07-.18-.12-.25-.19-.27.12-.16.39-.11.62.02.09.03.2.09.29.05.09.15.15.22.21.08.08.16.14.26.19.07.04.16.05.21.1.08.07.06.28.05.39-.01.16-.09.33-.15.47-.06.12-.17.29-.3.35-.09.04-.4.07-.43-.04-.02-.08.1-.13.14-.17.09-.08.18-.19.25-.29.11-.17.2-.41.17-.62-.02-.14-.19-.34-.29-.42-.09-.07-.21-.09-.29-.17-.11-.11-.13-.27-.15-.41-.05-.26-.11-.48-.24-.7-.06-.1-.1-.19-.23-.18-.11.01-.26.09-.31.2-.09.24.06.66.18.87.14.25.32.46.48.7.06.09.26.38.02.4-.16.02-.14-.18-.21-.27-.1-.12-.25-.11-.38-.05-.03.01-.06.03-.09.04a.37.37 0 0 0-.14-.07c-.09-.03-.23-.05-.32 0-.05.02-.09.08-.14.1-.05.01-.09 0-.14.01-.03.01-.05.04-.07.06-.06.05-.11.08-.15.15-.06.09-.06.13-.18.17-.1.03-.21.04-.32.06-.21.04-.45.05-.65.14-.15.06-.23.17-.34.3-.09.11-.14.23-.18.36-.01-.01-.02-.02-.04-.02-.04-.01-.11 0-.15 0-.06 0-.12.03-.17.06-.03.01-.04.03-.06.05-.03.02-.08 0-.11.01-.09.01-.15.08-.18.16-.02.05-.03.09-.05.13-.03.05-.07.09-.1.13-.06.09-.09.2-.13.3-.05.1-.13.14-.21.19-.08.04-.16.04-.25.08-.05.02-.07.06-.09.11-.02.04-.04.08-.05.12-.04 0-.09-.01-.12-.03.15-.17.45-.26.46-.54 0-.21-.17-.33-.3-.47H84c.06 0 .13.02.19.02.14 0 .28-.13.38-.21.03-.03.08-.05.09-.09v-.09c0-.07 0-.12-.05-.17-.03-.04-.09-.07-.13-.09-.06-.04-.14-.01-.2-.04-.04-.02-.1-.08-.13-.13-.05-.07-.01-.15-.03-.23-.01-.05-.06-.1-.08-.14-.06-.12-.13-.2-.3-.26-.03-.06-.08-.09-.14-.11-.03-.03-.05-.06-.08-.08-.14-.11-.33-.11-.5-.1-.3.02-.53.15-.78.31-.13.07-.24.14-.38.19-.16.06-.3.12-.45.21-.23.13-.46.25-.66.42-.17.14-.29.32-.42.49-.1.14-.09.2-.1.4-.12.27-.4.34-.59.53-.11.11-.2.25-.25.4a4.79 4.79 0 0 0-.17.75c-.02.11-.2.4-.03.45.1.03.3 0 .41 0 .09 0 .17-.04.26-.04a.42.42 0 0 1 .22.05c.16.07.25.23.33.38.06.12.15.27.3.27.27 0 .6-.12.77-.35.16-.22-.14-.49-.2-.69-.07-.26-.01-.48.04-.73a1.14 1.14 0 0 1 .15-.4c.1-.17.21-.37.36-.51.21-.19.34-.07.43.15.05.12 0 .26-.07.37-.09.14-.24.25-.33.39-.05.09-.11.21-.16.31-.06.15.14.3.27.33.17.04.33-.06.48-.09.13-.03.25-.03.38-.03.11 0 .19.01.28.08.05.04.11.08.07.15-.08.13-.41.07-.55.12-.05.02-.2.08-.23.13-.01.02 0 .08 0 .11 0 .05-.03.11-.04.16-.06.22-.14.33-.31.48s-.44.29-.66.33c-.2.04-.35.06-.53.18-.07.05-.15.1-.23.11s-.16 0-.23-.02c-.17-.03-.39-.08-.56-.02-.18.06-.21.21-.33.34-.19.19-.38.41-.6.57-.16.12-.26.23-.46.27-.16.03-.35.06-.45.19-.08.11-.03.28.06.37.1.11.11.26.11.41 0 .14.02.27-.09.36-.08.06-.2.04-.3.04-.14 0-.36-.03-.49.04-.06.03-.06.07-.05.12h0s-.1-.01-.14 0c-.05.02-.08.05-.09.1-.02.09.05.18.04.27a.21.21 0 0 1-.04.11c-.03.02-.06.04-.08.06-.14.13-.14.34-.11.52a.68.68 0 0 0 .08.24c.02.04.06.07.09.11.02.02.01.06.04.08.06.04.31-.03.37-.07.07-.05.12-.14.22-.11.06.02.09.07.14.08.11.02.25-.02.35-.07.11-.06.26-.11.35-.2.1-.11.22-.25.29-.39.08-.15.06-.34.1-.5.05-.17.09-.28.29-.25.1.02.21.12.31.06.14-.08.23-.27.37-.34.11-.06.21.04.31.09.1.06.21.15.25.27.02.06.02.12.06.18.03.06.04.05.09.07.14.06.24.17.37.24.1.05.26.14.29.25.03.1-.29.62-.12.65.05 0 .14-.07.18-.09.07-.06.14-.14.18-.22a1.19 1.19 0 0 0 .11-.45c0-.13-.04-.17-.16-.23-.14-.07-.25-.17-.38-.25-.09-.06-.15-.09-.19-.2-.06-.17-.04-.27-.29-.45.16-.21.03-.26.13-.28.03 0 .09.03.12.05.14.08.2.23.31.33.09.08.23.1.33.18.09.06.14.13.24.17.1.05.15.09.19.2.08.21.07.44.17.65.06.12.2.5.39.44.17-.06.03-.25.02-.36 0-.16.04-.29.19-.35s.31 0 .45-.07a.42.42 0 0 0 .21-.36c0-.23.04-.38.16-.57.09-.15.18-.36.39-.32.1.02.15.07.21.14.03.03.08.13.13.13.07 0 .07-.08.1-.12a.69.69 0 0 1 .18-.16c.08-.05.55-.27.6-.11.02.07-.11.16-.15.2-.1.1-.19.15-.16.3.09-.02.14-.16.24-.19.07-.02.13 0 .19.04.11.07.21.14.24.28.1.02.18 0 .27.04.06.03.17.04.21.1.05.07.07.27.09.36.01.08-.09.31-.03.33-.03.03-.06.06-.09.1-.03-.02-.06-.05-.1-.07-.08-.05-.15-.08-.23-.11a1.31 1.31 0 0 0-.65-.13c-.18 0-.35.05-.51.11-.17.06-.33.01-.5.03-.22.03-.43.33-.41.54.01.13.19.19.3.24.09.04.18.05.27.09.13.05.23.14.36.19.16.07.32.03.45.15.1.1.17.19.17.33s-.09.27-.15.39c-.05.09-.12.14-.2.18-.19.1-.32.01-.51-.05-.09-.02-.16-.05-.25-.05-.02 0-.05.01-.08.04a1.5 1.5 0 0 0-.73-.3c-.27-.02-.53.09-.79.09-.01.08.01.16.02.25 0 .14.02.3-.03.44-.03.09-.09.2-.19.22-.09.02-.15-.02-.21-.06-.1-.07-.18-.11-.24-.22-.06-.1-.11-.19-.19-.28-.06-.07-.13-.16-.2-.23-.07-.06-.18-.08-.25-.14-.21-.15-.45-.17-.7-.18-.14 0-.38-.04-.36-.24.01-.14.25-.23.33-.32.15-.17-.23-.28-.34-.29-.22-.02-.41.04-.6.13a6.92 6.92 0 0 1-.57.24 1.15 1.15 0 0 1-.55.05c-.13-.01-.25-.05-.37 0-.08.03-.2.09-.41.11-.33.28-.78.61-.66 1.1.04.19-.27.3-.4.39-.11.08-.21.18-.31.28-.15.14-.31.26-.39.45-.05.13-.03.25-.08.38-.06.15-.14.29-.15.46-.02.21-.05.42-.05.64 0 .17 0 .36.09.5.08.12.2.2.28.32.09.13.1.33.17.48.06.13.17.2.27.29.06.05.1.08.17.09s.16 0 .23.04c.07.05.1.14.16.19s.15.08.23.11c.06.03.11.08.17.11.11.06.23.04.35.02.1-.02.18-.04.28-.03.13.03.23 0 .35-.02.06-.01.13 0 .19-.01.1 0 .21-.06.31-.09.12-.04.25-.08.38-.05.08.02.11.13.2.11a.51.51 0 0 1 .06-.27c.04-.07.1-.06.18-.01a.81.81 0 0 1 .25.27c.07.11.08.26.22.3.11.04.36.01.42.14.1.19 0 .34-.07.51-.08.17-.19.32 0 .46.05.04.09.05.14.1l.09.12c.1.1.23.11.26.26.04.2.01.44.1.63.1.2.25.37.3.59.06.28-.06.52-.26.71-.11.09-.19.17-.22.31-.04.15-.01.17.15.32.07.16.21.26.28.41.15.32.11.65.16.99.03.17.07.34.13.49s.17.27.25.41a3.72 3.72 0 0 0 .19.34c.07.12.07.28.07.41s0 .25-.04.38c-.02.07-.05.2 0 .26.1.12.39-.03.5-.08.14-.05.3-.08.43-.16s.23-.2.38-.25c.1-.04.18-.08.27-.13.25-.13.47-.32.66-.52s.43-.47.51-.74c.06-.18 0-.33.21-.41.14-.06.31-.12.31-.29 0-.1-.02-.19-.05-.28-.04-.13-.03-.27-.03-.41 0-.2.21-.4.35-.52a1.03 1.03 0 0 1 .31-.2c.13-.05.26-.11.35-.23a.82.82 0 0 0 .16-.37v-.16c0-.11.04-.23.05-.34.02-.18-.08-.3-.16-.45-.05-.09-.09-.18-.15-.26-.05-.06-.12-.11-.15-.19-.04-.1 0-.16.06-.24.1-.13.17-.27.27-.4.07-.09.15-.16.22-.25.05-.07.09-.15.14-.21.1-.13.25-.18.38-.28.1-.08.2-.15.29-.23.12-.1.2-.25.3-.36.26-.31.55-.59.81-.89.04-.05.15-.18.16-.25.01-.14-.29-.1-.37-.09-.21.02-.4.12-.59.22-.22.11-.51.17-.75.17-.15 0-.21-.11-.3-.23-.04-.05-.08-.09-.09-.16s.02-.16 0-.24c-.01-.06-.04-.06-.07-.11s-.02-.11-.02-.17c0-.05-.03-.1-.04-.15-.01-.06-.01-.13-.02-.2-.03-.14-.14-.2-.25-.27-.11-.08-.27-.2-.35-.32-.07-.1-.11-.22-.15-.33-.07-.18-.15-.28-.31-.39-.11-.07-.21-.17-.24-.3s.01-.27.01-.4c0-.08 0-.18-.03-.28.08 0 .15.02.21.04.2.06.42.14.53.33.11.21.14.46.22.68.09.22.21.41.32.63.09.19.22.32.35.48.1.12.14.26.26.37.19.17.12.39.15.61.11.03.3-.1.38-.16.17-.13.31-.29.48-.41.21-.15.36-.37.66-.39.3-.31.54-.3.74-.52.16-.17.3-.36.39-.57.04-.08.11-.24.09-.33-.03-.1-.15-.13-.24-.15-.12-.02-.22-.04-.34-.04s-.21.02-.23-.12c0-.05.03-.19 0-.23-.06-.1-.25.03-.31.06-.24.14-.55.4-.7.01-.03-.09-.08-.18-.09-.27-.02-.13-.08-.18-.15-.28-.09-.14-.32-.29-.34-.47 0-.1.07-.17.12-.25.01-.02.02-.05.04-.07.13.15.2.29.35.42.12.11.14.18.29.21.15.02.29-.01.44.06.04.02.08.06.12.08.12.06.26.06.37.14.05.04.09.12.15.13.01 0 .09-.02.11-.03.12-.01.26 0 .38.01.24.03.43.14.66.19.19.04.38.04.48.22.09.16.06.39.19.52.11.11.24 0 .39 0 .07 0 .16.01.21.06.09.06.08.2.16.27.16.14.26-.09.33-.22.02-.04.31-.56.4-.4.03.05-.04.16-.05.2-.05.22-.07.46-.12.68-.02.11-.09.33-.04.45.03.06.11.11.16.16.05.06.1.16.16.21.04.02.07.02.1.04.09.05.12.11.14.23.05.23-.04.47 0 .7.04.16.2.28.32.38.13.1.36.06.48-.05.17-.17.12-.45.12-.67a.87.87 0 0 1 .2-.58c.13-.19.25-.4.41-.57.13-.13.26-.28.43-.36.09-.05.17-.09.24-.18.05-.07.08-.16.13-.23.12-.15.42-.32.54-.07.05.11 0 .28.03.41a1.09 1.09 0 0 0 .14.31c.25.36.42-.3.67-.06.06.06.09.11.16.16s.1.05.12.14c.03.1 0 .22.03.33l.03.18c.03.15.12.22.22.32 0 .01.01.02.02.04.02.05.04.12.07.17.04.08.08.15.1.24a.53.53 0 0 0 .01.13c0 .05.02.1.03.15.01.09 0 .19.01.28a.58.58 0 0 0-.05.14c-.04.16.04.24.11.38.04.07.05.16.1.22.04.05.12.1.16.14.07.07.12.14.18.21l-.02.08v.03c-.06-.02-.11-.04-.17-.05-.1-.02-.1-.12-.19-.17-.06-.03-.12-.03-.17-.08-.04-.04-.05-.06-.1-.07h-.08c-.04-.01-.06-.05-.08-.08-.11-.13-.28-.24-.4-.35-.03.06-.1.14-.05.26.06.13.2.2.3.3s.07.25.17.35c.05.05.11.08.16.13s.07.11.14.14c.06.02.14.02.18.07.04.04.06.13.08.18l.02.06c-.03.11-.06.23-.1.33 0 .02-.01.04-.02.07zm-32.7-4.84s-.05 0-.08-.02c-.02-.01-.02-.05-.04-.06-.02-.02-.05-.04-.08-.06-.02-.02-.03-.05-.06-.06-.07-.03-.18.03-.25.05-.1.02-.2.05-.31.05-.05 0-.1 0-.13-.05-.02-.02-.01-.06-.03-.08s-.05-.01-.08-.02c-.04 0-.07-.04-.11-.06a.4.4 0 0 0-.15-.03c-.03 0-.07 0-.1-.01a.41.41 0 0 0-.23.07c-.06-.08-.11-.06-.15-.03.02.03.11.04.14.04.04 0 .08-.01.12 0 .05.03.01.1.04.15.05.07.12.05.19.04.05 0 .13-.01.18 0 .03.02.05.04.09.04.05.01.09 0 .14.03.03.01.05.02.07.02.05 0 .08 0 .13.02.03.01.04.04.07.04.04 0 .09-.03.14-.03h.1c.04 0 .09.02.13.05s.04.07.1.06c.06 0 .16-.03.21-.07.04-.03.03-.05 0-.07-.01-.02-.05-.05-.07-.06zm1.17.44s-.05-.03-.1-.04c-.04 0-.09 0-.13-.03-.03-.01-.05-.03-.09-.04-.05 0-.1 0-.14-.03-.03-.03-.05-.06-.09-.08-.04-.01-.09-.01-.13 0-.05 0-.11.07-.11.13a1.3 1.3 0 0 0 .18.23c.03-.03.11-.02.16-.03.03 0 .08-.02.1-.02.05 0 .07.07.12.09.08.04.16 0 .22-.05.02-.01.07-.04.08-.07 0-.05-.05-.06-.08-.08zm21.97 6.11c-.06-.04-.09-.04-.22-.03-.09.19-.2.37-.32.54-.03-.03-.06-.01-.09-.02-.03 0-.06-.03-.09-.04-.11-.04-.21 0-.3.06s-.11.08-.11.18c0 .11.02.21.02.32v.28c-.02.11-.09.19-.13.29s-.06.2-.12.29c-.06.11-.11.21-.12.34-.03.53.9.17.8-.17.18-.16.28-.44.36-.69.04-.11.1-.21.13-.33.02-.11.02-.21.07-.31s.11-.2.17-.29.1-.13.07-.23c-.02-.08-.04-.15-.11-.2zM77.66 35.96c.03.06.1.1.12.16.04.12-.03.26-.04.37 0 .1.06.18.07.28.01.08.04.21.01.28-.02.03-.06.07-.09.1-.04.06-.07.12-.08.18-.03.12-.02.17.09.22.05.02.18.11 0-.02.29-.06.67-.09.94-.24.06-.04.2-.08.22-.16.04-.17-.28-.31-.4-.35-.15-.06-.33-.13-.37-.29-.03-.09-.06-.14-.11-.22-.03-.05-.09-.16-.1-.22-.02-.12.11-.14.17-.22.05-.06.05-.14.04-.21-.01-.19-.4-.29-.52-.13-.06.07-.03.21 0 .29l.06.16z"/><path d="M77.02 36.32c-.1.11-.1.28-.1.43 0 .06.01.14-.01.2-.03.08-.15.11-.16.2-.02.11.16.16.25.17.1 0 .18-.02.05-.1l.55-.59c-.1.05-.09-.11-.11-.15-.03-.07-.11-.14-.16-.2-.09-.11-.21-.05-.3.05zm9.34-5.35c.07.04.1.14.17.16.07.03.13-.03.19-.07.08-.05.24-.12.12-.24a3.12 3.12 0 0 1-.51-.64c.08-.13.1-.35.11-.5 0-.15.03-.22.12-.34.15-.2.27-.47.46-.63.13-.11.31-.13.43-.24.18-.16.35-.44-.21-.46-.14.02-.28.23-.38.35a10.01 10.01 0 0 1-.74.85c-.31.32-.59.91-.49 1.38.07.37.5.25.74.38zm-9.1-4.78c-.1-.22-.41-.3-.64-.24-.09.02-.16.06-.24.1l-.16.08c-.06.02-.12.02-.19.02h-.04-.08c-.07 0-.17 0-.21-.02l-.03-.03s-.01-.02-.02-.03l-.07-.07c-.02-.02-.04-.03-.05-.05-.02-.03-.02-.08-.02-.14 0-.05 0-.1-.01-.14v-.03h0s.11-.1.18-.12c.02 0 .04-.01.07-.02.2-.05.35-.1.38-.22 0-.05 0-.11-.09-.18-.1-.08-.25-.13-.37-.17l-.07-.02a1.51 1.51 0 0 0-.52-.11c-.11 0-.2-.03-.32-.06-.27-.08-.48.13-.63.28l-.04.04c-.1.1-.33.1-.5.09h-.08c-.3 0-.74.02-1.12.17-.19.08-.33.17-.42.27-.03.03-.05.07-.08.1-.04.06-.07.1-.13.13-.07.04-.14.04-.23.03h-.06c-.2 0-.39.05-.61.16-.16.08-.25.19-.35.3-.11.13-.14.25-.17.37-.03.14-.2.27-.48.37-.16.06-.33.24-.32.43a.47.47 0 0 0 .04.17c0 .03.02.05.02.08.01.06 0 .09-.02.15l-.02.05a1.18 1.18 0 0 0-.04.2c0 .11.04.19.11.21.05.02.12 0 .19-.08.03.01.07.03.1.04l.48.21.03.02.11.12c.12.15.15.3.16.52 0 .23.11.41.22.58l.09.16a.56.56 0 0 1 .07.25c0 .07-.07.15-.13.23-.03.04-.06.08-.08.12-.06.1-.2.35-.14.58.04.14.19.25.28.31.02.02.05.03.07.04.04.02.09.05.1.07.01.04-.01.12-.19.31-.03.03-.06.07-.1.1-.12.12-.26.27-.34.43-.07.16-.08.33-.02.48.05.13.15.19.24.25l.12.09c.03.03.05.07.01.19-.05.13-.1.27-.11.42v.03c-.02.15-.05.34.04.49a.86.86 0 0 0 .39.34c.1.04.2.06.28.06.15 0 .27-.06.35-.18.06-.08.09-.16.12-.25.02-.04.03-.08.05-.12v-.03c.08-.14.15-.29.24-.41.1-.14.24-.23.4-.33.11-.07.22-.14.32-.23.09-.08.15-.18.22-.28.08-.12.15-.23.25-.29.05-.03.12-.04.2-.05.04 0 .08 0 .12-.01.26-.04.5-.12.77-.21.19-.06.63-.25.68-.65l.09-.47c.01-.05.03-.09.05-.14s.04-.11.05-.16c.03-.14 0-.27-.02-.38v-.06c-.04-.14-.03-.29 0-.46a.4.4 0 0 1 .16-.26c.03-.02.06-.05.1-.08.08-.06.18-.13.23-.21s.05-.17.05-.25v-.07c0-.05.01-.1.02-.15l.03-.23v-.1c0-.13 0-.22.08-.32.02-.03.04-.05.05-.07.07-.09.14-.18.16-.33l.07-.32c.01-.05.01-.1.01-.15s0-.08.01-.11c.04-.11.12-.23.18-.33.04-.07.08-.09.16-.13l.17-.08a2 2 0 0 1 .21-.1c.08-.03.19-.08.23-.18.03-.09.01-.2-.05-.33zm-8.17 6.26c.08-.09.18-.23.19-.36.01-.15-.09-.26-.16-.38a.55.55 0 0 0-.16-.18c-.07-.04-.14-.05-.22-.09-.12-.06-.2-.21-.25-.33-.06-.15 0-.27 0-.42 0-.17-.06-.29-.17-.42a1.45 1.45 0 0 0-.17-.18c-.04-.03-.09-.04-.12-.07-.14-.11-.4-.58-.42-.61.01.12-.02 0-.12-.02-.07-.01-.18.03-.22-.05s.05-.22.08-.3c.02-.08.05-.15.04-.24-.15-.02-.25.01-.35.13-.16.18-.37.29-.52.49-.05.06-.13.2-.22.13-.08-.06-.04-.24-.04-.32s0-.15.03-.23c.04-.12.2-.29.2-.41-.35 0-.64.51-.78.56-.16.28-.17.26-.08.34.04.04.09.07.09.14 0 .08-.06.17-.06.25v.31c.02.24.2.48.46.37.08-.04.16-.13.24-.16.08-.02.2 0 .28.02.06.02.13.04.17.09.06.08.07.1.16.15.21.1.18.35.18.55 0 .1 0 .19.04.28.05.11.04.18-.05.29-.21.26-.48.44-.75.63-.02.01-.31.19-.32.25 0 .03 0 .05.03.07s.12 0 .15-.01h.24c.18 0 .42 0 .51.17.06.12.16.22.22.34.03.05.04.12.1.15.04.03.11.03.16.05.07.03.12.08.19.11l.39.11c.21.07.43-.08.37-.31-.03-.11-.15-.19-.24-.25a.48.48 0 0 1-.19-.27c-.07-.18-.04-.52.2-.53.11 0 .2.05.3.09.1.05.2.07.3.12.07.03.12.09.2.05.04-.02.09-.08.12-.11z"/><path d="M66.14 27.14c-.25.02-.28.2-.28.41 0 .15.02.38.17.45.18.09.42-.05.54.15.09.15.14.28.34.3.11.01.22 0 .33.02l.16.04c.08.01.26 0 .26-.13 0-.11-.11-.25-.19-.3-.14-.08-.3-.08-.45-.11a.5.5 0 0 1-.28-.14c-.04-.04-.17-.12-.16-.19.02-.19.53-.11.65-.11.39 0 .59.2.94.41-.15.01-.18.16-.08.2.06.02.19 0 .25-.03.11-.04.07-.18.03-.27-.06-.11-.12-.21 0-.31.12-.09.31-.09.44-.17.1-.07.01-.26 0-.36-.01-.33.08-.31.62-.69.05-.03.11-.06.16-.08l.54-.21c.1-.04.3-.05.35-.17-.03-.06-.18-.06-.23-.08-.06-.02-.13-.05-.16-.11-.11-.19.23-.26.35-.26.14 0 .26.05.4.06.14 0 .21-.05.33-.1.25-.1.55-.08.75-.29.18-.19.1-.48-.09-.63-.09-.07-.19-.19-.3-.21-.2-.04-.44 0-.64.03-.35.04-.69-.05-1.05.01-.27-.14-.6-.11-.9-.07a1.49 1.49 0 0 0-.46.12c-.04.02-.22.08-.24.13-.01.04.02.1.02.14 0 .1-.01.2 0 .29 0 .09.03.1.08.17.08.11.03.15-.04.25-.03.04-.04.07-.08.09-.07.03-.21.02-.27 0-.13-.05-.11-.18-.11-.3 0-.09 0-.21.02-.3.01-.05.14-.19.11-.24-.12 0-.23.03-.34.07-.09.03-.18.05-.26.1-.18.11-.3.3-.41.47-.08.12-.19.23-.26.37-.08.15-.27.64 0 .72.13.04.31 0 .45 0h.23c.14.01.23.13.27.26.03.12-.04.29-.09.4-.05.1-.17.1-.28.12s-.2.03-.3.08c-.08.04-.15.1-.23.14a.29.29 0 0 1-.31-.03c-.06-.05-.09-.09-.15-.11-.05-.01-.14 0-.19 0zm.06-.99c.03-.06.06-.16.08-.22.03-.09 0-.2-.06-.28-.04-.04-.18-.14-.24-.13.02.09-.15.16-.21.21-.05.04-.09.08-.11.14-.03.07-.03.15-.07.22a1.92 1.92 0 0 0 .5.29c.03-.14.09-.17.11-.22zm-.62.97c-.11.12-.27.25-.35.4 0 .02 0 .06-.02.07-.03.02-.09 0-.12-.03-.11-.09-.09-.24-.16-.35s-.12-.07-.17.03c-.06.13-.09.3-.02.42.06.1.16.16.28.2.15.05.24 0 .37-.06.09-.04.15-.04.21-.14.05-.08.14-.35-.02-.54zm-.51 1.31a1.84 1.84 0 0 0-.66.12l-.01.36c0 .13 0 .2-.08.3-.04.06-.12.15-.09.23.05.12.25.09.34.04.11-.06.24-.14.3-.26.05-.1.04-.21.15-.26.1-.05.21-.06.26-.17.04-.08.06-.32-.2-.38z"/><path d="M63.59 28.75c.08-.08.15-.07.25-.11 0-.09-.03-.24-.1-.3-.13-.11-.28.03-.36.12-.08.08-.17.24-.26.29-.12.06-.27-.06-.34-.15-.04-.06-.07-.13-.12-.19-.06-.06-.08-.05-.16-.07-.09-.03-.08-.08-.1-.17-.02-.1-.06-.2-.07-.31-.03-.2-.05-.37-.24-.48-.18-.1-.36-.08-.52.05-.3.25-.57.63-.53 1.03.02.21.13.35.26.5.04.05.08.11.13.15.07.05.15.04.23.06.39.07-.04.53-.08.73-.02.12-.04.22.08.26.18.06.38 0 .54-.08.15-.06.42-.25.58-.17.05.02.08.07.12.11.05.06.12.09.19.11.17.06.38.08.55.04.05-.01.12-.03.1-.09 0-.03-.04-.03-.05-.05-.04-.05-.06-.07 0-.21a2.52 2.52 0 0 1-.34-.77c.12-.08.15-.22.24-.31zm6.01 8.76c-.12-.06-.29.07-.43 0-.06-.03-.24-.12-.23-.18-.2.08-.39.17-.57.28 0-.02-.13 0-.18.09-.05.08 0 .09.08.14.07.05.16.17.25.18.05 0 .11-.04.16-.06.24-.11.46.03.71.02.13 0 .21-.02.27-.14.04-.09.07-.27-.05-.32zm6.83-4.15c.07-.1.08-.38-.06-.43-.12-.04-.39.12-.48.19-.08.06-.13.1-.24.1-.04 0-.08 0-.12-.02-.19-.04-.29-.03-.53-.03-.08 0-.28-.04-.3.18-.02.13.09.32.2.38a.51.51 0 0 0 .45.03c.19-.08.38-.07.57-.12.16-.04.4-.13.5-.28z"/></g><path d="M76.9,20.9c11.74,0,21.3,9.56,21.3,21.3s-9.56,21.3-21.3,21.3-21.3-9.56-21.3-21.3,9.56-21.3,21.3-21.3m0-.98c-12.3,0-22.28,9.97-22.28,22.28s9.97,22.28,22.28,22.28,22.28-9.97,22.28-22.28-9.97-22.28-22.28-22.28h0Z" fill="#fff"/><defs ><path id="B" d="M141.25 50.1a2.48 2.48 0 0 1-2.57-2.57 2.48 2.48 0 0 1 2.57-2.57 2.48 2.48 0 0 1 2.57 2.57 2.48 2.48 0 0 1-2.57 2.57zm2.34 1.42v15.32h-4.69V51.52h4.69z"/><path id="C" d="M160.77 64.8c-.97.81-1.95 1.4-2.97 1.77s-2.16.55-3.43.55c-1.16 0-2.25-.2-3.27-.61-1.02-.4-1.91-.96-2.65-1.68-.74-.71-1.33-1.56-1.77-2.53s-.65-2.01-.65-3.11a7.92 7.92 0 0 1 .62-3.11c.41-.97.98-1.82 1.69-2.53s1.56-1.27 2.53-1.68 2.02-.61 3.14-.61 2.15.21 3.1.64 1.76 1 2.45 1.74c.68.73 1.22 1.62 1.61 2.65s.58 2.15.58 3.34v1.16h-10.92c.31.71.79 1.3 1.45 1.75s1.43.68 2.32.68c.64 0 1.22-.1 1.74-.3s.97-.49 1.33-.85l3.1 2.75zm-6.83-9.73c-.77 0-1.44.21-2 .64-.56.42-.96 1.02-1.19 1.79h6.4c-.25-.73-.66-1.32-1.23-1.77-.57-.44-1.23-.67-1.98-.67z"/><path id="D" d="M214.79 72.94V51.52h4.63v1.13a7.53 7.53 0 0 1 1.94-.98 6.85 6.85 0 0 1 2.17-.35c1.08 0 2.1.2 3.05.61s1.79.97 2.49 1.68 1.26 1.55 1.66 2.5.61 1.98.61 3.08-.21 2.13-.62 3.08c-.42.96-.98 1.79-1.69 2.49a7.83 7.83 0 0 1-2.53 1.66c-.97.4-2.01.61-3.11.61-.71 0-1.4-.09-2.06-.26a7.48 7.48 0 0 1-1.85-.75v6.92h-4.69zm7.93-17.63a5.19 5.19 0 0 0-1.8.3c-.55.2-1.02.51-1.45.91v5.36c.41.37.89.66 1.45.87s1.16.32 1.8.32c1.14 0 2.09-.37 2.87-1.12.77-.74 1.16-1.66 1.16-2.76s-.39-2.02-1.17-2.77-1.73-1.12-2.85-1.12z"/><path id="E" d="M232.6 65.12l2.23-3.16c.97.58 1.84 1 2.63 1.26s1.57.39 2.35.39 1.38-.11 1.84-.33c.45-.22.68-.52.68-.88 0-.29-.13-.53-.38-.71s-.65-.31-1.19-.39l-3.04-.46c-1.51-.23-2.66-.74-3.47-1.52s-1.22-1.8-1.22-3.05c0-1.54.59-2.76 1.77-3.65s2.79-1.33 4.83-1.33c1.1 0 2.21.16 3.32.48s2.14.78 3.08 1.38l-2.23 3.01c-.83-.48-1.62-.83-2.37-1.06-.75-.22-1.51-.33-2.26-.33-.6 0-1.08.1-1.45.3s-.55.47-.55.8c0 .31.14.55.41.74.27.18.73.32 1.39.42l3.04.46c1.51.21 2.67.71 3.49 1.49s1.23 1.77 1.23 2.97c0 .73-.17 1.42-.52 2.05-.35.64-.83 1.19-1.43 1.65-.61.46-1.34.83-2.19 1.09s-1.77.39-2.75.39c-1.45 0-2.79-.17-4.04-.51-1.24-.34-2.31-.83-3.2-1.49z"/></defs></svg>
